<?xml version="1.0" encoding="utf-8"?>
<!-- Generator: Adobe Illustrator 22.0.1, SVG Export Plug-In . SVG Version: 6.00 Build 0)  -->
<svg version="1.1" id="Layer_1" xmlns="http://www.w3.org/2000/svg" xmlns:xlink="http://www.w3.org/1999/xlink" x="0px" y="0px"
	 viewBox="0 0 100 100" style="enable-background:new 0 0 100 100;" xml:space="preserve">
<style type="text/css">
	.st0{fill:#FFFFFF;}
</style>
<path class="st0" d="M72,25.3c2,0.7,2.6,2.1,2.6,4.1c-0.1,13.8,0,27.6,0,41.5c0,2.7-1,3.7-3.8,3.7c-13.8,0-27.5,0-41.3,0
	c-3.2,0-4.1-0.9-4.1-4c0-13.7,0-27.5,0-41.2c0-2.1,0.6-3.5,2.6-4.1C42.7,25.3,57.3,25.3,72,25.3z M51.7,72.2c0-5.7,0-11.2,0-16.8
	c-2.2,0-4.3,0-6.4,0c0-2.4,0-4.7,0-7.1c2.2,0,4.3,0,6.5,0c0-2.4,0-4.7,0-7c0-3.9,2.1-6.6,5.8-7.8c2.8-0.9,5.6-0.9,8.4-0.5
	c0.3,0,0.8,0.5,0.8,0.7c0.1,1.9,0,3.8,0,5.8c-1.5,0-2.7,0-4,0c-2,0.1-3.3,0.9-3.5,2.7c-0.2,1.9,0,3.9,0,6c2.4,0,4.8,0,7.3,0
	c-0.3,2.5-0.6,4.8-1,7.2c-2.2,0-4.3,0-6.4,0c0,5.6,0,11.1,0,16.7c4,0,8,0,11.9,0c1,0,1-0.6,1-1.3c0-13.9,0-27.8,0-41.7
	c0-0.9-0.3-1.3-1.3-1.3c-14,0-28,0-42,0c-0.9,0-1.2,0.3-1.2,1.2c0,14,0,27.9,0,41.9c0,1,0.4,1.3,1.4,1.3c2.6,0,5.2,0,7.8,0
	C41.8,72.2,46.7,72.2,51.7,72.2z"/>
</svg>
