<?xml version="1.0" encoding="utf-8"?>
<!-- Generator: Adobe Illustrator 22.0.1, SVG Export Plug-In . SVG Version: 6.00 Build 0)  -->
<svg version="1.1" id="Layer_1" xmlns="http://www.w3.org/2000/svg" xmlns:xlink="http://www.w3.org/1999/xlink" x="0px" y="0px"
	 viewBox="0 0 100 100" style="enable-background:new 0 0 100 100;" xml:space="preserve">
<style type="text/css">
	.st0{fill:#FFFFFF;}
</style>
<g>
	<path class="st0" d="M50.1,74.4c-4.5,0-9,0-13.5,0c-6.3,0-11.1-4.8-11.1-11.2c0-8.8,0-17.6,0-26.4c0-6.6,4.7-11.3,11.3-11.3
		c8.8,0,17.5,0,26.3,0c6.5,0,11.3,4.5,11.4,11c0.1,9,0,18,0,27c0,6.6-5.7,11.2-11.3,11C58.8,74.3,54.4,74.5,50.1,74.4
		C50.1,74.5,50.1,74.4,50.1,74.4z M72.1,49.8c0-4.3,0-8.5,0-12.8c0-5.5-3.7-9.2-9.3-9.2c-8.6,0-17.2,0-25.8,0
		c-5.3,0-9.1,3.7-9.1,8.9c-0.1,8.9-0.1,17.7,0,26.6c0,4.9,3.8,8.8,8.7,8.8c8.9,0,17.9,0,26.8,0c4.9,0,8.7-3.9,8.7-8.8
		C72.1,58.8,72.1,54.3,72.1,49.8z"/>
	<path class="st0" d="M32,50c0-2.5,0-4.9,0-7.4c0-6.1,4.4-10.6,10.5-10.6c4.9,0,9.8,0.1,14.6,0c5.2-0.2,10.5,3.6,10.7,9.6
		c0.2,5.6,0.3,11.2,0,16.7c-0.3,5.7-4.3,9.4-10.1,9.6c-5.6,0.2-11.2,0.1-16.7-0.2c-4.8-0.2-8.9-4.8-8.9-9.6C32,55.5,32,52.8,32,50
		C32,50,32,50,32,50z M64.7,50.1c0-2.5,0-5,0-7.5c0-4.3-2.8-7.3-7.1-7.3c-5.1-0.1-10.2-0.1-15.3,0c-4.2,0.1-7.1,3.1-7.1,7.4
		c0,5,0,10,0,15c0,4.1,3,7.2,7.1,7.3c5.2,0.1,10.3,0.1,15.5,0c4.1-0.1,7-3,7-7.2C64.8,55.3,64.7,52.7,64.7,50.1z"/>
	<path class="st0" d="M49.9,59.4c-5.2,0-9.3-4.1-9.2-9.3c0-5.3,4.1-9.3,9.4-9.2c5.1,0,9.2,4.2,9.2,9.4
		C59.2,55.4,55.1,59.4,49.9,59.4z M50,56.2c3.4,0,6.2-2.7,6.2-6.1c0-3.4-2.7-6.2-6.1-6.2c-3.5,0-6.2,2.7-6.2,6.1
		C43.9,53.6,46.5,56.2,50,56.2z"/>
	<path class="st0" d="M61.8,40.4c0,1.1-1,2.1-2.1,2.2c-1.2,0.1-2.2-1-2.2-2.2c0-1.1,0.9-2,2.1-2.1C60.8,38.3,61.8,39.3,61.8,40.4z"
		/>
</g>
</svg>
