<?xml version="1.0" encoding="utf-8"?>
<!-- Generator: Adobe Illustrator 22.0.1, SVG Export Plug-In . SVG Version: 6.00 Build 0)  -->
<svg version="1.1" id="Layer_1" xmlns="http://www.w3.org/2000/svg" xmlns:xlink="http://www.w3.org/1999/xlink" x="0px" y="0px"
	 viewBox="0 0 100 100" style="enable-background:new 0 0 100 100;" xml:space="preserve">
<style type="text/css">
	.st0{fill:#FFFFFF;}
</style>
<g>
	<path class="st0" d="M50,74.5c-6,0-11.9,0-17.9,0c-4,0-6.7-2.6-6.7-6.6c0-11.9,0-23.9,0-35.8c0-3.8,2.6-6.5,6.4-6.5
		c12.1,0,24.2,0,36.4,0c3.8,0,6.4,2.6,6.4,6.5c0,9.7,0,19.4,0,29.1c0,2.2,0,4.4,0,6.7c0,4.2-3.3,6.8-6.8,6.7
		C61.8,74.4,55.9,74.5,50,74.5z M72.1,50c0-5.8,0-11.6,0-17.5c0-3.2-1.4-4.7-4.7-4.7c-11.6,0-23.3,0-34.9,0c-3.2,0-4.6,1.4-4.6,4.7
		c0,11.6,0,23.3,0,34.9c0,3.2,1.5,4.7,4.6,4.7c11.6,0,23.3,0,34.9,0c3.1,0,4.6-1.5,4.6-4.6C72.1,61.7,72.1,55.8,72.1,50z"/>
	<path class="st0" d="M45.1,44.4c2.5,0,5,0,7.5,0c0.1,0.9,0.1,1.7,0.2,2.8c1.5-1.9,3.2-2.9,5.3-3.2c5.3-0.7,9.1,1.9,9.9,7.3
		c0.4,2.9,0.3,5.8,0.3,8.8c0,2.2,0,4.3,0,6.6c-2.6,0-5.1,0-7.8,0c0-3.3,0-6.5,0-9.8c0-1.2,0-2.4-0.1-3.5c-0.2-2.5-1.7-4-3.8-3.9
		c-2,0.1-3.9,2.1-3.9,4.3c0,3.8,0,7.6,0,11.4c0,0.5,0,1,0,1.6c-2.6,0-5,0-7.6,0C45.1,59.3,45.1,51.9,45.1,44.4z"/>
	<path class="st0" d="M41.2,44.4c0,7.5,0,14.9,0,22.3c-2.6,0-5.1,0-7.7,0c0-7.4,0-14.8,0-22.3C36.1,44.4,38.6,44.4,41.2,44.4z"/>
	<path class="st0" d="M33.3,37.5c0-2.4,1.8-4,4.2-4c2.3,0,4,1.8,3.9,4.1c0,2.3-1.8,4.1-4,4.1C35.1,41.7,33.3,39.8,33.3,37.5z"/>
</g>
</svg>
