<svg width="955.31079" height="641" xmlns="http://www.w3.org/2000/svg" data-name="Layer 1">
 <g>
  <title>Layer 1</title>
  <path stroke="null" d="m551.21819,20.92263c71.41988,-39.00346 162.06591,-18.55595 210.12439,50.60244l-1.6359,1.18461c-47.46494,-68.30469 -137.00258,-88.49473 -207.54368,-49.98136a161.81523,165.15836 0 0 0 -17.32095,10.94313c-72.5405,52.51336 -89.69864,155.47073 -38.24822,229.50989l-1.6359,1.18462c-52.08996,-74.95957 -34.71896,-179.19852 38.72352,-232.36423a164.20218,167.59463 0 0 1 17.53674,-11.07908z" fill="#bab8b8" id="svg_1"/>
  <path stroke="null" d="m929.57223,187.63763l-234.90739,-18.6523a13.81232,14.09768 0 0 1 -12.68499,-15.13153l10.18359,-116.49088a13.81232,14.09768 0 0 1 14.82516,-12.94715l234.90743,18.65235a13.81234,14.0977 0 0 1 12.68506,15.13154l-10.18361,116.4908a13.81234,14.0977 0 0 1 -14.82525,12.94718z" fill="#bab8b8" id="svg_2"/>
  <path stroke="null" d="m874.08413,161.3206q-2.67497,0 -5.36854,-0.2134l-151.81257,-12.0544a23.18373,23.66271 0 0 1 -21.3165,-25.4272l3.46184,-45.41891a23.21118,23.69073 0 0 1 24.91348,-21.7579l196.31163,15.58776a23.21196,23.69153 0 0 1 21.31698,25.4277a67.82889,69.23025 0 0 1 -67.50631,63.85634l0,0.00001z" fill="#fff" id="svg_3"/>
  <path stroke="null" d="m915.57643,108.14318l-192.44506,-15.28071a3.06226,3.12553 0 1 1 0.47502,-6.23224l192.44507,15.28071a3.06226,3.12553 0 1 1 -0.47503,6.23224z" fill="#bab8b8" id="svg_4"/>
  <path stroke="null" d="m835.66816,114.18606l-113.47537,-9.01028a3.06241,3.12568 0 0 1 0.47505,-6.23253l113.47537,9.01032a3.06241,3.12568 0 1 1 -0.47505,6.23253l0,-0.00004z" fill="#bab8b8" id="svg_5"/>
  <path stroke="null" d="m860.66517,128.55874l-139.41092,-11.06964a3.06241,3.12568 0 1 1 0.47505,-6.23253l139.41092,11.06964a3.06241,3.12568 0 0 1 -0.47505,6.23253z" fill="#bab8b8" id="svg_6"/>
  <path stroke="null" d="m913.85317,345.77233l-234.90743,-18.65235a13.81231,14.09767 0 0 1 -12.68498,-15.13153l10.18358,-116.49088a13.81231,14.09767 0 0 1 14.82517,-12.94714l234.90743,18.65235a13.81233,14.09769 0 0 1 12.68505,15.13153l-10.18358,116.49088a13.81233,14.09769 0 0 1 -14.82524,12.94714z" fill="#bab8b8" id="svg_7"/>
  <path stroke="null" d="m858.30462,319.45267q-2.63677,0 -5.30786,-0.21091l-151.81255,-12.0544a23.1838,23.66279 0 0 1 -21.31698,-25.4272l3.46184,-45.41841a23.18546,23.66447 0 0 1 24.91396,-21.75789l196.31113,15.58777a23.18464,23.66364 0 0 1 21.31699,25.42769a67.91199,69.31507 0 0 1 -67.56654,63.85335z" fill="#fff" id="svg_8"/>
  <path stroke="null" d="m899.85731,266.27788l-192.44506,-15.28071a3.06226,3.12553 0 1 1 0.47503,-6.23224l192.44506,15.28071a3.06226,3.12553 0 1 1 -0.47503,6.23224z" fill="#bab8b8" id="svg_9"/>
  <path stroke="null" d="m819.94909,272.32077l-113.47537,-9.01028a3.06241,3.12568 0 1 1 0.47505,-6.23253l113.47536,9.01028a3.06241,3.12568 0 0 1 -0.47505,6.23253l0.00001,0z" fill="#bab8b8" id="svg_10"/>
  <path stroke="null" d="m844.9461,286.69345l-139.41092,-11.06964a3.06241,3.12568 0 0 1 0.47505,-6.23254l139.41092,11.06964a3.06241,3.12568 0 0 1 -0.47505,6.23254z" fill="#bab8b8" id="svg_11"/>
  <path stroke="null" d="m316.31629,284.90893a56.24341,57.40541 0 1 1 102.9127,-46.35046l-1.83535,0.82683a54.23725,55.3578 0 1 0 -99.24201,44.69679l-1.83535,0.82683z" fill="#bab8b8" id="svg_12"/>
  <path stroke="null" d="m899.30359,605.04844c22.96457,-11.10684 40.06968,-33.45311 37.40136,-58.01103c-20.60226,17.02736 -48.65155,26.53573 -77.60786,26.30818c-11.27811,-0.08857 -23.90898,-1.25962 -32.10461,5.19957c-5.0996,4.01898 -7.39991,10.40078 -7.6906,16.7611c-0.29056,6.36066 1.22019,12.79803 2.72237,19.1514l-0.45681,1.50547c26.96335,1.752 54.77157,0.19217 77.73615,-10.91468z" fill="#f2f2f2" id="svg_13"/>
  <path stroke="null" d="m936.13951,546.97649c-8.88186,17.68876 -24.28076,32.43167 -43.41825,41.06121a45.94089,46.89004 0 0 1 -13.24293,3.97128a29.93931,30.55786 0 0 1 -13.77503,-1.83783c-4.15919,-1.52328 -8.25911,-3.5071 -12.67017,-4.1104a16.21593,16.55096 0 0 0 -12.25345,3.37196c-4.07596,3.23521 -6.50721,7.71207 -8.71038,12.17814c-2.44618,4.95872 -4.89724,10.15122 -9.68717,13.53058c-0.58037,0.40947 0.22788,1.26106 0.80733,0.85227c8.33366,-5.87953 9.53626,-16.51132 16.15822,-23.63238a15.58216,15.90409 0 0 1 12.52662,-5.34455c4.5016,0.33879 8.73107,2.38133 12.93065,3.95585a32.13039,32.79421 0 0 0 13.43673,2.2502a43.10216,43.99266 0 0 0 13.40434,-3.47866a92.50308,94.41421 0 0 0 25.36181,-16.10674a86.47985,88.26654 0 0 0 20.26886,-26.26189c0.3068,-0.61104 -0.83251,-1.00603 -1.1373,-0.39901l0.00014,-0.00002z" fill="#fff" id="svg_14"/>
  <path stroke="null" d="m899.13198,585.54488a17.98212,18.35363 0 0 0 20.21713,5.24519c0.66838,-0.28703 0.12257,-1.28666 -0.54668,-0.99926a16.64742,16.99136 0 0 1 -18.79834,-4.91337c-0.46968,-0.58306 -1.33913,0.08773 -0.87211,0.6675l0,-0.00006z" fill="#fff" id="svg_15"/>
  <path stroke="null" d="m867.72307,591.1889a24.18029,24.67986 0 0 1 10.39936,-17.20807c0.57862,-0.41146 -0.22947,-1.26318 -0.80734,-0.85227a25.14188,25.66132 0 0 0 -10.77957,17.92966c-0.08216,0.68536 1.10585,0.81232 1.18756,0.13063l-0.00002,0.00005z" fill="#fff" id="svg_16"/>
  <path stroke="null" d="m923.97815,565.52992a8.17537,8.34427 0 0 1 -3.15207,-7.45827c0.09177,-0.68336 -1.0964,-0.80961 -1.18756,-0.13062a9.15289,9.34199 0 0 0 3.46753,8.25641a0.67943,0.69347 0 0 0 0.83973,0.0924a0.48707,0.49714 0 0 0 0.03237,-0.75985l0,-0.00006z" fill="#fff" id="svg_17"/>
  <path stroke="null" d="m860.93772,495.11393c-0.07081,0.42421 -0.14163,0.84843 -0.22136,1.2762a90.81247,92.68867 0 0 1 -4.48437,16.67193c-0.14709,0.42026 -0.30333,0.84364 -0.46378,1.25818a98.44681,100.48074 0 0 1 -22.58051,34.78723a103.47581,105.61364 0 0 1 -12.91388,11.02396c-6.39924,4.6219 -13.78487,9.13743 -17.83455,15.3644a16.20515,16.53995 0 0 0 -1.15073,2.01152l18.24506,37.67785c0.08708,0.07021 0.1653,0.14382 0.25257,0.21442l0.65543,1.52915c0.25363,-0.15638 0.51252,-0.32379 0.76614,-0.48019c0.14758,-0.09007 0.29113,-0.18859 0.43872,-0.27873c0.0971,-0.06275 0.19404,-0.12589 0.28611,-0.17714c0.03241,-0.02075 0.06462,-0.04196 0.08798,-0.05964c0.09199,-0.05124 0.17072,-0.10821 0.25363,-0.15638q2.17551,-1.39808 4.33443,-2.83058c0.00914,-0.00312 0.00914,-0.00312 0.0142,-0.01459c10.94378,-7.30382 21.23651,-15.55717 29.69296,-25.07959c0.25431,-0.28659 0.51798,-0.57582 0.76394,-0.87965a92.10402,94.00691 0 0 0 10.05702,-13.80824a79.20661,80.84304 0 0 0 4.27408,-8.26452a65.37356,66.72419 0 0 0 5.68826,-23.22502c1.03049,-16.08187 -3.64349,-32.71089 -15.26363,-45.58425c-0.2975,-0.32906 -0.59106,-0.65025 -0.89772,-0.97632z" fill="#f2f2f2" id="svg_18"/>
  <path stroke="null" d="m860.47109,495.37079c5.08205,19.89094 3.331,40.86955 -5.27365,58.71998a36.10516,36.8511 0 0 1 -7.281,10.65565a24.3703,24.8738 0 0 1 -11.53217,6.02122c-4.12425,0.99665 -8.50952,1.57009 -12.21218,3.48562a12.87403,13.14001 0 0 0 -6.93768,9.60282c-0.90594,4.98692 0.24302,10.12206 1.55561,15.12258c1.45737,5.55206 3.06613,11.30507 1.72127,16.80723c-0.16295,0.66666 1.00699,0.94428 1.1697,0.27861c2.33983,-9.57283 -3.81116,-19.25237 -3.57625,-28.93641c0.10962,-4.51876 1.72271,-8.92219 5.83388,-11.4263c3.595,-2.18978 8.11626,-2.78468 12.30472,-3.76006a26.40928,26.9549 0 0 0 11.55233,-5.48536a33.70891,34.40534 0 0 0 7.72863,-10.32668a78.8374,80.4662 0 0 0 8.30564,-27.61765a87.05887,88.85752 0 0 0 -2.24266,-33.4287c-0.17554,-0.68708 -1.29048,-0.39522 -1.11612,0.28742l-0.00008,0.00003z" fill="#fff" id="svg_19"/>
  <path stroke="null" d="m858.34371,548.4487c7.50565,2.39986 15.46808,-0.47128 18.61517,-6.6761c0.31004,-0.61126 -0.76157,-1.15881 -1.072,-0.54672c-2.94825,5.81276 -10.31675,8.42013 -17.33291,6.17673c-0.73836,-0.23607 -0.94438,0.81132 -0.21024,1.04604l-0.00002,0.00005z" fill="#fff" id="svg_20"/>
  <path stroke="null" d="m838.57145,570.51952a25.6732,26.20361 0 0 1 -3.62705,-20.31834c0.16031,-0.66734 -1.00961,-0.94517 -1.16969,-0.27861a26.72215,27.27423 0 0 0 3.82098,21.1396c0.39306,0.62656 1.36669,0.08051 0.97576,-0.54265z" fill="#fff" id="svg_21"/>
  <path stroke="null" d="m863.67124,517.79984a10.08681,10.29521 0 0 1 -7.30654,-4.59153c-0.38453,-0.63017 -1.3578,-0.08334 -0.97573,0.54266a11.30263,11.53615 0 0 0 8.07207,5.09496c0.32302,0.03962 0.62446,-0.0765 0.68993,-0.38376a0.58771,0.59986 0 0 0 -0.47972,-0.66233l-0.00001,0z" fill="#fff" id="svg_22"/>
  <path stroke="null" d="m899.66944,337.52727l-13.95766,-75.83949l-27.40093,-36.81084l-20.30638,13.55044c2.86938,15.88442 24.57423,45.5379 24.57423,45.5379l19.23812,58.65244c-0.0768,0.30494 -0.14799,0.61265 -0.19983,0.92894a10.7168,10.93821 0 1 0 18.05245,-6.01935l0,-0.00005z" fill="#ffb8b8" id="svg_23"/>
  <path stroke="null" d="m838.54986,246.44029l22.98944,-19.04501l0.04366,-0.10068c4.30003,-9.94481 -5.24674,-26.99727 -14.01292,-39.55093a19.65109,20.05708 0 0 0 -26.29693,-5.42428l0,0a19.69445,20.10134 0 0 0 -9.1567,19.05087l1.93357,18.99867l24.49987,26.07137z" fill="#3f3d56" id="svg_24"/>
  <polygon stroke="null" points="757.29833984375,623.8636867487512 742.00146484375,623.8626426059709 734.7251586914062,563.6425062142007 757.3013305664062,563.6436117771445 757.29833984375,623.8636867487512 " fill="#ffb8b8" id="svg_25"/>
  <path stroke="null" d="m761.2012,618.76566l-4.30549,-0.00016l-16.80941,-6.9772l-9.00932,6.97614l-0.00122,0a19.19851,19.59516 0 0 0 -19.19752,19.59386l0,0.63674l49.32204,0.00189l0.00093,-20.23127z" fill="#2f2e41" id="svg_26"/>
  <polygon stroke="null" points="825.1712646484375,623.8636867487512 809.87451171875,623.8626426059709 802.5980834960938,563.6425062142007 825.1742553710938,563.6436117771445 825.1712646484375,623.8636867487512 " fill="#ffb8b8" id="svg_27"/>
  <path stroke="null" d="m829.07434,618.76566l-4.30549,-0.00016l-16.80941,-6.9772l-9.00932,6.97614l-0.00123,0a19.19851,19.59516 0 0 0 -19.19758,19.59386l0,0.63674l49.32204,0.00189l0.001,-20.23127z" fill="#2f2e41" id="svg_28"/>
  <path stroke="null" d="m848.49641,364.47595s1.78614,21.87644 -2.6792,42.84136s-4.46534,80.00905 -4.46534,80.00905l-9.82373,115.05584l-29.47122,-2.73455l-8.0376,-192.33032l-28.57815,64.71778l2.67921,9.11518l-3.56876,2.2788s2.67569,17.7746 0.88955,17.7746s-6.2515,2.73455 -6.2515,2.73455l3.57227,93.88637l-30.36428,-0.91152l-10.71678,-132.17007l11.60987,-75.656l0.89307,-14.5843l4.01881,0.16864l2.04633,-6.0935l3.75861,-10.48246l104.48885,6.38055z" fill="#2f2e41" id="svg_29"/>
  <path stroke="null" d="m850.04007,369.07094l0.15917,-0.22788c8.5007,-12.14705 -4.28437,-41.33607 -6.21267,-45.56745l8.12173,-2.69005l-1.82887,-15.86745l-0.86642,-7.07405l6.20742,-6.33568l0.01744,-0.158l3.57227,-31.90313l5.19399,-21.18974a45.57913,46.5208 0 0 0 -12.93684,-45.08409l-12.00582,-11.55376l-14.59084,-22.03527l-23.52935,0l-8.06769,15.55367a34.29481,35.00335 0 0 0 -26.5347,35.73789l1.82844,40.79266l-7.15803,50.79043l-0.00436,9.19173l-8.05545,9.13743l1.75909,8.97676l-6.13068,2.68163l-2.70711,12.89299c-1.12026,1.50882 -8.51466,11.57197 -8.51466,14.32303c0,0.41303 0.29871,0.81227 0.93972,1.25518c5.0392,3.48273 32.89173,10.58304 45.21894,5.54833c13.13088,-5.35874 65.3282,2.68025 65.85411,2.76215l0.27118,0.04266z" fill="#3f3d56" id="svg_30"/>
  <path stroke="null" d="m645.42623,638.62747a1.1898,1.21438 0 0 0 1.18624,1.21799l281.08382,0a1.19334,1.21799 0 0 0 0,-2.43599l-281.07665,0a1.18984,1.21442 0 0 0 -1.1934,1.21075l-0.00001,0.00725z" fill="#ccc" id="svg_31"/>
  <circle stroke="null" cx="810.06649" cy="120.46567" r="31.16168" fill="#ffb8b8" id="svg_32"/>
  <path stroke="null" d="m807.08124,152.78609a84.75273,86.50373 0 0 0 14.38626,-1.40778c4.69994,-1.10513 15.06962,-9.28921 17.89579,-14.12409l0,0c2.09967,-3.59221 3.3599,-9.14857 4.04759,-13.17695a37.8852,38.66791 0 0 0 -7.40005,-30.5127a11.96916,12.21644 0 0 0 -4.93934,-4.08269c-0.17486,-0.06454 -0.35455,-0.12106 -0.53592,-0.16869a14.7679,15.07301 0 0 1 -7.46113,-4.44456a12.17832,12.42993 0 0 0 -1.25326,-1.25023a18.1903,18.56611 0 0 0 -7.68526,-3.68835c-4.54124,-1.11314 -11.03732,0.28175 -19.30735,4.14945c-4.15486,1.94321 -8.76627,1.4011 -12.32066,0.71168a1.15699,1.18089 0 0 0 -1.07927,0.40947a8.16714,8.33587 0 0 1 -5.49184,2.40386c-1.26198,0.08991 -2.54228,1.91028 -4.08552,4.28076c-0.35016,0.5381 -0.75875,1.1661 -1.05528,1.54931l-0.05931,-0.71969l-0.69421,0.82291a9.91059,10.11534 0 0 0 4.88962,16.35658a19.32684,19.72614 0 0 0 3.90192,0.52964c0.79713,0.05208 1.62174,0.10595 2.41364,0.22478a14.94192,15.25062 0 0 1 11.35001,9.60076a3.9076,3.98833 0 0 0 5.94491,1.78031a6.45617,6.58955 0 0 1 5.85338,-1.24799a4.28576,4.37431 0 0 1 1.94923,2.1426a5.58539,5.70079 0 0 0 2.18252,2.46706c3.24435,1.60049 3.65382,9.05867 2.66135,15.3111c-0.95673,6.02679 -3.03808,10.42327 -5.06144,10.6912c-1.55764,0.20608 -1.73337,0.32402 -1.83934,0.60889l-0.09465,0.25503l0.18141,0.23144a6.38144,6.51328 0 0 0 2.70621,0.29688z" fill="#2f2e41" id="svg_33"/>
  <circle stroke="null" cx="464.61537" cy="253.48308" r="62.17398" fill="#6c63ff" id="svg_34"/>
  <path stroke="null" d="m799.9037,244.07157l-20.4389,-13.34118c-13.01527,9.18828 -30.60465,41.55786 -30.60465,41.55786l-44.51665,41.97656a10.71118,10.93247 0 1 0 11.87138,14.52866l62.04151,-44.11371l21.6473,-40.60818z" fill="#ffb8b8" id="svg_35"/>
  <path stroke="null" d="m797.95525,249.4849l13.61274,-33.34608l-4.92365,-18.42798a19.69653,20.10347 0 0 0 -15.28377,-14.38578l0,0a19.65006,20.05604 0 0 0 -22.59925,14.75749c-3.72843,14.93946 -6.59161,34.36084 0.93885,42.04689l0.07631,0.07788l28.17877,9.27759z" fill="#3f3d56" id="svg_36"/>
  <path stroke="null" d="m42.92305,605.42745a28.49929,29.08809 0 0 0 -11.62113,-20.66803c-0.66653,-0.50675 0.31656,-1.47933 0.98228,-0.97319a29.63285,30.24507 0 0 1 12.04262,21.53255c0.07171,0.81054 -1.33245,0.91478 -1.40377,0.10864l0,0.00003z" fill="#fff" id="svg_40"/>
  <path stroke="null" d="m54.43176,492.50686c0.06789,0.50244 0.13579,1.00489 0.21407,1.51182a107.03204,109.24334 0 0 0 4.67271,19.81096c0.15791,0.50071 0.32646,1.00542 0.5003,1.49987a116.03135,118.42857 0 0 0 25.32768,41.84115a121.95705,124.4767 0 0 0 14.80956,13.4788c7.36939,5.68864 15.90463,11.2896 20.44743,18.77954a19.09938,19.49398 0 0 1 1.282,2.41353l-22.87182,43.69018c-0.10515,0.07933 -0.19998,0.16313 -0.30538,0.24294l-0.82809,1.77637c-0.29306,-0.19388 -0.59192,-0.40099 -0.88498,-0.59485c-0.17057,-0.11178 -0.33604,-0.2333 -0.50661,-0.34508c-0.11209,-0.0776 -0.22401,-0.15572 -0.33055,-0.21959c-0.03743,-0.0257 -0.07461,-0.05188 -0.10145,-0.07361c-0.10655,-0.06387 -0.19716,-0.13399 -0.29306,-0.19387q-2.51167,-1.72989 -5.00251,-3.49973c-0.01065,-0.00399 -0.01065,-0.00399 -0.0162,-0.01773c-12.62486,-9.02124 -24.44802,-19.13632 -34.06156,-30.6763c-0.2891,-0.34729 -0.5891,-0.6981 -0.86776,-1.06535a108.5555,110.79828 0 0 1 -11.34223,-16.64985a93.35327,95.28196 0 0 1 -4.73261,-9.8988a77.05084,78.64273 0 0 1 -5.85116,-27.57661c-0.62553,-18.98417 5.48901,-38.39553 19.64893,-53.11779c0.36251,-0.3764 0.72012,-0.74358 1.09328,-1.11599z" fill="#f2f2f2" id="svg_42"/>
  <path stroke="null" d="m54.97207,492.8272c-6.71461,23.23844 -5.41941,48.01858 4.06399,69.37492a42.554,43.43317 0 0 0 8.18736,12.83023a28.7231,29.31652 0 0 0 13.36496,7.53274c4.82203,1.33129 9.96701,2.17397 14.25882,4.57174a15.17347,15.48695 0 0 1 7.82144,11.57687c0.88474,5.90932 -0.65665,11.91485 -2.38588,17.75552c-1.91997,6.48494 -4.02564,13.20085 -2.64268,19.73382c0.16757,0.79156 -1.22083,1.07397 -1.38813,0.28361c-2.40611,-11.36624 5.19409,-22.53462 5.27175,-33.95168c0.03621,-5.32745 -1.70299,-10.57625 -6.4544,-13.68293c-4.15492,-2.71666 -9.45931,-3.58979 -14.35778,-4.89852a31.12633,31.76941 0 0 1 -13.40833,-6.90223a39.72894,40.54975 0 0 1 -8.72665,-12.4597a92.9198,94.83954 0 0 1 -8.7738,-32.85105a102.60977,104.72971 0 0 1 3.86507,-39.29452c0.23194,-0.80273 1.53474,-0.41637 1.3043,0.38112l-0.00005,0.00004z" fill="#fff" id="svg_43"/>
  <path stroke="null" d="m55.53607,555.43568c-8.92968,2.54103 -18.20464,-1.14481 -21.68497,-8.57419c-0.34286,-0.7319 0.93957,-1.33607 1.28289,-0.60319c3.26047,6.96003 11.84536,10.31239 20.19268,7.93708c0.87846,-0.24998 1.08283,0.9918 0.2094,1.24031z" fill="#fff" id="svg_44"/>
  <path stroke="null" d="m78.02084,582.18941a30.25884,30.88399 0 0 0 5.01623,-23.79735c-0.16441,-0.79228 1.22393,-1.07494 1.38813,-0.28361a31.49521,32.1459 0 0 1 -5.27476,24.75745c-0.48596,0.72312 -1.61295,0.04271 -1.12963,-0.67649l0.00003,0z" fill="#fff" id="svg_45"/>
  <path stroke="null" d="m50.38151,519.12733a11.88853,12.13415 0 0 0 8.77533,-5.13053c0.47604,-0.72766 1.60258,-0.04645 1.12963,0.67649a13.32151,13.59674 0 0 1 -9.69556,5.69434c-0.38199,0.03437 -0.73284,-0.11394 -0.79877,-0.47834a0.69272,0.70703 0 0 1 0.58937,-0.76195z" fill="#fff" id="svg_46"/>
  <polygon stroke="null" points="135.04368591308594,273.53839820658686 137.05130004882812,292.5401384636607 135.8699951171875,317.45682473081615 189.94332885742188,310.9001301419121 195.02455139160156,273.53839820658686 188.55044555664062,273.60292008839315 135.04368591308594,273.53839820658686 " fill="#ffb6b6" id="svg_47"/>
  <polygon stroke="null" points="106.99707794189453,618.524984713069 118.8192138671875,618.524984713069 124.44600677490234,571.9833030037407 106.99707794189453,571.9833030037407 106.99707794189453,618.524984713069 " fill="#ffb6b6" id="svg_48"/>
  <path stroke="null" d="m103.13892,610.25987l18.88726,-1.15061l0,8.25931l17.9566,12.65773a5.05465,5.15908 0 0 1 -2.87221,9.40451l-22.48596,0l-3.8758,-8.16972l-1.51332,8.16972l-8.47812,0l2.38154,-29.17095z" fill="#2f2e41" id="svg_49"/>
  <polygon stroke="null" points="173.40403747558594,618.524984713069 185.22613525390625,618.524984713069 190.8518829345703,571.9833030037407 173.40403747558594,571.9833030037407 173.40403747558594,618.524984713069 " fill="#ffb6b6" id="svg_50"/>
  <path stroke="null" d="m169.54553,610.25987l18.88726,-1.15061l0,8.25931l17.95666,12.65773a5.05465,5.15908 0 0 1 -2.87222,9.40451l-22.48604,0l-3.87585,-8.16972l-1.51331,8.16972l-8.47807,0l2.38157,-29.17095z" fill="#2f2e41" id="svg_51"/>
  <path stroke="null" d="m101.89637,578.38891l0.12852,0l2.27362,-75.6751a19.38762,19.78817 0 0 1 0.25438,-18.69945l0.32551,-0.60141l-0.844,-3.99316a24.92006,25.43492 0 0 1 1.4241,-15.30784l2.12107,-70.59083c-7.57773,-50.1246 28.53544,-82.81397 28.53544,-82.81397l54.09801,0l11.61422,40.7281c7.67801,76.34983 6.28484,150.75035 -5.89908,222.83196l0.33216,0.17144c1.19602,0.42137 1.70898,2.11243 1.14606,3.77722s-1.98892,2.67279 -3.18491,2.25141l-28.56996,-1.01424c-1.19602,-0.42128 -1.70917,-2.11244 -1.14606,-3.77723c0.56293,-1.66478 1.98892,-2.67268 3.18491,-2.25141l1.94258,1.00285l-4.14284,-73.02361l0.45976,-13.33822l-0.94717,-15.13195l-4.37926,-68.06337l-16.5761,83.69879l-16.93167,90.66223a3.11464,3.17899 0 0 1 -2.10028,5.53543l-23.11901,0a3.1243,3.18885 0 1 1 0,-6.3777l0,0.00004z" fill="#2f2e41" id="svg_52"/>
  <circle stroke="null" cx="144.48598" cy="146.68729" r="29.01664" fill="#ffb6b6" id="svg_53"/>
  <path stroke="null" d="m17.33654,283.51216a94.47278,96.4246 0 0 1 16.57827,-26.39643a63.84108,65.16005 0 0 0 -9.69436,31.59621a48.91734,49.92799 0 0 0 6.62076,3.53454a63.43955,64.75022 0 0 0 21.69384,4.97421a94.66106,96.61677 0 0 1 20.32548,-36.88196a63.99349,65.3156 0 0 0 -9.74699,36.72084a100.20156,102.27174 0 0 0 24.40953,-5.33948c11.84163,-4.15767 23.33588,-10.36735 31.52505,-20.02562c8.8628,-10.45326 13.23098,-24.24776 14.64148,-37.99925c1.4105,-13.74073 0.08424,-27.61043 -1.25258,-41.36191c-0.63153,-6.55341 4.71558,-14.09528 4.08405,-20.64869l-0.42107,0c-2.8104,-3.93211 -5.6734,-7.96086 -7.05229,-12.62344c-1.36842,-4.65192 -1.01051,-10.14174 2.13672,-13.8053a14.69563,14.99924 0 0 1 6.45237,-4.08246c0.23165,-0.30078 0.48422,-0.59087 0.74736,-0.88097a60.00927,61.24907 0 0 1 16.57828,-12.65564c-4.47352,3.44857 -7.46289,7.34842 -8.8523,11.37717q5.81026,-1.3053 11.62061,-2.59987a55.97191,57.1283 0 0 1 4.08405,-3.9965c2.07357,-1.83714 2.75772,-1.97682 5.23134,-3.70647a16.68978,17.03459 0 0 0 -4.51559,6.57492c4.97872,-1.27845 9.95745,-3.20149 12.54684,-7.57408c4.29458,-7.23032 -0.81052,-16.98524 -7.9365,-21.30408a28.3954,28.98205 0 0 0 -32.97761,3.70647c-10.30484,-7.74603 -24.97791,-7.61707 -36.44062,-1.82639a53.28303,54.38387 0 0 0 -19.00975,16.87784a74.35147,75.88758 0 0 1 8.61017,-0.61239a26.4059,26.95145 0 0 0 -11.27325,4.55518a77.64932,79.25356 0 0 0 -4.08405,7.29466q-1.21567,2.46567 -2.29463,4.99568c-4.41034,10.24914 -7.2839,21.16444 -10.26272,31.95073c-3.47353,12.56974 -7.19967,25.22538 -13.70473,36.4737a80.26242,81.92066 0 0 1 -44.26134,36.04394c-1.54725,14.21356 5.25239,28.11547 15.89417,37.64482z" fill="#2f2e41" id="svg_54"/>
  <path stroke="null" d="m173.70643,196.10873l-5.63167,-2.15846l-7.10146,-11.71989l-25.29591,2.10968l-6.1484,12.56662l-14.81161,11.54489l6.4774,34.81865l10.06339,42.29395l67.36568,-8.59468l-0.0712,-31.83817s12.17331,-25.15414 -7.49078,-34.57961l-17.35543,-14.44299z" fill="#6c63ff" id="svg_55"/>
  <path stroke="null" d="m277.54395,306.54713a9.63905,9.83819 0 0 1 -13.02773,-7.12533l-75.11222,-46.38914l13.72917,-16.1676l69.51577,50.68281a9.69127,9.8915 0 0 1 4.89499,18.99921l0.00001,0.00004z" fill="#ffb6b6" id="svg_56"/>
  <path stroke="null" d="m164.37552,231.03485s-3.58959,3.6863 5.41736,9.74776c7.21075,4.85266 39.37392,28.83305 50.77524,32.62601a7.5723,7.72875 0 0 0 5.04726,7.95248l10.32313,-23.15418c-2.23456,-5.29324 -5.8088,-4.06761 -7.68943,-2.86746l-12.46768,-9.57008l-30.61546,-31.20298l-18.24205,13.75679l-2.54836,2.71165z" fill="#6c63ff" id="svg_57"/>
  <path stroke="null" d="m134.34732,110.92019a40.4079,41.24273 0 0 0 -4.86161,36.24681" fill="#fd6584" id="svg_58"/>
  <path stroke="null" d="m7.20397,638.62747a1.10557,1.21438 0 0 0 1.10892,1.21799l261.17734,0a1.10886,1.21799 0 1 0 0,-2.43599l-261.17734,0a1.1056,1.21442 0 0 0 -1.10892,1.21799z" fill="#ccc" id="svg_59"/>
  <path stroke="null" id="a4a87c0b-578c-404f-b0e7-3c25016717c2-232" data-name="Path 3114" d="m101.24582,353.60284a2.80458,2.86252 0 0 0 -1.7158,3.64423l39.15995,115.19809a2.80458,2.86252 0 0 0 3.57045,1.75125l227.85793,-81.59724a2.80459,2.86253 0 0 0 1.71558,-3.64477l-39.15994,-115.19813a2.80462,2.86256 0 0 0 -3.57099,-1.75103l-227.85718,81.59759z" fill="#adabab"/>
  <path stroke="null" id="f731b694-f804-4551-a9ab-28894637a524-235" data-name="Path 3124" d="m222.86858,457.30507" fill="#e6e6e6"/>
  <path stroke="null" d="m115.54153,208.65896s-5.0888,0.1866 -2.57341,10.89463c2.01378,8.57259 9.40933,62.35005 15.19161,73.07257a7.57231,7.72876 0 0 0 -1.64131,9.32598l23.04098,-9.69958c1.91362,-5.42263 0.43177,-10.34594 -1.7447,-10.78187l-2.69192,-15.68347l-3.96719,-52.61367l-21.93796,-4.71615l-3.67609,0.20155z" fill="#6c63ff" id="svg_65"/>
  <path stroke="null" d="m905.8902,181.20436l-31.62214,-4.23321a4.51315,4.60639 0 0 1 -3.29244,-2.19837a4.42044,4.51177 0 0 1 -0.3694,-3.91601a86.7782,88.57105 0 0 0 4.79943,-40.65367a4.48361,4.57624 0 0 1 3.07761,-4.88455c14.01924,-4.54182 26.12763,-2.75354 35.98719,5.31354a4.53922,4.63301 0 0 1 1.71981,3.48336a141.94946,144.88216 0 0 1 -5.36027,43.75363a4.50346,4.59651 0 0 1 -4.93978,3.33527z" fill="#6c63ff" id="svg_69"/>
  <path stroke="null" d="m908.12716,159.99554l-24.17867,-3.23676a2.2875,2.33476 0 1 1 0.59496,-4.62987l24.17867,3.23676a2.2875,2.33476 0 1 1 -0.59496,4.62987z" fill="#fff" id="svg_70"/>
  <path stroke="null" d="m909.17044,151.87689l-24.17867,-3.23676a2.28751,2.33477 0 1 1 0.59496,-4.62988l24.17867,3.23676a2.28751,2.33477 0 1 1 -0.59496,4.62988z" fill="#fff" id="svg_71"/>
  <circle stroke="null" cx="825.66079" cy="34.62257" r="10.03955" fill="#3f3d56" id="svg_73"/>
  <path stroke="null" fill="none" id="svg_76" d="m166.45108,356.58126c1.00281,0 2.04426,0.69489 8.02245,0c13.29317,-1.54522 31.43882,-10.56775 49.13752,-14.32935c13.77947,-2.92864 24.23932,-3.22366 32.08981,6.14115c10.85056,12.94359 14.01171,23.18027 15.0421,27.63517c0.92159,3.98459 -1.00281,2.04705 -3.00842,-4.0941l-3.00842,-21.49402l0,-6.14115"/>
  <polyline stroke="null" fill="none" points="264.7262268066406,332.016628050078 264.7262268066406,330.99309173464644 " id="svg_77" stroke-linecap="round"/>
  <path stroke="null" fill="#f4f4f7" d="m324.37001,303.43868l2.22573,-0.73369l0,0c0.29158,-0.09612 3.43946,9.02712 7.03098,20.37731c3.59153,11.35019 6.26666,20.62925 5.97508,20.72536l-2.22573,0.73369l0,0c-0.29158,0.09612 -3.43946,-9.02711 -7.03098,-20.3773c-3.59153,-11.35019 -6.26666,-20.62926 -5.97508,-20.72537z" id="svg_80"/>
  <path stroke="null" fill="#f4f4f7" d="m340.74042,361.26257l0,0c0,-1.69583 1.34691,-3.07057 3.00841,-3.07057l0,0c0.79788,0 1.56308,0.32351 2.12727,0.89935c0.56419,0.57585 0.88115,1.35686 0.88115,2.17122l0,0c0,1.69583 -1.34691,3.07057 -3.00841,3.07057l0,0c-1.6615,0 -3.00841,-1.37474 -3.00841,-3.07057l-0.00001,0zm3.00841,-3.07057l0,6.14114m-3.00841,-3.07057l6.01683,0" id="svg_82"/>
  <rect stroke="null" transform="matrix(0.94763 -0.334831 0.328054 0.967208 -109.606 82.9959)" fill="#f4f4f7" x="125.69003" y="327.63027" width="199.63653" height="106.77339" id="svg_84"/>
  <path stroke="null" d="m147.55708,356.56333a9.63904,9.83818 0 0 1 -4.73791,-14.2896l-23.76234,-86.26183l20.84848,-2.22359l16.8019,85.49176a9.69127,9.8915 0 0 1 -9.15013,17.28324l0,0.00002z" fill="#ffb6b6" id="svg_64"/>
  <path stroke="null" fill="#f43f3f" d="m270.69836,384.89241l-14.79764,-12.16319c-4.46091,-3.66562 -11.75965,-9.668 -16.22088,-13.33452l-14.79643,-12.16257c-4.46469,-3.66736 -9.15535,-2.00471 -10.42812,3.69636l-4.22354,18.90441c-1.27435,5.69956 -3.35918,15.03005 -4.6335,20.72658l-4.22419,18.90569c-1.27311,5.70318 2.37756,8.70186 8.11216,6.66916l58.89045,-20.87437c5.74033,-2.03472 6.78126,-6.69641 2.32168,-10.36755l0,0zm-31.12876,13.72889l-5.64145,1.99967l-1.73798,-5.10785l5.64145,-1.99967l1.73798,5.10785zm-3.29038,-8.77518l-5.09304,1.80528l-7.94232,-21.67522l6.06016,-2.14809l6.9752,22.01803l0,0z" id="svg_85"/>
  <path stroke="null" id="svg_63" d="m465.28893,227.22292c2.95484,0.00358 5.77766,0.4944 8.451,1.31436l-2.11575,3.51047l15.01843,0l-3.75557,-6.23962l-3.7527,-6.23775l-1.97545,3.2869c-3.70231,-1.29853 -7.69354,-2.02527 -11.86726,-2.02527c-19.21132,0 -34.7827,14.93914 -34.7827,33.3692c0,7.64908 2.71183,14.67691 7.22492,20.30764l5.28889,-3.89568c-3.65006,-4.5504 -5.84467,-10.22866 -5.85658,-16.41012c0.02658,-14.90046 12.59266,-26.95728 28.12278,-26.98013l0,0zm27.56145,6.67769l-5.28888,3.89754c3.64914,4.54867 5.84377,10.22335 5.85381,16.40665c-0.02659,14.90034 -12.59266,26.95544 -28.12368,26.97999c-2.75219,-0.00341 -5.38519,-0.43273 -7.89528,-1.1507l1.99099,-3.30283l-15.01836,0l3.75279,6.23617l3.7555,6.24477l2.09375,-3.48573c3.55098,1.18591 7.3514,1.84753 11.32061,1.84925c19.21409,-0.00343 34.7828,-14.94259 34.78732,-33.37266c-0.00451,-7.64907 -2.71827,-14.67518 -7.22856,-20.30244l0,0z" stroke-width="0" fill="#f2f2f2"/>
 </g>

</svg>