<?xml version="1.0" encoding="utf-8"?>
<!-- Generator: Adobe Illustrator 22.0.1, SVG Export Plug-In . SVG Version: 6.00 Build 0)  -->
<svg version="1.1" id="Layer_1" xmlns="http://www.w3.org/2000/svg" xmlns:xlink="http://www.w3.org/1999/xlink" x="0px" y="0px"
	 viewBox="0 0 100 100" style="enable-background:new 0 0 100 100;" xml:space="preserve">
<style type="text/css">
	.st0{fill:#FFFFFF;}
</style>
<path class="st0" d="M50,29c8.8,0,17.6,0,26.4,0c2.7,0,4.9,1.8,5.5,4.4c0.1,0.4,0.1,0.7,0.1,1.1c0,10.3,0,20.7,0,31
	c0,3.1-2.4,5.5-5.5,5.5c-17.7,0-35.3,0-53,0c-3.1,0-5.5-2.4-5.5-5.5c0-10.3,0-20.7,0-31c0-3.1,2.4-5.5,5.5-5.5
	C32.4,29,41.2,29,50,29z M77.5,31.6c0,0,0-0.1,0-0.1c-0.4,0-0.8-0.1-1.2-0.1c-13.7,0-27.3,0-41,0c-3.9,0-7.8,0-11.7,0
	c-0.4,0-0.8,0.1-1.2,0.1c0,0,0,0.1,0,0.1c9.2,7.6,18.3,15.2,27.5,22.8C59.2,46.9,68.4,39.2,77.5,31.6z M77.7,68.4
	C71.5,62.2,65.4,56.1,59.3,50c-0.1,0.1-0.2,0.1-0.3,0.2c-2.7,2.2-5.4,4.5-8.1,6.7c-0.6,0.5-1.2,0.5-1.8,0c-1.7-1.4-3.4-2.9-5.2-4.3
	c-1.1-0.9-2.2-1.8-3.1-2.6c-6.2,6.1-12.3,12.3-18.5,18.4c0.4,0.1,0.9,0.2,1.3,0.2c2.9,0,5.8,0,8.7,0c14.7,0,29.3,0,44,0
	C76.7,68.6,77.2,68.5,77.7,68.4z M20.7,33.3c0,0-0.1,0-0.1,0c0,0.5-0.1,0.9-0.1,1.4c0,6.9,0,13.8,0,20.7c0,3.3,0,6.6,0,9.9
	c0,0.4,0.1,0.8,0.1,1.2c6.1-6.1,12.2-12.1,18.2-18.2C32.8,43.3,26.7,38.3,20.7,33.3z M79.4,33.3c-6.1,5.1-12.2,10.1-18.1,15
	c6.1,6.1,12.1,12.1,18.2,18.2c0-0.3,0.1-0.6,0.1-0.9c0-10.4,0-20.7,0-31.1C79.5,34.1,79.5,33.7,79.4,33.3z"/>
</svg>
