<?xml version="1.0" encoding="utf-8"?>
<!-- Generator: Adobe Illustrator 22.0.1, SVG Export Plug-In . SVG Version: 6.00 Build 0)  -->
<svg version="1.1" id="Layer_1" xmlns="http://www.w3.org/2000/svg" xmlns:xlink="http://www.w3.org/1999/xlink" x="0px" y="0px"
	 viewBox="0 0 100 100" style="enable-background:new 0 0 100 100;" xml:space="preserve">
<style type="text/css">
	.st0{fill:#FFFFFF;}
</style>
<path class="st0" d="M65.8,42.2c0,2.2-0.4,3.9-1,5.6c-1,2.9-2.4,5.6-4,8.3c-2.7,4.6-5.8,9-9.1,13.3c-1.1,1.4-2.2,2.8-3.3,4.2
	c-0.6,0.8-1.5,0.8-2.1,0c-4.7-5.7-9-11.6-12.7-18c-1.4-2.5-2.7-5-3.7-7.7c-1.4-3.8-1.3-7.7,0.2-11.4c2.4-6,6.7-10,13-11.5
	c7.2-1.6,13.4,0.5,18.3,6c2.3,2.6,3.6,5.6,4.1,9C65.7,40.8,65.7,41.7,65.8,42.2z M47.3,70.7c0.5-0.6,0.9-1.2,1.3-1.7
	c3.4-4.4,6.7-8.9,9.6-13.7c1.5-2.6,3-5.2,4-8.1c0.4-1.2,0.8-2.4,0.9-3.7c0.1-1.5-0.1-3-0.4-4.4c-1.9-7.9-9.6-13.3-18.1-11.9
	c-4.2,0.7-7.6,2.8-10.1,6.2c-1.8,2.4-2.8,5.2-3.1,8.2c-0.2,1.8,0.2,3.6,0.8,5.3c1,2.8,2.4,5.4,3.9,8c2.6,4.4,5.6,8.7,8.8,12.8
	C45.7,68.7,46.5,69.7,47.3,70.7z"/>
<path class="st0" d="M47.3,78.9c3.4,0.1,6.7-0.2,10-1.1c1.5-0.4,3-0.9,4.3-1.8c0.4-0.2,0.7-0.5,1-0.8c0.7-0.7,0.6-1.3,0-2
	c-0.6-0.7-1.4-1.1-2.2-1.5c-1.6-0.7-3.2-1.2-4.9-1.5c-0.7-0.1-1.1-0.6-1.1-1.2c0-0.6,0.4-1.2,1-1.3c0.3-0.1,0.7,0,1,0.1
	c2,0.4,3.9,1,5.7,1.9c1,0.5,1.9,1.2,2.7,2.1c1.4,1.7,1.3,3.7-0.2,5.3c-1,1.1-2.3,1.8-3.6,2.3c-1.9,0.8-3.9,1.3-5.9,1.6
	c-2.8,0.5-5.7,0.7-8.5,0.6c-3.5-0.1-7-0.4-10.3-1.4c-1.9-0.5-3.6-1.2-5.2-2.4c-0.9-0.7-1.6-1.4-1.9-2.5c-0.4-1.4-0.1-2.6,0.9-3.7
	c0.9-1.1,2.1-1.8,3.4-2.3c1.7-0.8,3.6-1.3,5.4-1.7c0.7-0.1,1.4,0.3,1.5,1c0.1,0.7-0.3,1.3-1,1.5c-1.1,0.3-2.2,0.5-3.3,0.9
	c-1.3,0.4-2.5,0.9-3.6,1.8c-0.2,0.2-0.4,0.4-0.6,0.6c-0.4,0.5-0.4,1,0,1.6c0.4,0.5,0.9,0.9,1.5,1.2c1.4,0.8,2.9,1.3,4.5,1.7
	c2.3,0.6,4.7,0.9,7,1C45.7,79,46.5,78.9,47.3,78.9z"/>
<path class="st0" d="M47.6,33.8c4.2,0,7.6,3.4,7.6,7.6c0,4.2-3.4,7.6-7.7,7.6c-4.2,0-7.6-3.4-7.6-7.6C39.9,37.2,43.4,33.8,47.6,33.8
	z M47.6,36.3c-2.8,0-5.1,2.3-5,5.1c0,2.8,2.3,5.1,5.1,5c2.8,0,5-2.3,5-5.1C52.6,38.6,50.4,36.3,47.6,36.3z"/>
</svg>
