<?xml version="1.0" encoding="utf-8"?>
<!-- Generator: Adobe Illustrator 22.0.1, SVG Export Plug-In . SVG Version: 6.00 Build 0)  -->
<svg version="1.1" id="Layer_1" xmlns="http://www.w3.org/2000/svg" xmlns:xlink="http://www.w3.org/1999/xlink" x="0px" y="0px"
	 viewBox="0 0 100 100" style="enable-background:new 0 0 100 100;" xml:space="preserve">
<style type="text/css">
	.st0{fill:#FFFFFF;}
</style>
<path class="st0" d="M22,32.7c0.1-2.3,0.4-4.5,1.3-6.6c0.9-2,2.2-3.6,4-4.8c1.4-0.9,2.9-1.7,4.4-2.5c1.8-0.9,4.3-0.1,5.3,1.7
	c2.2,3.7,4.5,7.3,7,10.8c1.4,1.9,0.9,4.4-0.9,5.8c-0.7,0.5-1.3,1.1-2,1.5c-2.9,2-3.1,5.5-1.7,7.9c0.8,1.4,1.9,2.7,3,4
	c3.6,4.3,7.6,8.1,12.1,11.4c1.5,1.1,3.2,1.5,5,1.2c1.3-0.2,2.4-0.9,3.2-2c0.6-0.8,1.2-1.6,1.8-2.4c1.4-1.8,3.9-2.3,5.8-1
	c3.5,2.5,7.2,4.9,10.9,7.1c2,1.2,2.6,3.6,1.5,5.6c-0.7,1.3-1.4,2.6-2.3,3.9c-1.9,3-4.6,4.6-8,5.1c-4,0.7-7.9,0.1-11.7-1.1
	c-5.7-1.8-10.8-4.7-15.5-8.3c-6.8-5.3-12.6-11.4-17.1-18.7c-2.6-4.2-4.6-8.7-5.6-13.6C22.3,36.2,22.2,34.4,22,32.7z M24.3,33.7
	c0.1,0.8,0.2,2.2,0.5,3.5c1,5,3.1,9.6,5.9,13.9c4,6.2,9,11.5,14.7,16.2c4.4,3.6,9.2,6.6,14.6,8.5c3.7,1.3,7.4,2.2,11.4,1.7
	c3.2-0.3,5.9-1.7,7.6-4.5c0.7-1.1,1.3-2.3,2-3.4c0.7-1.3,0.4-2.4-0.9-3.1c-1.4-0.8-2.8-1.7-4.2-2.5c-2.2-1.4-4.3-2.9-6.4-4.3
	c-1.1-0.7-2.2-0.6-3,0.5c-0.6,0.8-1.2,1.7-1.9,2.4c-0.7,0.7-1.4,1.4-2.2,1.9c-3.2,1.7-6.3,1.2-9.1-0.8c-5.2-3.8-9.8-8.2-13.7-13.3
	c-0.8-1-1.6-2-2.1-3.2c-1.7-3.4-1.1-7.7,2.4-10.2c0.7-0.5,1.3-1,2-1.5c1.2-0.8,1.1-2.3,0.4-3.2c-0.8-1-1.5-2.1-2.3-3.2
	c-1.5-2.4-3.1-4.9-4.6-7.3c-0.6-1-1.7-1.5-2.7-1c-1.3,0.7-2.7,1.4-3.9,2.2c-1.6,1-2.7,2.4-3.4,4.2C24.4,29.2,24.3,31.2,24.3,33.7z"
	/>
</svg>
