<svg id="Layer_1" data-name="Layer 1" xmlns="http://www.w3.org/2000/svg" viewBox="0 0 100 100"><defs><style>.cls-1{fill:#28a2db;}</style></defs><title>Testimonials Quotation mark-02</title><path class="cls-1" d="M46.36,27.7v.7c0,8.3.1,16.6,0,25a20.51,20.51,0,0,1-8.2,16.4,11,11,0,0,1-7,2.4h-7a1.63,1.63,0,0,1,.3-.6c1-2,2-4,3-5.9a1.3,1.3,0,0,1,1.1-.9,7,7,0,0,0,5.3-4.1,14.49,14.49,0,0,0,1.4-6.9H20.46V27.9C29.06,27.7,37.66,27.7,46.36,27.7Z"/><path class="cls-1" d="M68.46,53.6H53.76V27.7h25.8v.6c0,8.3.1,16.6,0,25a20.37,20.37,0,0,1-8.2,16.4,11.2,11.2,0,0,1-7.1,2.3h-6.8a3.33,3.33,0,0,1,.3-.6c1-2,2-4.1,3-6.1a1.13,1.13,0,0,1,1-.7,7.51,7.51,0,0,0,5.6-4.6A13.75,13.75,0,0,0,68.46,53.6Z"/></svg>