<svg width="500" height="454" xmlns="http://www.w3.org/2000/svg">
 <g>
  <title>Layer 1</title>
  <g id="freepik--background-simple--inject-2" transform="matrix(1.02216 0 0 1.02395 279.698 -8.69999)">
   <path d="m126.12,397.84a118.5,118.5 0 0 0 38.24,-40.42c57.16,-99.42 44.25,-246.16 -65.83,-309.06c-50.88,-29.07 -124.12,-47.47 -179.1,-17.61c-44.6,24.22 -71.94,69.81 -94.55,111.3c-14.23,26.09 -25.94,54.17 -43.45,78.58c-22.73,31.66 -47.74,73.94 -22.49,110.72c34.41,50.1 99.4,73 158.34,88c63.94,16.34 135.83,18.66 194.89,-13.21q7.17,-3.83 13.95,-8.3z" fill="#D95D60" id="svg_1"/>
   <path d="m126.12,397.84a118.5,118.5 0 0 0 38.24,-40.42c57.16,-99.42 44.25,-246.16 -65.83,-309.06c-50.88,-29.07 -124.12,-47.47 -179.1,-17.61c-44.6,24.22 -71.94,69.81 -94.55,111.3c-14.23,26.09 -25.94,54.17 -43.45,78.58c-22.73,31.66 -47.74,73.94 -22.49,110.72c34.41,50.1 99.4,73 158.34,88c63.94,16.34 135.83,18.66 194.89,-13.21q7.17,-3.83 13.95,-8.3z" fill="#fff" opacity="0.7" id="svg_2"/>
  </g>
  <g id="freepik--wifi-icon--inject-2" transform="matrix(0.885991 0 0 0.885991 261.76 6.26162)">
   <path d="m3.33714,51.75342c42,0.65 77.12,16.6 104.75,48.5a9.71,9.71 0 0 1 -0.9,14a9.58,9.58 0 0 1 -13.67,-1.28a120.2,120.2 0 0 0 -35.33,-28.48a117.06,117.06 0 0 0 -130.8,14.24c-5.08,4.29 -9.6,9.28 -14.18,14.13c-4,4.21 -9.81,4.88 -14,1.27s-4.45,-9.64 -0.67,-14q34.71,-40.25 87.38,-47.55c2.75,-0.38 5.52,-0.67 8.3,-0.8c3.03,-0.14 6.08,-0.03 9.12,-0.03z" fill="#263238" id="svg_3"/>
   <path d="m6.80714,90.73342c26.57,0.69 51.56,12 71.21,34.76c3.88,4.48 3.43,10.26 -0.88,14c-4.09,3.52 -10,3.05 -13.81,-1.33c-10.26,-11.88 -22.69,-20.59 -37.85,-24.68c-30.89,-8.34 -57.6,-0.74 -80,22.13c-0.83,0.85 -1.6,1.76 -2.39,2.65a9.71,9.71 0 1 1 -14.68,-12.72a97.47,97.47 0 0 1 31.33,-24.56c13.79,-6.87 28.36,-10.18 47.07,-10.25z" fill="#263238" id="svg_4"/>
   <path d="m50.52714,157.22342a9.72,9.72 0 0 1 -6.21,9.09a9.59,9.59 0 0 1 -10.83,-2.72a41.17,41.17 0 0 0 -14.84,-11c-16,-6.76 -33.55,-2.56 -45.42,10.84c-2.81,3.18 -6.32,4.33 -10.38,3.1a9.71,9.71 0 0 1 -4.51,-15.65c20.32,-24.5 57.7,-28 82.15,-7.54a59,59 0 0 1 7.69,7.71c1.35,1.64 1.93,3.91 2.86,5.9l-0.51,0.27z" fill="#263238" id="svg_5"/>
   <path d="m3.29714,208.26342a19.51,19.51 0 1 1 19.45,-19.38a19.42,19.42 0 0 1 -19.45,19.38z" fill="#263238" id="svg_6"/>
  </g>
  <g id="freepik--Plant--inject-2" transform="matrix(1 0 0 1 274.1 1.64754)">
   <ellipse cx="-182.61" cy="340.93" rx="12.68" ry="33.26" fill="#D95D60" stroke="#263238" stroke-miterlimit="10" id="svg_16"/>
   <ellipse cx="-399.26" cy="677.30001" rx="23.7" ry="10.32" fill="#D95D60" stroke="#263238" stroke-miterlimit="10" id="svg_17" transform="rotate(-72.37 -522.22 329.01)"/>
   <path d="m-236.25,395.65c-12.91,-2.19 -22.6,-8.52 -21.65,-14.13s12.19,-8.4 25.09,-6.22s22.6,8.52 21.65,14.13s-12.19,8.4 -25.09,6.22z" fill="#D95D60" stroke="#263238" stroke-miterlimit="10" id="svg_18"/>
   <path d="m-131.27,364.9c-10.78,10.69 -23.52,15.33 -28.45,10.35s-0.19,-17.67 10.59,-28.36s23.52,-15.33 28.45,-10.35s0.19,17.67 -10.59,28.36z" fill="#D95D60" stroke="#263238" stroke-miterlimit="10" id="svg_19"/>
   <path d="m-205.56,335.57c10.43,15.13 13.56,31.07 6.94,35.61s-20.38,-4.03 -30.81,-19.18s-13.57,-31 -6.94,-35.59s20.37,4.04 30.81,19.16z" fill="#D95D60" stroke="#263238" stroke-miterlimit="10" id="svg_20"/>
   <line x1="-181.72" y1="372.53" x2="-180.74" y2="418.26" fill="none" stroke="#263238" stroke-linecap="round" stroke-miterlimit="10" id="svg_21"/>
   <line x1="-182.9" y1="328.56" x2="-181.72" y2="372.53" fill="none" stroke="#263238" stroke-linecap="round" stroke-miterlimit="10" id="svg_22"/>
   <line x1="-182.82" y1="321.39" x2="-182.9" y2="324.76" fill="none" stroke="#263238" stroke-linecap="round" stroke-miterlimit="10" id="svg_23"/>
   <path d="m-198.67,369a127.65,127.65 0 0 1 12.53,48" fill="none" stroke="#263238" stroke-linecap="round" stroke-miterlimit="10" id="svg_24"/>
   <path d="m-220.45,335.7a150.6,150.6 0 0 1 21.78,33.3" fill="none" stroke="#263238" stroke-linecap="round" stroke-miterlimit="10" id="svg_25"/>
   <path d="m-227.3,328.45s1.31,1.21 3.47,3.5" fill="none" stroke="#263238" stroke-linecap="round" stroke-miterlimit="10" id="svg_26"/>
   <path d="m-158.93,373.72a150.09,150.09 0 0 0 -20.56,40.79" fill="none" stroke="#263238" stroke-linecap="round" stroke-miterlimit="10" id="svg_27"/>
   <path d="m-144.35,357a119.81,119.81 0 0 0 -14.58,16.76" fill="none" stroke="#263238" stroke-linecap="round" stroke-miterlimit="10" id="svg_28"/>
   <path d="m-128.77,345.08a66.64,66.64 0 0 0 -11.11,7.92" fill="none" stroke="#263238" stroke-linecap="round" stroke-miterlimit="10" id="svg_29"/>
   <path d="m-159.47,336.79c-7,22.11 -16.45,54.77 -20.85,83.13" fill="none" stroke="#263238" stroke-linecap="round" stroke-miterlimit="10" id="svg_30"/>
   <path d="m-155.19,323.68c-1.25,3.73 -2.7,8.15 -4.28,13.11" fill="none" stroke="#263238" stroke-linecap="round" stroke-miterlimit="10" id="svg_31"/>
   <path d="m-150.8,311s-1.23,3.39 -3.21,9.19" fill="none" stroke="#263238" stroke-linecap="round" stroke-miterlimit="10" id="svg_32"/>
   <path d="m-211.81,386.37c8.78,3.33 17.34,9.75 21.51,21.91" fill="none" stroke="#263238" stroke-linecap="round" stroke-miterlimit="10" id="svg_33"/>
   <path d="m-228,383.07a55.5,55.5 0 0 1 16.21,3.3" fill="none" stroke="#263238" stroke-linecap="round" stroke-miterlimit="10" id="svg_34"/>
   <path d="m-238.53,383.33s1.56,-0.22 4.14,-0.32" fill="none" stroke="#263238" stroke-linecap="round" stroke-miterlimit="10" id="svg_35"/>
   <path d="m-125.8,395.65c12.91,-2.19 22.6,-8.52 21.65,-14.13s-12.19,-8.4 -25.1,-6.22s-22.59,8.52 -21.64,14.13s12.18,8.4 25.09,6.22z" fill="#D95D60" stroke="#263238" stroke-miterlimit="10" id="svg_36"/>
   <path d="m-150,386.27c-8.88,3.29 -17.58,9.72 -21.79,22" fill="none" stroke="#263238" stroke-linecap="round" stroke-miterlimit="10" id="svg_37"/>
   <path d="m-132.67,383a56,56 0 0 0 -17.33,3.27" fill="none" stroke="#263238" stroke-linecap="round" stroke-miterlimit="10" id="svg_38"/>
   <path d="m-123.53,383.33s-1,-0.14 -2.79,-0.25" fill="none" stroke="#263238" stroke-linecap="round" stroke-miterlimit="10" id="svg_39"/>
   <path d="m-150.15,447.14a61.49,61.49 0 0 0 6,-26.18a54.13,54.13 0 0 0 -2.4,-16l-67.54,0a53.81,53.81 0 0 0 -2.4,16a61.63,61.63 0 0 0 6,26.18l60.34,0z" fill="#263238" id="svg_40"/>
   <path d="m-215.83,412.44c-0.19,1.23 -0.34,2.47 -0.45,3.74l71.91,0c-0.11,-1.27 -0.26,-2.51 -0.45,-3.74l-71.01,0z" fill="#7a7a7a" id="svg_41"/>
   <path d="m-145.13,431.56c0.22,-1.24 0.42,-2.49 0.57,-3.74l-71.52,0c0.15,1.25 0.34,2.5 0.57,3.74l70.38,0z" fill="#7a7a7a" id="svg_42"/>
   <path d="m-207.76,421.17a2.91,2.91 0 1 1 -2.91,-2.91a2.92,2.92 0 0 1 2.91,2.91z" fill="#8c8c8c" id="svg_43"/>
   <path d="m-193.21,421.17a2.91,2.91 0 1 1 -2.91,-2.91a2.91,2.91 0 0 1 2.91,2.91z" fill="#8c8c8c" id="svg_44"/>
   <path d="m-178.66,421.17a2.91,2.91 0 1 1 -2.91,-2.91a2.91,2.91 0 0 1 2.91,2.91z" fill="#8c8c8c" id="svg_45"/>
   <circle cx="-167.02" cy="421.17" r="2.91" fill="#8c8c8c" id="svg_46"/>
   <path d="m-149.56,421.17a2.91,2.91 0 1 1 -2.91,-2.91a2.91,2.91 0 0 1 2.91,2.91z" fill="#8c8c8c" id="svg_47"/>
  </g>
  <g id="freepik--Device--inject-2" transform="matrix(0.959922 0 0 0.959922 280.169 20.81)">
   <path d="m156.12667,217.78571l0,0a3.86,3.86 0 0 0 -4.27,3.35l-19.38,149.74l12.62,1.42l14.45,-150.29a3.88,3.88 0 0 0 -3.42,-4.22z" fill="#263238" stroke="#263238" stroke-linecap="round" stroke-linejoin="round" id="svg_48"/>
   <path d="m-38.75333,217.78571l0,0a3.86,3.86 0 0 1 4.27,3.35l19.4,149.74l-12.62,1.42l-14.47,-150.29a3.88,3.88 0 0 1 3.42,-4.22z" fill="#263238" stroke="#263238" stroke-linecap="round" stroke-linejoin="round" id="svg_49"/>
   <rect x="-23.44333" y="367.85571" width="206.45" height="77.98" rx="4.59" fill="#fff" stroke="#263238" stroke-linecap="round" stroke-linejoin="round" id="svg_50"/>
   <rect x="-27.81333" y="377.47571" width="215.19" height="58.76" rx="4.17" fill="#fff" stroke="#263238" stroke-linecap="round" stroke-linejoin="round" id="svg_51"/>
   <rect x="-131.71333" y="367.85571" width="206.45" height="77.98" rx="4.59" fill="#fff" stroke="#263238" stroke-linecap="round" stroke-linejoin="round" id="svg_52"/>
   <rect x="-136.08333" y="377.47571" width="215.19" height="58.76" rx="4.17" fill="#fff" stroke="#263238" stroke-linecap="round" stroke-linejoin="round" id="svg_53"/>
   <rect x="-117.98333" y="390.35571" width="180.84" height="31.58" rx="5.01" fill="#263238" stroke="#263238" stroke-linecap="round" stroke-linejoin="round" id="svg_54"/>
   <path d="m-107.93333,398.00571a8.39,8.39 0 1 0 6.38,0.06" fill="none" stroke="#D95D60" stroke-linecap="round" stroke-miterlimit="10" stroke-width="3px" id="svg_55"/>
   <line x1="-104.73333" y1="394.75571" x2="-104.73333" y2="400.96571" fill="none" stroke="#D95D60" stroke-linecap="round" stroke-miterlimit="10" stroke-width="3px" id="svg_56"/>
  </g>
  <g id="freepik--Character--inject-2" transform="matrix(1 0 0 1 274.1 1.64754)">
   <path d="m4.67,416.23s-8.17,2.57 -9.9,2.9s-7,-1 -7.21,1s3.06,3.93 8.19,6s10.76,3.76 14.58,3.59s3.09,-7.7 3.3,-9s-8.96,-4.49 -8.96,-4.49z" fill="#fff" stroke="#263238" stroke-linecap="round" stroke-linejoin="round" id="svg_57"/>
   <path d="m-1.57,424.31c-6.39,-2.64 -9.37,-4 -10.67,-4.65a0.89,0.89 0 0 0 -0.2,0.51c-0.16,2.09 3.06,3.93 8.19,6s10.76,3.76 14.58,3.59c1.43,-0.07 2.22,-1.16 2.66,-2.57a36.87,36.87 0 0 1 -14.56,-2.88z" fill="#fff" stroke="#263238" stroke-linecap="round" stroke-linejoin="round" id="svg_58"/>
   <path d="m54.32,339.55l-2.14,1.17l0,3.11s-44.63,7.44 -45.21,11.33s-2.35,61.76 -2.35,61.76s7.2,7.75 8.75,6s1.95,-7.36 1.95,-7.36l7.4,-51.26s50.27,4.62 57.86,2.28s11.28,-12.44 11.47,-17.11s0.2,-6.81 0.2,-6.81l-34.25,-4.66l-3.68,1.55z" fill="#D95D60" stroke="#263238" stroke-linecap="round" stroke-linejoin="round" id="svg_59"/>
   <path d="m39.15,418.32l-0.32,0.53a50.44,50.44 0 0 1 -5.51,7.25c-3.31,3.5 -8.75,6.42 -8.56,7.58s3.89,1.95 16.53,-1.94c5.69,-1.75 9.92,-1.75 10.5,-3.7s-4.08,-10.3 -4.08,-10.3l-8.56,0.58z" fill="#fff" stroke="#263238" stroke-linecap="round" stroke-linejoin="round" id="svg_60"/>
   <path d="m51.79,428a5.46,5.46 0 0 0 -0.5,-2.74a76.92,76.92 0 0 1 -13.3,4.88a85.49,85.49 0 0 1 -12.61,2.49c-0.42,0.41 -0.66,0.76 -0.62,1c0.19,1.17 3.89,1.95 16.53,-1.94c5.71,-1.69 9.92,-1.69 10.5,-3.69z" fill="#fff" stroke="#263238" stroke-linecap="round" stroke-linejoin="round" id="svg_61"/>
   <path d="m66.58,347.91s-4.67,-4.08 -5.06,-1.75s-1.17,2.92 -1.17,2.92s-32.67,3.92 -36.35,6.22s-4.86,5.45 -2.72,10.12s16.53,55.82 16.53,55.82a23.76,23.76 0 0 0 4.67,1.55c2.14,0.39 6.61,-1.75 6.61,-1.75s-0.54,-9.53 -1.9,-12.64s-6.93,-39 -6.93,-39s23.61,0.09 31.59,0.09s16.72,-6.61 18.47,-12.06s1,-6.61 1,-6.61" fill="#D95D60" stroke="#263238" stroke-linecap="round" stroke-linejoin="round" id="svg_62"/>
   <line x1="40.24" y1="369.41" x2="39.11" y2="363.29" fill="none" stroke="#263238" stroke-linecap="round" stroke-linejoin="round" id="svg_63"/>
   <path d="m77.37,356.51a12.17,12.17 0 0 1 1.51,2.83" fill="none" stroke="#263238" stroke-linecap="round" stroke-linejoin="round" id="svg_64"/>
   <path d="m68.48,349.76a22.57,22.57 0 0 1 7.64,5.2" fill="none" stroke="#263238" stroke-linecap="round" stroke-linejoin="round" id="svg_65"/>
   <path d="m75.87,350.86a15.63,15.63 0 0 1 7.12,6.56" fill="none" stroke="#263238" stroke-linecap="round" stroke-linejoin="round" id="svg_66"/>
   <path d="m54.8,291.82s0,0.28 -0.05,0.76c-0.17,2.75 -3.22,6.84 -1.4,12c4.13,11.64 3.29,20.19 2.92,17.7c0.58,3.89 -2.92,12.25 -2.92,15s-7.2,3.13 9.14,8s22,4.65 26.06,3.09s7,-2.92 7.39,-6.22s-3.11,-9.14 -3.3,-14.2s-0.89,-20.89 -5.75,-31s-17.7,-17.12 -17.7,-17.12l-14.39,11.99z" fill="#fff" stroke="#263238" stroke-linecap="round" stroke-linejoin="round" id="svg_67"/>
   <path d="m80.4,330c0.85,-0.65 1.64,-1.31 2.37,-2" fill="none" stroke="#263238" stroke-linecap="round" stroke-linejoin="round" id="svg_68"/>
   <path d="m59.9,341.44a129.55,129.55 0 0 0 17.39,-9.28" fill="none" stroke="#263238" stroke-linecap="round" stroke-linejoin="round" id="svg_69"/>
   <path d="m66.17,340.32a39.69,39.69 0 0 1 -7.22,2.77" fill="none" stroke="#263238" stroke-linecap="round" stroke-linejoin="round" id="svg_70"/>
   <path d="m69.33,338.61s-0.55,0.34 -1.47,0.84" fill="none" stroke="#263238" stroke-linecap="round" stroke-linejoin="round" id="svg_71"/>
   <line x1="72.02" y1="312.9" x2="77.27" y2="306.49" fill="none" stroke="#263238" stroke-linecap="round" stroke-linejoin="round" id="svg_72"/>
   <path d="m53,248.69a28,28 0 0 0 -3.5,4.49c-0.85,1.68 -1,2.9 -2.45,4s-4.45,0.39 -4.37,2.12s1.88,3.38 1.88,3.38s-1.46,10.56 -0.91,12.24s8.11,2 8.11,2l3.85,12.54l13.59,-9.21l0.36,-3.65c0.34,-1.48 2.78,-6.06 4.8,-9.5s1.12,-12.5 -3.76,-16.4s-11.34,-3.5 -13.33,-3.64s-4.27,1.63 -4.27,1.63z" fill="#fff" stroke="#263238" stroke-linecap="round" stroke-linejoin="round" id="svg_73"/>
   <path d="m45.44,264.72a4.82,4.82 0 0 0 5,1.14" fill="none" stroke="#263238" stroke-linecap="round" stroke-linejoin="round" id="svg_74"/>
   <path d="m51.22,258.37c-0.33,0.77 -0.85,1.28 -1.16,1.15s-0.29,-0.87 0.05,-1.64s0.85,-1.28 1.15,-1.15s0.29,0.87 -0.04,1.64z" fill="#263238" id="svg_75"/>
   <path d="m50.69,254.55s2.93,-0.58 3.37,2.32" fill="none" stroke="#263238" stroke-linecap="round" stroke-linejoin="round" id="svg_76"/>
   <polygon points="51.709991455078125,276.8699951171875 56.420013427734375,276.69000244140625 53.19000244140625,280.6300048828125 51.709991455078125,276.8699951171875 " fill="#263238" stroke="#263238" stroke-linecap="round" stroke-linejoin="round" id="svg_77"/>
   <polyline points="62.459991455078125,271.989990234375 60.420013427734375,271.3800048828125 59.209991455078125,273.2799987792969 " fill="none" stroke="#263238" stroke-linecap="round" stroke-linejoin="round" id="svg_78"/>
   <path d="m61.32,244.05s2.94,-3.38 -0.59,-5s-15.54,1.31 -14.25,6.58s12.5,5.94 13.57,6s-2.14,1.22 -1.26,2.82s3,2.4 3.11,4.13s-2,4.05 -1,5.06s2.6,-0.5 3.62,-0.89s3.81,2.42 1.61,6s-3.68,3.21 -3.68,3.21a3.34,3.34 0 0 0 1,3.81c2,1.69 6,1.19 7,-0.45s2.73,-3.12 6.33,-6.66s5.31,-12.48 2.82,-18.65s-13.78,-8.68 -18.28,-5.96z" fill="#263238" stroke="#263238" stroke-linecap="round" stroke-linejoin="round" id="svg_79"/>
   <polygon points="69.14999389648438,276.8900146484375 50.6199951171875,290.5400085449219 51.67999267578125,296.42999267578125 72.54000854492188,281.05999755859375 69.14999389648438,276.8900146484375 " fill="#fff" stroke="#263238" stroke-linecap="round" stroke-linejoin="round" id="svg_80"/>
   <polygon points="22.8900146484375,356.4800109863281 55.529998779296875,349.3299865722656 47.899993896484375,344.79998779296875 16.92999267578125,351.7099914550781 22.8900146484375,356.4800109863281 " fill="#fff" stroke="#263238" stroke-linecap="round" stroke-linejoin="round" id="svg_81"/>
   <polygon points="8.3599853515625,325.510009765625 22.8900146484375,356.4800109863281 16.92999267578125,351.7099914550781 2.160003662109375,322.6499938964844 8.3599853515625,325.510009765625 " fill="#263238" stroke="#263238" stroke-linecap="round" stroke-linejoin="round" id="svg_82"/>
   <path d="m34.61,343.31l-7.52,1.94l-4.66,6.75a1.86,1.86 0 0 0 1.42,0.52c0.78,-0.13 2.85,-1.95 2.85,-1.95l5.45,-1.43s-2.85,1.69 -2.85,2.08s0.52,0.52 1.81,0.39s4.41,-3 4.41,-3l2.08,-2.6l-2.99,-2.7z" fill="#fff" stroke="#263238" stroke-linecap="round" stroke-linejoin="round" id="svg_83"/>
   <polygon points="54.92999267578125,309.5400085449219 51.079986572265625,327.1000061035156 34.6099853515625,343.30999755859375 38.5,346.94000244140625 52.17999267578125,340.7200012207031 53.1300048828125,338.25 56.42999267578125,323.5400085449219 54.92999267578125,309.5400085449219 " fill="#fff" stroke="#263238" stroke-linecap="round" stroke-linejoin="round" id="svg_84"/>
   <path d="m30.05,339.77s-5.25,0.78 -7.19,0.78s-6.61,0.39 -7.39,0.78s-4.48,2.72 -4.28,4.47s3.5,0.2 3.5,0.2a24.77,24.77 0 0 0 2.53,4.47c1.55,2.14 2.33,1.36 5.44,0.2s7.78,-4.67 7.78,-4.67l2.73,-2.53l-3.12,-3.7z" fill="#fff" stroke="#263238" stroke-linecap="round" stroke-linejoin="round" id="svg_85"/>
   <path d="m75.72,285.09s-8,-1.17 -10.89,2.72a37.49,37.49 0 0 0 -6.42,15.76c-0.59,5.05 -4.28,15.17 -4.28,15.17l-24.73,20.59l4.28,6.41s30,-14 30.76,-14.94s10.69,-26.65 10.69,-26.65" fill="#fff" stroke="#263238" stroke-linecap="round" stroke-linejoin="round" id="svg_86"/>
  </g>
  <g id="freepik--Floor--inject-2" transform="matrix(1 0 0 1 274.1 1.64754)">
   <line x1="-247.5" y1="447.14" x2="212.61" y2="447.14" fill="none" stroke="#263238" stroke-linecap="round" stroke-linejoin="round" id="svg_87"/>
  </g>
  <path stroke="null" d="m264.874,116.04349m-116.726,0a116.726,105.18151 0 1 0 233.45199,0a116.726,105.18151 0 1 0 -233.45199,0zm116.726,0m-105.05205,0a105.05205,94.66211 0 0 1 210.10411,0a105.05205,94.66211 0 0 1 -210.10411,0z" fill=" rgb(217, 93, 96)" stroke-miterlimit="10" id="svg_88"/>
  <rect x="215.19272" y="-160.91871" width="227.85" height="12.131" transform="matrix(0.770915 -0.566489 0.552613 0.790273 93.0066 421.414)" fill=" rgb(217, 93, 96)" stroke-miterlimit="10" id="svg_89"/>
 </g>

</svg>