<?xml version="1.0" encoding="utf-8"?>
<!-- Generator: Adobe Illustrator 22.0.1, SVG Export Plug-In . SVG Version: 6.00 Build 0)  -->
<svg version="1.1" id="Layer_1" xmlns="http://www.w3.org/2000/svg" xmlns:xlink="http://www.w3.org/1999/xlink" x="0px" y="0px"
	 viewBox="0 0 100 100" style="enable-background:new 0 0 100 100;" xml:space="preserve">
<style type="text/css">
	.st0{fill:#28A2DB;}
</style>
<g>
	<g>
		<path class="st0" d="M53.7,72.2c0-0.2,0-0.5,0-0.7c0-8.3-0.1-16.6,0-25c0.1-6.7,2.9-12.2,8.2-16.4c2-1.6,4.4-2.4,7-2.4
			c2.1,0,4.2,0,6.3,0c0.2,0,0.4,0,0.7,0c-0.1,0.3-0.2,0.5-0.3,0.6c-1,2-2,4-3,5.9c-0.2,0.5-0.5,0.8-1.1,0.9
			c-2.5,0.4-4.2,1.9-5.3,4.1c-1.1,2.1-1.4,4.4-1.4,6.9c4.9,0,9.8,0,14.8,0c0,8.7,0,17.2,0,25.9C71,72.2,62.4,72.2,53.7,72.2z"/>
		<path class="st0" d="M31.6,46.3c4.9,0,9.8,0,14.7,0c0,8.6,0,17.2,0,25.9c-8.6,0-17.2,0-25.8,0c0-0.2,0-0.4,0-0.6
			c0-8.3-0.1-16.6,0-25c0.1-6.7,2.9-12.3,8.2-16.4c2.1-1.6,4.4-2.3,7.1-2.3c2,0,4.1,0,6.1,0c0.2,0,0.4,0,0.7,0
			c-0.1,0.3-0.2,0.4-0.3,0.6c-1,2-2,4.1-3,6.1c-0.2,0.4-0.4,0.6-1,0.7c-2.7,0.5-4.5,2.2-5.6,4.6C31.8,41.9,31.5,44,31.6,46.3z"/>
	</g>
</g>
</svg>
