<?xml version="1.0" encoding="utf-8"?>
<!-- Generator: Adobe Illustrator 22.0.1, SVG Export Plug-In . SVG Version: 6.00 Build 0)  -->
<svg version="1.1" id="Layer_1" xmlns="http://www.w3.org/2000/svg" xmlns:xlink="http://www.w3.org/1999/xlink" x="0px" y="0px"
	 viewBox="0 0 100 100" style="enable-background:new 0 0 100 100;" xml:space="preserve">
<style type="text/css">
	.st0{fill:#28A2DB;}
</style>
<g>
	<g>
		<path class="st0" d="M46.4,27.7c0,0.2,0,0.5,0,0.7c0,8.3,0.1,16.6,0,25c-0.1,6.7-2.9,12.2-8.2,16.4c-2,1.6-4.4,2.4-7,2.4
			c-2.1,0-4.2,0-6.3,0c-0.2,0-0.4,0-0.7,0c0.1-0.3,0.2-0.5,0.3-0.6c1-2,2-4,3-5.9c0.2-0.5,0.5-0.8,1.1-0.9c2.5-0.4,4.2-1.9,5.3-4.1
			c1.1-2.1,1.4-4.4,1.4-6.9c-4.9,0-9.8,0-14.8,0c0-8.7,0-17.2,0-25.9C29.1,27.7,37.7,27.7,46.4,27.7z"/>
		<path class="st0" d="M68.5,53.6c-4.9,0-9.8,0-14.7,0c0-8.6,0-17.2,0-25.9c8.6,0,17.2,0,25.8,0c0,0.2,0,0.4,0,0.6
			c0,8.3,0.1,16.6,0,25c-0.1,6.7-2.9,12.3-8.2,16.4C69.3,71.3,67,72,64.3,72c-2,0-4.1,0-6.1,0c-0.2,0-0.4,0-0.7,0
			c0.1-0.3,0.2-0.4,0.3-0.6c1-2,2-4.1,3-6.1c0.2-0.4,0.4-0.6,1-0.7c2.7-0.5,4.5-2.2,5.6-4.6C68.3,58,68.6,55.9,68.5,53.6z"/>
	</g>
</g>
</svg>
