<svg width="175" height="175" xmlns="http://www.w3.org/2000/svg" xml:space="preserve" enable-background="new 0 0 195 177" version="1.1">
 <g id="Layer_1">
  <title>Layer 1</title>
  <g id="svg_208">
   <ellipse ry="4.74988" rx="4.74988" id="svg_181" cy="34.74671" cx="35.25157" stroke="null" fill="#323258"/>
   <g id="svg_190">
    <ellipse ry="4.74988" rx="4.74988" id="svg_178" cy="9.74732" cx="10.25218" stroke="null" fill="#323258"/>
    <ellipse ry="4.74988" rx="4.74988" id="svg_179" cy="34.74671" cx="10.25218" stroke="null" fill="#323258"/>
   </g>
   <ellipse ry="4.74988" rx="4.74988" id="svg_187" cy="9.74732" cx="34.75218" stroke="null" fill="#323258"/>
  </g>
  <g id="svg_214">
   <ellipse ry="4.74988" rx="4.74988" id="svg_209" cy="34.74671" cx="88.75157" stroke="null" fill="#323258"/>
   <g id="svg_212">
    <ellipse ry="4.74988" rx="4.74988" id="svg_210" cy="9.74732" cx="63.75218" stroke="null" fill="#323258"/>
    <ellipse ry="4.74988" rx="4.74988" id="svg_211" cy="34.74671" cx="63.75218" stroke="null" fill="#323258"/>
   </g>
   <ellipse ry="4.74988" rx="4.74988" id="svg_213" cy="9.74732" cx="88.25218" stroke="null" fill="#323258"/>
  </g>
  <g id="svg_220">
   <ellipse ry="4.74988" rx="4.74988" id="svg_215" cy="34.74671" cx="141.75157" stroke="null" fill="#323258"/>
   <g id="svg_218">
    <ellipse ry="4.74988" rx="4.74988" id="svg_216" cy="9.74732" cx="116.75218" stroke="null" fill="#323258"/>
    <ellipse ry="4.74988" rx="4.74988" id="svg_217" cy="34.74671" cx="116.75218" stroke="null" fill="#323258"/>
   </g>
   <ellipse ry="4.74988" rx="4.74988" id="svg_219" cy="9.74732" cx="141.25218" stroke="null" fill="#323258"/>
  </g>
  <g id="svg_226">
   <ellipse ry="4.74988" rx="4.74988" id="svg_221" cy="34.74671" cx="191.25157" stroke="null" fill="#323258"/>
   <g id="svg_224">
    <ellipse ry="4.74988" rx="4.74988" id="svg_222" cy="9.74732" cx="166.25218" stroke="null" fill="#323258"/>
    <ellipse ry="4.74988" rx="4.74988" id="svg_223" cy="34.74671" cx="166.25218" stroke="null" fill="#323258"/>
   </g>
   <ellipse ry="4.74988" rx="4.74988" id="svg_225" cy="9.74732" cx="190.75218" stroke="null" fill="#323258"/>
  </g>
  <g id="svg_232">
   <ellipse ry="4.74988" rx="4.74988" id="svg_227" cy="86.24671" cx="35.25157" stroke="null" fill="#323258"/>
   <g id="svg_230">
    <ellipse ry="4.74988" rx="4.74988" id="svg_228" cy="61.24732" cx="10.25218" stroke="null" fill="#323258"/>
    <ellipse ry="4.74988" rx="4.74988" id="svg_229" cy="86.24671" cx="10.25218" stroke="null" fill="#323258"/>
   </g>
   <ellipse ry="4.74988" rx="4.74988" id="svg_231" cy="61.24732" cx="34.75218" stroke="null" fill="#323258"/>
  </g>
  <g id="svg_238">
   <ellipse ry="4.74988" rx="4.74988" id="svg_233" cy="86.24671" cx="88.75157" stroke="null" fill="#323258"/>
   <g id="svg_236">
    <ellipse ry="4.74988" rx="4.74988" id="svg_234" cy="61.24732" cx="63.75218" stroke="null" fill="#323258"/>
    <ellipse ry="4.74988" rx="4.74988" id="svg_235" cy="86.24671" cx="63.75218" stroke="null" fill="#323258"/>
   </g>
   <ellipse ry="4.74988" rx="4.74988" id="svg_237" cy="61.24732" cx="88.25218" stroke="null" fill="#323258"/>
  </g>
  <g id="svg_244">
   <ellipse ry="4.74988" rx="4.74988" id="svg_239" cy="86.24671" cx="141.75157" stroke="null" fill="#323258"/>
   <g id="svg_242">
    <ellipse ry="4.74988" rx="4.74988" id="svg_240" cy="61.24732" cx="116.75218" stroke="null" fill="#323258"/>
    <ellipse ry="4.74988" rx="4.74988" id="svg_241" cy="86.24671" cx="116.75218" stroke="null" fill="#323258"/>
   </g>
   <ellipse ry="4.74988" rx="4.74988" id="svg_243" cy="61.24732" cx="141.25218" stroke="null" fill="#323258"/>
  </g>
  <g id="svg_250">
   <ellipse ry="4.74988" rx="4.74988" id="svg_245" cy="86.24671" cx="191.25157" stroke="null" fill="#323258"/>
   <g id="svg_248">
    <ellipse ry="4.74988" rx="4.74988" id="svg_246" cy="61.24732" cx="166.25218" stroke="null" fill="#323258"/>
    <ellipse ry="4.74988" rx="4.74988" id="svg_247" cy="86.24671" cx="166.25218" stroke="null" fill="#323258"/>
   </g>
   <ellipse ry="4.74988" rx="4.74988" id="svg_249" cy="61.24732" cx="190.75218" stroke="null" fill="#323258"/>
  </g>
  <g id="svg_256">
   <ellipse ry="4.74988" rx="4.74988" id="svg_251" cy="136.74671" cx="35.25157" stroke="null" fill="#323258"/>
   <g id="svg_254">
    <ellipse ry="4.74988" rx="4.74988" id="svg_252" cy="111.74732" cx="10.25218" stroke="null" fill="#323258"/>
    <ellipse ry="4.74988" rx="4.74988" id="svg_253" cy="136.74671" cx="10.25218" stroke="null" fill="#323258"/>
   </g>
   <ellipse ry="4.74988" rx="4.74988" id="svg_255" cy="111.74732" cx="34.75218" stroke="null" fill="#323258"/>
  </g>
  <g id="svg_262">
   <ellipse ry="4.74988" rx="4.74988" id="svg_257" cy="136.74671" cx="88.75157" stroke="null" fill="#323258"/>
   <g id="svg_260">
    <ellipse ry="4.74988" rx="4.74988" id="svg_258" cy="111.74732" cx="63.75218" stroke="null" fill="#323258"/>
    <ellipse ry="4.74988" rx="4.74988" id="svg_259" cy="136.74671" cx="63.75218" stroke="null" fill="#323258"/>
   </g>
   <ellipse ry="4.74988" rx="4.74988" id="svg_261" cy="111.74732" cx="88.25218" stroke="null" fill="#323258"/>
  </g>
  <g id="svg_268">
   <ellipse ry="4.74988" rx="4.74988" id="svg_263" cy="136.74671" cx="141.75157" stroke="null" fill="#323258"/>
   <g id="svg_266">
    <ellipse ry="4.74988" rx="4.74988" id="svg_264" cy="111.74732" cx="116.75218" stroke="null" fill="#323258"/>
    <ellipse ry="4.74988" rx="4.74988" id="svg_265" cy="136.74671" cx="116.75218" stroke="null" fill="#323258"/>
   </g>
   <ellipse ry="4.74988" rx="4.74988" id="svg_267" cy="111.74732" cx="141.25218" stroke="null" fill="#323258"/>
  </g>
  <g id="svg_274">
   <ellipse ry="4.74988" rx="4.74988" id="svg_269" cy="136.74671" cx="191.25157" stroke="null" fill="#323258"/>
   <g id="svg_272">
    <ellipse ry="4.74988" rx="4.74988" id="svg_270" cy="111.74732" cx="166.25218" stroke="null" fill="#323258"/>
    <ellipse ry="4.74988" rx="4.74988" id="svg_271" cy="136.74671" cx="166.25218" stroke="null" fill="#323258"/>
   </g>
   <ellipse ry="4.74988" rx="4.74988" id="svg_273" cy="111.74732" cx="190.75218" stroke="null" fill="#323258"/>
  </g>
  <ellipse ry="4.74988" rx="4.74988" id="svg_276" cy="163.24732" cx="10.25218" stroke="null" fill="#323258"/>
  <ellipse ry="4.74988" rx="4.74988" id="svg_279" cy="163.24732" cx="34.75218" stroke="null" fill="#323258"/>
  <ellipse ry="4.74988" rx="4.74988" id="svg_282" cy="163.24732" cx="63.75218" stroke="null" fill="#323258"/>
  <ellipse ry="4.74988" rx="4.74988" id="svg_285" cy="163.24732" cx="88.25218" stroke="null" fill="#323258"/>
  <ellipse ry="4.74988" rx="4.74988" id="svg_288" cy="163.24732" cx="116.75218" stroke="null" fill="#323258"/>
  <ellipse ry="4.74988" rx="4.74988" id="svg_291" cy="163.24732" cx="141.25218" stroke="null" fill="#323258"/>
  <ellipse ry="4.74988" rx="4.74988" id="svg_294" cy="163.24732" cx="166.25218" stroke="null" fill="#323258"/>
  <ellipse ry="4.74988" rx="4.74988" id="svg_297" cy="163.24732" cx="200.75218" stroke="null" fill="#323258"/>
 </g>

</svg>