<svg width="989.31079" height="623.83577" xmlns="http://www.w3.org/2000/svg" data-name="Layer 1">

 <g>
  <title>Layer 1</title>
  <path id="svg_1" fill="#bab8b8" d="m587.03487,19.13827c71.22,-38.107 161.61234,-18.12946 209.53632,49.43939l-1.63132,1.15738c-47.3321,-66.73477 -136.61915,-86.46077 -206.96283,-48.83259a161.36236,161.36236 0 0 0 -17.27247,10.69161c-72.33748,51.30639 -89.4476,151.89739 -38.14118,224.23483l-1.63132,1.15739c-51.94418,-73.2367 -34.62179,-175.07982 38.61514,-227.02357a163.74263,163.74263 0 0 1 17.48766,-10.82444z"/>
  <path id="svg_2" fill="#bab8b8" d="m964.33002,182.02149l-234.24996,-18.2236a13.77366,13.77366 0 0 1 -12.64949,-14.78375l10.15509,-113.81345a13.77366,13.77366 0 0 1 14.78367,-12.64957l234.25,18.22364a13.77368,13.77368 0 0 1 12.64956,14.78376l-10.15511,113.81337a13.77368,13.77368 0 0 1 -14.78376,12.6496z"/>
  <path id="svg_3" fill="#fff" d="m908.99721,156.30933q-2.66748,0 -5.35352,-0.2085l-151.38769,-11.77734a23.11885,23.11885 0 0 1 -21.25684,-24.84278l3.45215,-44.375a23.14622,23.14622 0 0 1 24.84375,-21.25782l195.76221,15.22949a23.147,23.147 0 0 1 21.25732,24.84327a67.63906,67.63906 0 0 1 -67.31738,62.38867l0,0.00001z"/>
  <path id="svg_4" fill="#bab8b8" d="m950.37339,104.35414l-191.90647,-14.9295a3.05369,3.05369 0 1 1 0.47369,-6.089l191.90648,14.9295a3.05369,3.05369 0 1 1 -0.4737,6.089z"/>
  <path id="svg_5" fill="#bab8b8" d="m870.68875,110.25813l-113.15779,-8.80319a3.05384,3.05384 0 0 1 0.47372,-6.08928l113.15779,8.80323a3.05384,3.05384 0 1 1 -0.47372,6.08928l0,-0.00004z"/>
  <path id="svg_6" fill="#bab8b8" d="m895.6158,124.30047l-139.02075,-10.81522a3.05384,3.05384 0 1 1 0.47372,-6.08928l139.02075,10.81522a3.05384,3.05384 0 0 1 -0.47372,6.08928z"/>
  <path id="svg_7" fill="#bab8b8" d="m948.65495,336.52162l-234.25,-18.22364a13.77365,13.77365 0 0 1 -12.64948,-14.78375l10.15508,-113.81345a13.77365,13.77365 0 0 1 14.78368,-12.64956l234.25,18.22364a13.77367,13.77367 0 0 1 12.64955,14.78375l-10.15508,113.81345a13.77367,13.77367 0 0 1 -14.78375,12.64956z"/>
  <path id="svg_8" fill="#fff" d="m893.26186,310.80689q-2.62939,0 -5.293,-0.20606l-151.38767,-11.77734a23.11892,23.11892 0 0 1 -21.25732,-24.84278l3.45215,-44.37451a23.12057,23.12057 0 0 1 24.84423,-21.25781l195.76172,15.2295a23.11975,23.11975 0 0 1 21.25733,24.84326a67.72193,67.72193 0 0 1 -67.37744,62.38574z"/>
  <path id="svg_9" fill="#bab8b8" d="m934.69826,258.85427l-191.90647,-14.9295a3.05369,3.05369 0 1 1 0.4737,-6.089l191.90647,14.9295a3.05369,3.05369 0 1 1 -0.4737,6.089z"/>
  <path id="svg_10" fill="#bab8b8" d="m855.01368,264.75827l-113.15779,-8.80319a3.05384,3.05384 0 1 1 0.47372,-6.08928l113.15778,8.80319a3.05384,3.05384 0 0 1 -0.47372,6.08928l0.00001,0z"/>
  <path id="svg_11" fill="#bab8b8" d="m879.94073,278.80061l-139.02075,-10.81522a3.05384,3.05384 0 0 1 0.47372,-6.08929l139.02075,10.81522a3.05384,3.05384 0 0 1 -0.47372,6.08929z"/>
  <path id="svg_12" fill="#bab8b8" d="m352.79039,277.0571a56.086,56.086 0 1 1 102.62468,-45.28514l-1.83021,0.80783a54.08546,54.08546 0 1 0 -98.96426,43.66948l-1.83021,0.80783z"/>
  <path id="svg_13" fill="#f2f2f2" d="m934.14609,589.83852c22.9003,-10.85156 39.95754,-32.68422 37.29669,-56.6777c-20.5446,16.636 -48.51539,25.92583 -77.39066,25.70351c-11.24655,-0.08653 -23.84207,-1.23067 -32.01476,5.08006c-5.08533,3.92661 -7.3792,10.16173 -7.66908,16.37586c-0.28975,6.21447 1.21678,12.50388 2.71475,18.71122l-0.45553,1.47087c26.88789,1.71173 54.61828,0.18775 77.51859,-10.66382z"/>
  <path id="svg_14" fill="#fff" d="m970.87892,533.1013c-8.857,17.2822 -24.21281,31.68626 -43.29674,40.11746a45.81232,45.81232 0 0 1 -13.20587,3.88a29.85552,29.85552 0 0 1 -13.73648,-1.79559c-4.14755,-1.48827 -8.236,-3.42649 -12.63471,-4.01593a16.17055,16.17055 0 0 0 -12.21916,3.29446c-4.06455,3.16085 -6.489,7.53482 -8.686,11.89824c-2.43933,4.84475 -4.88353,9.9179 -9.66006,13.21959c-0.57875,0.40006 0.22724,1.23208 0.80507,0.83268c8.31034,-5.74439 9.50957,-16.13182 16.113,-23.08921a15.53855,15.53855 0 0 1 12.49156,-5.22171c4.489,0.331 8.70663,2.3266 12.89446,3.86493a32.04047,32.04047 0 0 0 13.39912,2.19848a42.98153,42.98153 0 0 0 13.36683,-3.39871a92.24419,92.24419 0 0 0 25.29083,-15.73654a86.23782,86.23782 0 0 0 20.21213,-25.65829c0.30594,-0.597 -0.83018,-0.98291 -1.13412,-0.38984l0.00014,-0.00002z"/>
  <path id="svg_15" fill="#fff" d="m933.97496,570.78323a17.93179,17.93179 0 0 0 20.16055,5.12463c0.66651,-0.28043 0.12223,-1.25709 -0.54515,-0.97629a16.60083,16.60083 0 0 1 -18.74573,-4.80044c-0.46837,-0.56966 -1.33538,0.08571 -0.86967,0.65216l0,-0.00006z"/>
  <path id="svg_16" fill="#fff" d="m902.65395,576.29753a24.11262,24.11262 0 0 1 10.37026,-16.81256c0.577,-0.402 -0.22883,-1.23415 -0.80508,-0.83268a25.07152,25.07152 0 0 0 -10.7494,17.51756c-0.08193,0.66961 1.10276,0.79365 1.18424,0.12763l-0.00002,0.00005z"/>
  <path id="svg_17" fill="#fff" d="m958.75159,551.2283a8.15249,8.15249 0 0 1 -3.14325,-7.28685c0.09151,-0.66765 -1.09333,-0.791 -1.18424,-0.12762a9.12727,9.12727 0 0 0 3.45783,8.06664a0.67753,0.67753 0 0 0 0.83738,0.09028a0.48571,0.48571 0 0 0 0.03228,-0.74239l0,-0.00006z"/>
  <path id="svg_18" fill="#f2f2f2" d="m895.88759,482.43075c-0.07061,0.41446 -0.14123,0.82893 -0.22074,1.24687a90.55831,90.55831 0 0 1 -4.47182,16.28874c-0.14668,0.4106 -0.30248,0.82425 -0.46248,1.22926a98.17129,98.17129 0 0 1 -22.51731,33.98768a103.18621,103.18621 0 0 1 -12.87774,10.77059c-6.38133,4.51567 -13.74629,8.92742 -17.78464,15.01126a16.1598,16.1598 0 0 0 -1.14751,1.96529l18.194,36.81186c0.08684,0.0686 0.16484,0.14051 0.25186,0.20949l0.6536,1.494c0.25292,-0.15279 0.51109,-0.31635 0.764,-0.46915c0.14717,-0.088 0.29032,-0.18426 0.43749,-0.27232c0.09683,-0.06131 0.1935,-0.123 0.28531,-0.17307c0.03232,-0.02027 0.06444,-0.041 0.08773,-0.05827c0.09173,-0.05006 0.17024,-0.10572 0.25292,-0.15279q2.16942,-1.36595 4.3223,-2.76552c0.00911,-0.00305 0.00911,-0.00305 0.01416,-0.01425c10.91315,-7.13595 21.17708,-15.1996 29.60986,-24.50316c0.2536,-0.28 0.51653,-0.56259 0.7618,-0.85943a91.84625,91.84625 0 0 0 10.02887,-13.49087a78.98494,78.98494 0 0 0 4.26212,-8.07457a65.1906,65.1906 0 0 0 5.67234,-22.69122c1.02761,-15.71224 -3.63329,-31.95906 -15.22091,-44.53654c-0.29667,-0.3215 -0.58941,-0.6353 -0.89521,-0.95388z"/>
  <path id="svg_19" fill="#fff" d="m895.42227,482.68171c5.06783,19.43377 3.32168,39.9302 -5.25889,57.37036a36.00411,36.00411 0 0 1 -7.26062,10.41074a24.3021,24.3021 0 0 1 -11.4999,5.88283c-4.11271,0.97374 -8.4857,1.534 -12.178,3.40551a12.838,12.838 0 0 0 -6.91826,9.38211c-0.9034,4.8723 0.24234,9.88941 1.55126,14.775c1.45329,5.42445 3.05755,11.04523 1.71645,16.42093c-0.16249,0.65134 1.00417,0.92258 1.16643,0.27221c2.33328,-9.35281 -3.80049,-18.80987 -3.56624,-28.27134c0.10931,-4.4149 1.71789,-8.71712 5.81755,-11.16368c3.58494,-2.13945 8.09355,-2.72068 12.27028,-3.67364a26.33537,26.33537 0 0 0 11.52,-5.35928a33.61457,33.61457 0 0 0 7.707,-10.08933a78.61676,78.61676 0 0 0 8.2824,-26.98289a86.81522,86.81522 0 0 0 -2.23638,-32.66037c-0.17505,-0.67129 -1.28687,-0.38614 -1.113,0.28081l-0.00008,0.00003z"/>
  <path id="svg_20" fill="#fff" d="m893.30084,534.53967c7.48464,2.3447 15.42479,-0.46045 18.56307,-6.52266c0.30917,-0.59721 -0.75944,-1.13218 -1.069,-0.53415c-2.94,5.67916 -10.28788,8.2266 -17.2844,6.03476c-0.73629,-0.23064 -0.94174,0.79267 -0.20965,1.022l-0.00002,0.00005z"/>
  <path id="svg_21" fill="#fff" d="m873.58392,556.10322a25.60135,25.60135 0 0 1 -3.6169,-19.85134c0.15986,-0.652 -1.00678,-0.92345 -1.16642,-0.27221a26.64736,26.64736 0 0 0 3.81029,20.65373c0.39196,0.61216 1.36287,0.07866 0.97303,-0.53018z"/>
  <path id="svg_22" fill="#fff" d="m898.61346,504.59525a10.05858,10.05858 0 0 1 -7.28609,-4.486c-0.38345,-0.61569 -1.354,-0.08142 -0.973,0.53019a11.271,11.271 0 0 0 8.04948,4.97786c0.32212,0.03871 0.62271,-0.07474 0.688,-0.37494a0.58607,0.58607 0 0 0 -0.47838,-0.64711l-0.00001,0z"/>
  <path id="svg_23" fill="#ffb8b8" d="m934.51091,328.46606l-13.9186,-74.09639l-27.32424,-35.96478l-20.24955,13.239c2.86135,15.51933 24.50545,44.49126 24.50545,44.49126l19.18428,57.30437c-0.07659,0.29793 -0.14758,0.59857 -0.19927,0.90759a10.68681,10.68681 0 1 0 18.00193,-5.881l0,-0.00005z"/>
  <path id="svg_24" fill="#3f3d56" d="m873.56239,239.47263l22.9251,-18.60728l0.04354,-0.09837c4.288,-9.71624 -5.23206,-26.37676 -13.9737,-38.64189a19.59609,19.59609 0 0 0 -26.22333,-5.29961l0,0a19.63933,19.63933 0 0 0 -9.13107,18.613l1.92816,18.562l24.4313,25.47215z"/>
  <polygon id="svg_25" fill="#ffb8b8" points="792.539 608.221 777.285 608.22 770.029 549.384 792.542 549.385 792.539 608.221"/>
  <path id="svg_26" fill="#2f2e41" d="m796.4302,603.24047l-4.29344,-0.00016l-16.76237,-6.81684l-8.98411,6.8158l-0.00122,0a19.14478,19.14478 0 0 0 -19.14379,19.14351l0,0.62211l49.184,0.00185l0.00093,-19.76627z"/>
  <polygon id="svg_27" fill="#ffb8b8" points="860.222 608.221 844.968 608.22 837.712 549.384 860.225 549.385 860.222 608.221"/>
  <path id="svg_28" fill="#2f2e41" d="m864.11339,603.24047l-4.29344,-0.00016l-16.76237,-6.81684l-8.98411,6.8158l-0.00123,0a19.14478,19.14478 0 0 0 -19.14385,19.14351l0,0.62211l49.184,0.00185l0.001,-19.76627z"/>
  <path id="svg_29" fill="#2f2e41" d="m883.4811,354.79536s1.78114,21.37363 -2.6717,41.85669s-4.45284,78.17012 -4.45284,78.17012l-9.79624,112.4114l-29.38874,-2.6717l-8.01511,-187.9098l-28.49817,63.23031l2.67171,8.90568l-3.55877,2.22642s2.6682,17.36607 0.88706,17.36607s-6.234,2.6717 -6.234,2.6717l3.56227,91.72848l-30.2793,-0.89057l-10.68679,-129.13227l11.57738,-73.91712l0.89057,-14.24909l4.00756,0.16476l2.0406,-5.95345l3.74809,-10.24153l104.19642,6.2339z"/>
  <path id="svg_30" fill="#3f3d56" d="m885.02044,359.28473l0.15872,-0.22264c8.47691,-11.86786 -4.27238,-40.386 -6.19528,-44.52013l8.099,-2.62822l-1.82375,-15.50275l-0.864,-6.91146l6.19005,-6.19006l0.01739,-0.15437l3.56227,-31.16987l5.17945,-20.70271a45.45157,45.45157 0 0 0 -12.90063,-44.04788l-11.97222,-11.28821l-14.55,-21.52881l-23.4635,0l-8.04511,15.19618a34.19883,34.19883 0 0 0 -26.46044,34.91649l1.82332,39.85508l-7.138,49.62306l-0.00435,8.98047l-8.03291,8.92742l1.75417,8.77044l-6.11352,2.62l-2.69953,12.59666c-1.11712,1.47414 -8.49083,11.306 -8.49083,13.99383c0,0.40354 0.29787,0.7936 0.93709,1.22633c5.0251,3.40268 32.79968,10.3398 45.09239,5.42081c13.09413,-5.23557 65.14537,2.61865 65.6698,2.69866l0.27042,0.04168z"/>
  <path id="svg_31" fill="#ccc" d="m680.97925,622.64577a1.18647,1.18647 0 0 0 1.18292,1.19l280.29715,0a1.19,1.19 0 0 0 0,-2.38l-280.29,0a1.18651,1.18651 0 0 0 -1.19006,1.18292l-0.00001,0.00708z"/>
  <circle id="svg_32" fill="#ffb8b8" r="31.07446" cy="116.39341" cx="845.15873"/>
  <path id="svg_33" fill="#2f2e41" d="m842.18184,147.97098a84.51553,84.51553 0 0 0 14.346,-1.37542c4.68679,-1.07973 15.02744,-9.07571 17.84571,-13.79946l0,0c2.09379,-3.50965 3.3505,-8.9383 4.03626,-12.87409a37.77917,37.77917 0 0 0 -7.37934,-29.8114a11.93566,11.93566 0 0 0 -4.92552,-3.98885c-0.17437,-0.06306 -0.35356,-0.11828 -0.53442,-0.16481a14.72657,14.72657 0 0 1 -7.44025,-4.34241a12.14424,12.14424 0 0 0 -1.24975,-1.22149a18.13939,18.13939 0 0 0 -7.66375,-3.60358c-4.52853,-1.08756 -11.00643,0.27527 -19.25331,4.05408c-4.14323,1.89855 -8.74174,1.3689 -12.28618,0.69532a1.15375,1.15375 0 0 0 -1.07625,0.40006a8.14428,8.14428 0 0 1 -5.47647,2.34861c-1.25845,0.08784 -2.53516,1.86637 -4.07409,4.18237c-0.34918,0.52573 -0.75663,1.1393 -1.05233,1.5137l-0.05914,-0.70315l-0.69227,0.804a9.88285,9.88285 0 0 0 4.87594,15.98064a19.27275,19.27275 0 0 0 3.891,0.51747c0.7949,0.05088 1.6172,0.10351 2.40688,0.21961a14.9001,14.9001 0 0 1 11.31824,9.3801a3.89666,3.89666 0 0 0 5.92827,1.73939a6.4381,6.4381 0 0 1 5.837,-1.21931a4.27377,4.27377 0 0 1 1.94377,2.09335a5.56976,5.56976 0 0 0 2.17641,2.41036c3.23527,1.5637 3.64359,8.85047 2.6539,14.95919c-0.95405,5.88827 -3.02958,10.1837 -5.04727,10.44547c-1.55328,0.20134 -1.72852,0.31657 -1.83419,0.5949l-0.09439,0.24917l0.1809,0.22612a6.36358,6.36358 0 0 0 2.69864,0.29006z"/>
  <circle stroke="null" id="svg_34" fill="#6c63ff" r="61.78912" cy="246.35355" cx="500.67443"/>
  <path id="svg_35" fill="#ffb8b8" d="m835.02439,237.15835l-20.3817,-13.03455c-12.97884,8.9771 -30.519,40.60269 -30.519,40.60269l-44.39206,41.01177a10.6812,10.6812 0 1 0 11.83816,14.19473l61.86788,-43.0998l21.58672,-39.67484z"/>
  <path id="svg_36" fill="#3f3d56" d="m833.08139,242.44726l13.57464,-32.57965l-4.90987,-18.00443a19.64141,19.64141 0 0 0 -15.241,-14.05514l0,0a19.59507,19.59507 0 0 0 -22.536,14.4183c-3.718,14.59609 -6.57316,33.57109 0.93622,41.08048l0.0761,0.07609l28.09991,9.06435z"/>
  <path id="svg_37" fill="#f2f2f2" d="m42.55791,604.98443c-26.572,-13.63868 -45.85058,-39.99525 -41.82,-68.16091c23.58089,20.36491 56.18438,32.35326 90.20862,33.1697c13.252,0.318 28.13265,-0.5594 37.52464,7.18008c5.844,4.81557 8.31341,12.2464 8.42284,19.57765c0.10923,7.33162 -1.90037,14.68452 -3.89684,21.941l0.48169,1.74977c-31.73862,1.01232 -64.34895,-1.81862 -90.92095,-15.45729z"/>
  <path id="svg_38" fill="#fff" d="m1.40439,536.77443c9.78835,20.6897 27.34009,38.23161 49.50665,48.87653a53.99407,53.99407 0 0 0 15.412,5.06391a35.18759,35.18759 0 0 0 16.24905,-1.60229c4.94152,-1.59835 9.83016,-3.72892 15.03406,-4.259a19.05908,19.05908 0 0 1 14.27151,4.33727c4.67007,3.87534 7.36282,9.11855 9.788,14.34087c2.69268,5.79838 5.38257,11.866 10.88616,15.93388c0.66683,0.49288 -0.31371,1.443 -0.97953,0.95083c-9.5753,-7.07745 -10.6001,-19.35889 -18.11941,-27.80158c-3.50865,-3.93951 -8.45889,-6.872 -14.52043,-6.61784c-5.30055,0.22228 -10.34356,2.41565 -15.3344,4.07146a37.76415,37.76415 0 0 1 -15.86666,2.08942a50.65818,50.65818 0 0 1 -15.61961,-4.50294a108.72177,108.72177 0 0 1 -29.20568,-19.4826a101.64173,101.64173 0 0 1 -22.85228,-30.981c-0.33812,-0.71469 1.01467,-1.1269 1.35059,-0.41687l-0.00002,-0.00005z"/>
  <path id="svg_39" fill="#fff" d="m43.47114,582.54308c-5.82511,6.64383 -16.07736,8.89023 -23.94112,5.284c-0.77469,-0.35527 -0.09706,-1.48547 0.67867,-1.12973a19.56607,19.56607 0 0 0 22.26231,-4.955c0.573,-0.65358 1.5699,0.15088 1.00014,0.80073z"/>
  <path id="svg_40" fill="#fff" d="m80.16229,590.20882a28.41953,28.41953 0 0 0 -11.58861,-20.193c-0.66466,-0.4951 0.31567,-1.44533 0.97953,-0.95082a29.54992,29.54992 0 0 1 12.00892,21.03765c0.07151,0.79191 -1.32872,0.89375 -1.39984,0.10614l0,0.00003z"/>
  <path id="svg_41" fill="#fff" d="m15.0138,558.58149a9.60878,9.60878 0 0 0 3.975,-8.46678c-0.08288,-0.79 1.3175,-0.89095 1.39984,-0.10614a10.75763,10.75763 0 0 1 -4.37468,9.37364a0.79853,0.79853 0 0 1 -0.98984,0.075a0.57237,0.57237 0 0 1 -0.0103,-0.87577l-0.00002,0.00005z"/>
  <path id="svg_42" fill="#f2f2f2" d="m91.63879,479.8836c0.0677,0.49089 0.13541,0.98179 0.21347,1.47707a106.73249,106.73249 0 0 0 4.65963,19.35562c0.15747,0.4892 0.32555,0.98231 0.4989,1.4654a115.70661,115.70661 0 0 0 25.2568,40.87947a121.61573,121.61573 0 0 0 14.76811,13.169c7.34877,5.55789 15.86012,11.03012 20.3902,18.34791a19.04593,19.04593 0 0 1 1.27841,2.35806l-22.80781,42.686c-0.10486,0.07751 -0.19942,0.15938 -0.30453,0.23736l-0.82577,1.73554c-0.29224,-0.18942 -0.59026,-0.39177 -0.8825,-0.58118c-0.17009,-0.10921 -0.3351,-0.22794 -0.50519,-0.33715c-0.11178,-0.07582 -0.22338,-0.15214 -0.32962,-0.21454c-0.03733,-0.02511 -0.0744,-0.05069 -0.10117,-0.07192c-0.10625,-0.0624 -0.19661,-0.13091 -0.29224,-0.18941q-2.50464,-1.69013 -4.98851,-3.41929c-0.01062,-0.0039 -0.01062,-0.0039 -0.01615,-0.01732c-12.58953,-8.8139 -24.3796,-18.69649 -33.96623,-29.97124c-0.28829,-0.33931 -0.58745,-0.68205 -0.86533,-1.04086a108.25169,108.25169 0 0 1 -11.31049,-16.26717a93.092,93.092 0 0 1 -4.71936,-9.67129a76.8352,76.8352 0 0 1 -5.83478,-26.94279c-0.62378,-18.54784 5.47365,-37.51305 19.59394,-51.89693c0.3615,-0.36775 0.7181,-0.72649 1.09022,-1.09034z"/>
  <path id="svg_43" fill="#fff" d="m92.17759,480.19658c-6.69582,22.70433 -5.40424,46.91492 4.05262,67.78041a42.4349,42.4349 0 0 0 8.16445,12.53534a28.64271,28.64271 0 0 0 13.32756,7.35961c4.80853,1.30069 9.93912,2.124 14.21891,4.46666a15.131,15.131 0 0 1 7.79955,11.31079c0.88226,5.7735 -0.65481,11.641 -2.3792,17.34743c-1.9146,6.33589 -4.01437,12.89744 -2.63528,19.28026c0.1671,0.77337 -1.21741,1.04929 -1.38425,0.27709c-2.39938,-11.105 5.17955,-22.01668 5.257,-33.17133c0.03611,-5.205 -1.69822,-10.33317 -6.43634,-13.36844c-4.14329,-2.65422 -9.43284,-3.50728 -14.3176,-4.78593a31.03922,31.03922 0 0 1 -13.3708,-6.74359a39.61775,39.61775 0 0 1 -8.70223,-12.17333a92.65975,92.65975 0 0 1 -8.74924,-32.096a102.3226,102.3226 0 0 1 3.85425,-38.39137c0.23129,-0.78428 1.53044,-0.4068 1.30065,0.37236l-0.00005,0.00004z"/>
  <path id="svg_44" fill="#fff" d="m92.74001,541.36606c-8.90469,2.48263 -18.15369,-1.1185 -21.62428,-8.37712c-0.3419,-0.71508 0.93694,-1.30536 1.2793,-0.58933c3.25134,6.80006 11.81221,10.07537 20.13617,7.75465c0.876,-0.24423 1.0798,0.969 0.20881,1.2118z"/>
  <path id="svg_45" fill="#fff" d="m115.16185,567.50489a30.17415,30.17415 0 0 0 5.00219,-23.25039c-0.16395,-0.77407 1.2205,-1.05023 1.38425,-0.27709a31.40706,31.40706 0 0 1 -5.26,24.18842c-0.4846,0.7065 -1.60844,0.04173 -1.12647,-0.66094l0.00003,0z"/>
  <path id="svg_46" fill="#fff" d="m87.59988,505.89223a11.85526,11.85526 0 0 0 8.75077,-5.01261c0.47471,-0.71094 1.59809,-0.04538 1.12647,0.66094a13.28423,13.28423 0 0 1 -9.66843,5.56346c-0.38092,0.03358 -0.73079,-0.11132 -0.79653,-0.46735a0.69078,0.69078 0 0 1 0.58772,-0.74444z"/>
  <polygon id="svg_47" fill="#ffb6b6" points="172.025 265.948 174.027 284.513 172.849 308.857 226.771 302.451 231.838 265.948 225.382 266.011 172.025 265.948"/>
  <polygon id="svg_48" fill="#ffb6b6" points="144.057 603.005 155.846 603.005 161.457 557.533 144.057 557.533 144.057 603.005"/>
  <path id="svg_49" fill="#2f2e41" d="m140.20964,594.93017l18.8344,-1.12416l0,8.06948l17.90635,12.3668a5.0405,5.0405 0 0 1 -2.86417,9.18836l-22.42303,0l-3.86495,-7.98195l-1.50908,7.98195l-8.45439,0l2.37487,-28.50048z"/>
  <polygon id="svg_50" fill="#ffb6b6" points="210.278 603.005 222.067 603.005 227.677 557.533 210.278 557.533 210.278 603.005"/>
  <path id="svg_51" fill="#2f2e41" d="m206.43039,594.93017l18.8344,-1.12416l0,8.06948l17.9064,12.3668a5.0405,5.0405 0 0 1 -2.86418,9.18836l-22.42311,0l-3.865,-7.98195l-1.50907,7.98195l-8.45434,0l2.3749,-28.50048z"/>
  <path id="svg_52" fill="#2f2e41" d="m138.97056,563.79174l0.12816,0l2.26726,-73.93578a19.33336,19.33336 0 0 1 0.25367,-18.26966l0.3246,-0.58759l-0.84164,-3.90138a24.85032,24.85032 0 0 1 1.42011,-14.956l2.11513,-68.96837c-7.55652,-48.97254 28.45558,-80.91057 28.45558,-80.91057l53.94661,0l11.58172,39.792c7.65652,74.595 6.26725,147.2855 -5.88257,217.71039l0.33123,0.1675c1.19267,0.41169 1.7042,2.06388 1.14285,3.6904s-1.98335,2.61136 -3.176,2.19966l-28.49,-0.99093c-1.19267,-0.4116 -1.70439,-2.06389 -1.14285,-3.69041c0.56135,-1.62652 1.98335,-2.61125 3.176,-2.19966l1.93714,0.9798l-4.13125,-71.34523l0.45847,-13.03165l-0.94452,-14.78416l-4.367,-66.499l-16.52971,81.77506l-16.88428,88.57845a3.10592,3.10592 0 0 1 -2.0944,5.4082l-23.05431,0a3.11556,3.11556 0 1 1 0,-6.23111l0,0.00004z"/>
  <circle id="svg_53" fill="#ffb6b6" r="28.93543" cy="142.01235" cx="181.44098"/>
  <path id="svg_54" fill="#2f2e41" d="m54.64739,275.69244a94.20838,94.20838 0 0 1 16.53187,-25.78973a63.66241,63.66241 0 0 0 -9.66723,30.87a48.78044,48.78044 0 0 0 6.60223,3.4533a63.262,63.262 0 0 0 21.63313,4.85988a94.39613,94.39613 0 0 1 20.2686,-36.03426a63.81439,63.81439 0 0 0 -9.71971,35.87685a99.92113,99.92113 0 0 0 24.34122,-5.21676c11.80849,-4.06211 23.27057,-10.12907 31.43682,-19.56535c8.838,-10.213 13.19395,-23.69045 14.6005,-37.12587c1.40655,-13.42491 0.084,-26.97583 -1.24907,-40.41125c-0.62976,-6.40279 4.70238,-13.77131 4.07262,-20.1741l-0.41989,0c-2.80253,-3.84173 -5.65752,-7.77789 -7.03255,-12.3333c-1.36459,-4.545 -1.00768,-9.90864 2.13074,-13.488a14.6545,14.6545 0 0 1 6.43431,-3.98863c0.231,-0.29387 0.48286,-0.57729 0.74527,-0.86072a59.84132,59.84132 0 0 1 16.53188,-12.36476c-4.461,3.36931 -7.442,7.17952 -8.82753,11.11568q5.794,-1.2753 11.58809,-2.54011a55.81526,55.81526 0 0 1 4.07262,-3.90464c2.06777,-1.79492 2.75,-1.93138 5.2167,-3.62128a16.64307,16.64307 0 0 0 -4.50295,6.4238c4.96479,-1.24907 9.92958,-3.12791 12.51173,-7.4c4.28256,-7.06414 -0.80825,-16.59485 -7.91429,-20.81443a28.31593,28.31593 0 0 0 -32.88532,3.62128c-10.276,-7.568 -24.908,-7.442 -36.33863,-1.78441a53.13391,53.13391 0 0 0 -18.95655,16.48992a74.14338,74.14338 0 0 1 8.58607,-0.59831a26.332,26.332 0 0 0 -11.2417,4.45048a77.432,77.432 0 0 0 -4.07262,7.127q-1.21227,2.409 -2.28821,4.88086c-4.398,10.01357 -7.26351,20.678 -10.234,31.21637c-3.46381,12.28084 -7.17952,24.6456 -13.66637,35.63539a80.03779,80.03779 0 0 1 -44.13747,35.21551c-1.54292,13.88688 5.23769,27.46926 15.84969,36.77959z"/>
  <path id="svg_55" fill="#6c63ff" d="m210.57965,190.29789l-5.61591,-2.10885l-7.08159,-11.45052l-25.22511,2.06119l-6.13119,12.27779l-14.77016,11.27954l6.45927,34.01838l10.03523,41.32187l67.17714,-8.39714l-0.071,-31.1064s12.13924,-24.576 -7.46982,-33.78483l-17.30686,-14.11103z"/>
  <path id="svg_56" fill="#ffb6b6" d="m314.12656,298.19797a9.61207,9.61207 0 0 1 -12.99127,-6.96156l-74.902,-45.32293l13.69075,-15.796l69.32122,49.51792a9.66415,9.66415 0 0 1 4.88129,18.56253l0.00001,0.00004z"/>
  <path id="svg_57" fill="#6c63ff" d="m201.27485,224.42127s-3.57954,3.60157 5.4022,9.52372c7.19057,4.74113 39.26372,28.17035 50.63314,31.87613a7.55111,7.55111 0 0 0 5.03313,7.7697l10.29424,-22.622c-2.22831,-5.17158 -5.79254,-3.97412 -7.66791,-2.80155l-12.43279,-9.35012l-30.52978,-30.48581l-18.191,13.4406l-2.54123,2.64933z"/>
  <path id="svg_58" fill="#fd6584" d="m171.33069,107.06732a40.29481,40.29481 0 0 0 -4.848,35.41371"/>
  <path id="svg_59" fill="#ccc" d="m24.53106,622.64577a1.18647,1.18647 0 0 0 1.19007,1.19l280.29,0a1.19,1.19 0 1 0 0,-2.38l-280.29,0a1.18651,1.18651 0 0 0 -1.19007,1.19z"/>
  <path fill="#161313" d="m138.32183,344.17215a2.79673,2.79673 0 0 0 -1.711,3.56047l39.05035,112.55038a2.79673,2.79673 0 0 0 3.56046,1.711l227.22023,-79.72181a2.79674,2.79674 0 0 0 1.71078,-3.561l-39.05034,-112.55041a2.79677,2.79677 0 0 0 -3.561,-1.71078l-227.21948,79.72215z" data-name="Path 3114" id="a4a87c0b-578c-404f-b0e7-3c25016717c2-232"/>
  <path fill="#e6e6e6" d="m259.60421,445.49089" data-name="Path 3124" id="f731b694-f804-4551-a9ab-28894637a524-235"/>
  <path id="svg_65" fill="#6c63ff" d="m152.57753,202.55966s-5.07456,0.18231 -2.56621,10.64423c2.00814,8.37556 9.383,60.917 15.14909,71.39307a7.55112,7.55112 0 0 0 -1.63672,9.11163l22.9765,-9.47664c1.90826,-5.298 0.43056,-10.10815 -1.73982,-10.53406l-2.68439,-15.323l-3.95609,-51.4044l-21.87656,-4.60775l-3.6658,0.19692z"/>
  <path id="svg_69" fill="#6c63ff" d="m940.71426,175.73608l-31.53364,-4.13591a4.50052,4.50052 0 0 1 -3.28323,-2.14784a4.40807,4.40807 0 0 1 -0.36837,-3.826a86.53533,86.53533 0 0 0 4.786,-39.71929a4.47106,4.47106 0 0 1 3.069,-4.77228c13.98,-4.43743 26.05451,-2.69025 35.88647,5.19141a4.52652,4.52652 0 0 1 1.715,3.4033a141.55219,141.55219 0 0 1 -5.34527,42.748a4.49086,4.49086 0 0 1 -4.92596,3.25861z"/>
  <path id="svg_70" fill="#fff" d="m942.94496,155.01473l-24.111,-3.16237a2.2811,2.2811 0 1 1 0.59329,-4.52346l24.111,3.16237a2.2811,2.2811 0 1 1 -0.59329,4.52346z"/>
  <path id="svg_71" fill="#fff" d="m943.98532,147.08267l-24.111,-3.16237a2.28111,2.28111 0 1 1 0.59329,-4.52347l24.111,3.16237a2.28111,2.28111 0 1 1 -0.59329,4.52347z"/>
  <circle id="svg_73" fill="#3f3d56" r="10.01145" cy="32.52333" cx="860.70939"/>
  <path d="m203.3446,347.08212c1,0 2.03854,0.67892 8,0c13.25597,-1.5097 31.35083,-10.32486 49,-14c13.74091,-2.86133 24.17148,-3.14957 32,6c10.82019,12.64609 13.9725,22.64749 15,27c0.91901,3.89301 -1,2 -3,-4l-3,-21l0,-6" id="svg_76" fill="none"/>
  <polyline stroke-linecap="round" id="svg_77" points="301.3446044921875,323.0821228027344 301.3446044921875,322.0821228027344 " fill="none"/>
  <path transform="rotate(-17.8987 365.748 313.547)" stroke="null" id="svg_80" d="m364.58167,292.44717l2.33239,0l0,0c0.30555,0 0.55325,9.44689 0.55325,21.10021c0,11.65332 -0.2477,21.1002 -0.55325,21.1002l-2.33239,0l0,0c-0.30555,0 -0.55325,-9.44688 -0.55325,-21.1002c0,-11.65332 0.2477,-21.10021 0.55325,-21.10021z" fill="#e5e5e5"/>
  <path id="svg_82" d="m374.47787,350.32169l0,0c0,-1.65685 1.34314,-3 2.99999,-3l0,0c0.79565,0 1.55871,0.31607 2.12132,0.87868c0.56261,0.56261 0.87868,1.32567 0.87868,2.12132l0,0c0,1.65685 -1.34314,3 -2.99999,3l0,0c-1.65685,0 -2.99999,-1.34314 -2.99999,-3zm2.99999,-3l0,5.99999m-2.99999,-3l5.99999,0" stroke="null" fill="#e5e5e5"/>
  <rect transform="rotate(-18.9233 266.83 365.916)" stroke="null" id="svg_84" height="102.21551" width="197.40568" y="314.80787" x="168.12743" fill="#eaeaef"/>
  <path id="svg_64" fill="#ffb6b6" d="m184.50348,347.0646a9.61206,9.61206 0 0 1 -4.72465,-13.96117l-23.69584,-84.27919l20.79013,-2.17248l16.75488,83.52682a9.66415,9.66415 0 0 1 -9.12452,16.886l0,0.00002z"/>
  <path transform="rotate(-19.1514 266.757 367.029)" stroke="null" id="svg_85" d="m303.34821,389.3143l-10.04093,-16.06694c-3.0273,-4.84253 -7.97888,-12.77015 -11.0062,-17.61362l-10.03999,-16.06597c-3.03031,-4.84538 -7.98188,-4.84538 -11.00818,0l-10.03796,16.06597c-3.0273,4.84347 -7.98189,12.77293 -11.0082,17.61362l-10.03898,16.06694c-3.0273,4.84721 -0.54948,8.80913 5.50411,8.80913l62.16622,0c6.05964,0 8.53439,-3.96193 5.51011,-8.80913l0,0zm-33.72409,2.48729l-5.95525,0l0,-5.28283l5.95525,0l0,5.28283zm-0.28691,-9.17543l-5.37634,0l-0.5343,-22.6033l6.39726,0l-0.48662,22.6033l0,0z" fill="#ef0b0b"/>
  <text style="cursor: move;" transform="rotate(-19.8864 491.289 219.582)" opacity="0.92" font-weight="bold" xml:space="preserve" text-anchor="start" font-family="'Catamaran'" font-size="24" id="svg_91" y="226.08212" x="464.3446" stroke="null" fill="#f2f2f2">Book</text>
  <text transform="rotate(-20.1235 497.845 243.582)" opacity="0.92" font-weight="bold" xml:space="preserve" text-anchor="start" font-family="'Catamaran'" font-size="24" stroke-width="0" id="svg_92" y="250.08212" x="492.3446" stroke="null" fill="#f2f2f2">a</text>
  <text transform="rotate(-21.9159 514.041 271.582)" opacity="0.92" font-weight="bold" xml:space="preserve" text-anchor="start" font-family="'Catamaran'" font-size="24" stroke-width="0" id="svg_93" y="278.08212" x="481.3446" stroke="null" fill="#f2f2f2">Repair</text>
 </g>
</svg>