<svg width="175" height="175" xmlns="http://www.w3.org/2000/svg" xml:space="preserve" enable-background="new 0 0 195 177" version="1.1">
 <g id="Layer_1">
  <title>Layer 1</title>
  <ellipse ry="4.74988" rx="4.74988" id="svg_297" cy="163.24732" cx="200.75218" stroke="null" fill="#323258"/>
  <g id="svg_62">
   <g id="svg_16">
    <ellipse stroke="null" ry="4.9999" rx="4.8749" id="svg_2" cy="11.24806" cx="8.62294" fill="#fff"/>
    <ellipse stroke="null" ry="4.9999" rx="4.8749" id="svg_3" cy="11.24806" cx="33.37244" fill="#fff"/>
    <ellipse stroke="null" ry="4.9999" rx="4.8749" id="svg_4" cy="36.24754" cx="8.87294" fill="#fff"/>
    <ellipse stroke="null" ry="4.9999" rx="4.9999" id="svg_5" cy="36.24754" cx="33.49743" fill="#fff"/>
    <ellipse stroke="null" ry="4.9999" rx="4.8749" id="svg_6" cy="62.747" cx="8.62294" fill="#fff"/>
    <ellipse stroke="null" ry="4.9999" rx="4.8749" id="svg_7" cy="62.747" cx="33.37244" fill="#fff"/>
    <ellipse stroke="null" ry="4.9999" rx="4.8749" id="svg_8" cy="87.74649" cx="8.87294" fill="#fff"/>
    <ellipse stroke="null" ry="4.9999" rx="4.9999" id="svg_9" cy="87.74649" cx="33.49743" fill="#fff"/>
    <ellipse stroke="null" ry="4.9999" rx="4.8749" id="svg_10" cy="113.24599" cx="8.62294" fill="#fff"/>
    <ellipse stroke="null" ry="4.9999" rx="4.8749" id="svg_11" cy="113.24599" cx="33.37244" fill="#fff"/>
    <ellipse stroke="null" ry="4.9999" rx="4.8749" id="svg_12" cy="138.24548" cx="8.87294" fill="#fff"/>
    <ellipse stroke="null" ry="4.9999" rx="4.9999" id="svg_13" cy="138.24548" cx="33.49743" fill="#fff"/>
    <ellipse stroke="null" ry="4.9999" rx="4.8749" id="svg_14" cy="164.74639" cx="8.87294" fill="#fff"/>
    <ellipse stroke="null" ry="4.9999" rx="4.9999" id="svg_15" cy="164.74639" cx="33.49743" fill="#fff"/>
   </g>
   <g id="svg_31">
    <ellipse stroke="null" ry="4.9999" rx="4.8749" id="svg_17" cy="11.24806" cx="62.6248" fill="#fff"/>
    <ellipse stroke="null" ry="4.9999" rx="4.8749" id="svg_18" cy="11.24806" cx="87.37429" fill="#fff"/>
    <ellipse stroke="null" ry="4.9999" rx="4.8749" id="svg_19" cy="36.24754" cx="62.87479" fill="#fff"/>
    <ellipse stroke="null" ry="4.9999" rx="4.9999" id="svg_20" cy="36.24754" cx="87.49929" fill="#fff"/>
    <ellipse stroke="null" ry="4.9999" rx="4.8749" id="svg_21" cy="62.747" cx="62.6248" fill="#fff"/>
    <ellipse stroke="null" ry="4.9999" rx="4.8749" id="svg_22" cy="62.747" cx="87.37429" fill="#fff"/>
    <ellipse stroke="null" ry="4.9999" rx="4.8749" id="svg_23" cy="87.74649" cx="62.87479" fill="#fff"/>
    <ellipse stroke="null" ry="4.9999" rx="4.9999" id="svg_24" cy="87.74649" cx="87.49929" fill="#fff"/>
    <ellipse stroke="null" ry="4.9999" rx="4.8749" id="svg_25" cy="113.24599" cx="62.6248" fill="#fff"/>
    <ellipse stroke="null" ry="4.9999" rx="4.8749" id="svg_26" cy="113.24599" cx="87.37429" fill="#fff"/>
    <ellipse stroke="null" ry="4.9999" rx="4.8749" id="svg_27" cy="138.24548" cx="62.87479" fill="#fff"/>
    <ellipse stroke="null" ry="4.9999" rx="4.9999" id="svg_28" cy="138.24548" cx="87.49929" fill="#fff"/>
    <ellipse stroke="null" ry="4.9999" rx="4.8749" id="svg_29" cy="164.74639" cx="62.87479" fill="#fff"/>
    <ellipse stroke="null" ry="4.9999" rx="4.9999" id="svg_30" cy="164.74639" cx="87.49929" fill="#fff"/>
   </g>
   <g id="svg_46">
    <ellipse stroke="null" ry="4.9999" rx="4.8749" id="svg_32" cy="11.24806" cx="115.62662" fill="#fff"/>
    <ellipse stroke="null" ry="4.9999" rx="4.8749" id="svg_33" cy="11.24806" cx="140.37611" fill="#fff"/>
    <ellipse stroke="null" ry="4.9999" rx="4.8749" id="svg_34" cy="36.24754" cx="115.87661" fill="#fff"/>
    <ellipse stroke="null" ry="4.9999" rx="4.9999" id="svg_35" cy="36.24754" cx="140.50111" fill="#fff"/>
    <ellipse stroke="null" ry="4.9999" rx="4.8749" id="svg_36" cy="62.747" cx="115.62662" fill="#fff"/>
    <ellipse stroke="null" ry="4.9999" rx="4.8749" id="svg_37" cy="62.747" cx="140.37611" fill="#fff"/>
    <ellipse stroke="null" ry="4.9999" rx="4.8749" id="svg_38" cy="87.74649" cx="115.87661" fill="#fff"/>
    <ellipse stroke="null" ry="4.9999" rx="4.9999" id="svg_39" cy="87.74649" cx="140.50111" fill="#fff"/>
    <ellipse stroke="null" ry="4.9999" rx="4.8749" id="svg_40" cy="113.24599" cx="115.62662" fill="#fff"/>
    <ellipse stroke="null" ry="4.9999" rx="4.8749" id="svg_41" cy="113.24599" cx="140.37611" fill="#fff"/>
    <ellipse stroke="null" ry="4.9999" rx="4.8749" id="svg_42" cy="138.24548" cx="115.87661" fill="#fff"/>
    <ellipse stroke="null" ry="4.9999" rx="4.9999" id="svg_43" cy="138.24548" cx="140.50111" fill="#fff"/>
    <ellipse stroke="null" ry="4.9999" rx="4.8749" id="svg_44" cy="164.74639" cx="115.87661" fill="#fff"/>
    <ellipse stroke="null" ry="4.9999" rx="4.9999" id="svg_45" cy="164.74639" cx="140.50111" fill="#fff"/>
   </g>
   <g id="svg_61">
    <ellipse stroke="null" ry="4.9999" rx="4.8749" id="svg_47" cy="11.24806" cx="165.12832" fill="#fff"/>
    <ellipse stroke="null" ry="4.9999" rx="4.8749" id="svg_48" cy="11.24806" cx="189.87781" fill="#fff"/>
    <ellipse stroke="null" ry="4.9999" rx="4.8749" id="svg_49" cy="36.24754" cx="165.37831" fill="#fff"/>
    <ellipse stroke="null" ry="4.9999" rx="4.9999" id="svg_50" cy="36.24754" cx="190.00281" fill="#fff"/>
    <ellipse stroke="null" ry="4.9999" rx="4.8749" id="svg_51" cy="62.747" cx="165.12832" fill="#fff"/>
    <ellipse stroke="null" ry="4.9999" rx="4.8749" id="svg_52" cy="62.747" cx="189.87781" fill="#fff"/>
    <ellipse stroke="null" ry="4.9999" rx="4.8749" id="svg_53" cy="87.74649" cx="165.37831" fill="#fff"/>
    <ellipse stroke="null" ry="4.9999" rx="4.9999" id="svg_54" cy="87.74649" cx="190.00281" fill="#fff"/>
    <ellipse stroke="null" ry="4.9999" rx="4.8749" id="svg_55" cy="113.24599" cx="165.12832" fill="#fff"/>
    <ellipse stroke="null" ry="4.9999" rx="4.8749" id="svg_56" cy="113.24599" cx="189.87781" fill="#fff"/>
    <ellipse stroke="null" ry="4.9999" rx="4.8749" id="svg_57" cy="138.24548" cx="165.37831" fill="#fff"/>
    <ellipse stroke="null" ry="4.9999" rx="4.9999" id="svg_58" cy="138.24548" cx="190.00281" fill="#fff"/>
    <ellipse stroke="null" ry="4.9999" rx="4.8749" id="svg_59" cy="164.74639" cx="165.37831" fill="#fff"/>
    <ellipse stroke="null" ry="4.9999" rx="4.9999" id="svg_60" cy="164.74639" cx="190.00281" fill="#fff"/>
   </g>
  </g>
 </g>

</svg>