<svg width="195" height="195" xmlns="http://www.w3.org/2000/svg" version="1.1" enable-background="new 0 0 195 177" xml:space="preserve">
 <g id="Layer_1">
  <title>Layer 1</title>
  <g id="svg_158">
   <g stroke="null" id="svg_208">
    <ellipse stroke="null" fill="#323258" cx="30.85329" cy="29.84846" id="svg_181" rx="3.6485" ry="3.6485"/>
    <g stroke="null" id="svg_190">
     <ellipse stroke="null" fill="#323258" cx="11.65064" cy="10.64582" id="svg_178" rx="3.6485" ry="3.6485"/>
     <ellipse stroke="null" fill="#323258" cx="11.65064" cy="29.84846" id="svg_179" rx="3.6485" ry="3.6485"/>
    </g>
    <ellipse stroke="null" fill="#323258" cx="30.4697" cy="10.64582" id="svg_187" rx="3.6485" ry="3.6485"/>
   </g>
   <g stroke="null" id="svg_13">
    <ellipse stroke="null" fill="#323258" cx="69.35089" cy="29.84846" id="svg_8" rx="3.6485" ry="3.6485"/>
    <g stroke="null" id="svg_11">
     <ellipse stroke="null" fill="#323258" cx="50.14824" cy="10.64582" id="svg_9" rx="3.6485" ry="3.6485"/>
     <ellipse stroke="null" fill="#323258" cx="50.14824" cy="29.84846" id="svg_10" rx="3.6485" ry="3.6485"/>
    </g>
    <ellipse stroke="null" fill="#323258" cx="68.9673" cy="10.64582" id="svg_12" rx="3.6485" ry="3.6485"/>
   </g>
   <g stroke="null" id="svg_25">
    <ellipse stroke="null" fill="#323258" cx="144.84617" cy="29.84846" id="svg_20" rx="3.6485" ry="3.6485"/>
    <g stroke="null" id="svg_23">
     <ellipse stroke="null" fill="#323258" cx="125.64352" cy="10.64582" id="svg_21" rx="3.6485" ry="3.6485"/>
     <ellipse stroke="null" fill="#323258" cx="125.64352" cy="29.84846" id="svg_22" rx="3.6485" ry="3.6485"/>
    </g>
    <ellipse stroke="null" fill="#323258" cx="144.46258" cy="10.64582" id="svg_24" rx="3.6485" ry="3.6485"/>
   </g>
   <g stroke="null" id="svg_7">
    <ellipse stroke="null" fill="#323258" cx="183.84373" cy="29.3485" id="svg_2" rx="3.6485" ry="3.6485"/>
    <g stroke="null" id="svg_5">
     <ellipse stroke="null" fill="#323258" cx="164.64108" cy="10.14585" id="svg_3" rx="3.6485" ry="3.6485"/>
     <ellipse stroke="null" fill="#323258" cx="164.64108" cy="29.3485" id="svg_4" rx="3.6485" ry="3.6485"/>
    </g>
    <ellipse stroke="null" fill="#323258" cx="183.46014" cy="10.14585" id="svg_6" rx="3.6485" ry="3.6485"/>
   </g>
   <g stroke="null" id="svg_19">
    <ellipse stroke="null" fill="#323258" cx="107.34851" cy="29.84846" id="svg_14" rx="3.6485" ry="3.6485"/>
    <g stroke="null" id="svg_17">
     <ellipse stroke="null" fill="#323258" cx="88.14587" cy="10.64582" id="svg_15" rx="3.6485" ry="3.6485"/>
     <ellipse stroke="null" fill="#323258" cx="88.14587" cy="29.84846" id="svg_16" rx="3.6485" ry="3.6485"/>
    </g>
    <ellipse stroke="null" fill="#323258" cx="106.96492" cy="10.64582" id="svg_18" rx="3.6485" ry="3.6485"/>
   </g>
   <g stroke="null" id="svg_73">
    <ellipse stroke="null" fill="#323258" cx="30.85329" cy="68.84603" id="svg_68" rx="3.6485" ry="3.6485"/>
    <g stroke="null" id="svg_71">
     <ellipse stroke="null" fill="#323258" cx="11.65064" cy="49.64338" id="svg_69" rx="3.6485" ry="3.6485"/>
     <ellipse stroke="null" fill="#323258" cx="11.65064" cy="68.84603" id="svg_70" rx="3.6485" ry="3.6485"/>
    </g>
    <ellipse stroke="null" fill="#323258" cx="30.4697" cy="49.64338" id="svg_72" rx="3.6485" ry="3.6485"/>
   </g>
   <g stroke="null" id="svg_43">
    <ellipse stroke="null" fill="#323258" cx="30.85329" cy="146.34119" id="svg_38" rx="3.6485" ry="3.6485"/>
    <g stroke="null" id="svg_41">
     <ellipse stroke="null" fill="#323258" cx="11.65064" cy="127.13854" id="svg_39" rx="3.6485" ry="3.6485"/>
     <ellipse stroke="null" fill="#323258" cx="11.65064" cy="146.34119" id="svg_40" rx="3.6485" ry="3.6485"/>
    </g>
    <ellipse stroke="null" fill="#323258" cx="30.4697" cy="127.13854" id="svg_42" rx="3.6485" ry="3.6485"/>
   </g>
   <g stroke="null" id="svg_79">
    <ellipse stroke="null" fill="#323258" cx="69.35089" cy="68.84603" id="svg_74" rx="3.6485" ry="3.6485"/>
    <g stroke="null" id="svg_77">
     <ellipse stroke="null" fill="#323258" cx="50.14824" cy="49.64338" id="svg_75" rx="3.6485" ry="3.6485"/>
     <ellipse stroke="null" fill="#323258" cx="50.14824" cy="68.84603" id="svg_76" rx="3.6485" ry="3.6485"/>
    </g>
    <ellipse stroke="null" fill="#323258" cx="68.9673" cy="49.64338" id="svg_78" rx="3.6485" ry="3.6485"/>
   </g>
   <g stroke="null" id="svg_49">
    <ellipse stroke="null" fill="#323258" cx="69.35089" cy="146.34119" id="svg_44" rx="3.6485" ry="3.6485"/>
    <g stroke="null" id="svg_47">
     <ellipse stroke="null" fill="#323258" cx="50.14824" cy="127.13854" id="svg_45" rx="3.6485" ry="3.6485"/>
     <ellipse stroke="null" fill="#323258" cx="50.14824" cy="146.34119" id="svg_46" rx="3.6485" ry="3.6485"/>
    </g>
    <ellipse stroke="null" fill="#323258" cx="68.9673" cy="127.13854" id="svg_48" rx="3.6485" ry="3.6485"/>
   </g>
   <g stroke="null" id="svg_85">
    <ellipse stroke="null" fill="#323258" cx="144.84617" cy="68.84603" id="svg_80" rx="3.6485" ry="3.6485"/>
    <g stroke="null" id="svg_83">
     <ellipse stroke="null" fill="#323258" cx="125.64352" cy="49.64338" id="svg_81" rx="3.6485" ry="3.6485"/>
     <ellipse stroke="null" fill="#323258" cx="125.64352" cy="68.84603" id="svg_82" rx="3.6485" ry="3.6485"/>
    </g>
    <ellipse stroke="null" fill="#323258" cx="144.46258" cy="49.64338" id="svg_84" rx="3.6485" ry="3.6485"/>
   </g>
   <g stroke="null" id="svg_55">
    <ellipse stroke="null" fill="#323258" cx="144.84617" cy="146.34119" id="svg_50" rx="3.6485" ry="3.6485"/>
    <g stroke="null" id="svg_53">
     <ellipse stroke="null" fill="#323258" cx="125.64352" cy="127.13854" id="svg_51" rx="3.6485" ry="3.6485"/>
     <ellipse stroke="null" fill="#323258" cx="125.64352" cy="146.34119" id="svg_52" rx="3.6485" ry="3.6485"/>
    </g>
    <ellipse stroke="null" fill="#323258" cx="144.46258" cy="127.13854" id="svg_54" rx="3.6485" ry="3.6485"/>
   </g>
   <g stroke="null" id="svg_91">
    <ellipse stroke="null" fill="#323258" cx="183.84373" cy="68.34606" id="svg_86" rx="3.6485" ry="3.6485"/>
    <g stroke="null" id="svg_89">
     <ellipse stroke="null" fill="#323258" cx="164.64108" cy="49.14341" id="svg_87" rx="3.6485" ry="3.6485"/>
     <ellipse stroke="null" fill="#323258" cx="164.64108" cy="68.34606" id="svg_88" rx="3.6485" ry="3.6485"/>
    </g>
    <ellipse stroke="null" fill="#323258" cx="183.46014" cy="49.14341" id="svg_90" rx="3.6485" ry="3.6485"/>
   </g>
   <g stroke="null" id="svg_61">
    <ellipse stroke="null" fill="#323258" cx="183.84373" cy="145.84122" id="svg_56" rx="3.6485" ry="3.6485"/>
    <g stroke="null" id="svg_59">
     <ellipse stroke="null" fill="#323258" cx="164.64108" cy="126.63857" id="svg_57" rx="3.6485" ry="3.6485"/>
     <ellipse stroke="null" fill="#323258" cx="164.64108" cy="145.84122" id="svg_58" rx="3.6485" ry="3.6485"/>
    </g>
    <ellipse stroke="null" fill="#323258" cx="183.46014" cy="126.63857" id="svg_60" rx="3.6485" ry="3.6485"/>
   </g>
   <g stroke="null" id="svg_97">
    <ellipse stroke="null" fill="#323258" cx="107.34851" cy="68.84603" id="svg_92" rx="3.6485" ry="3.6485"/>
    <g stroke="null" id="svg_95">
     <ellipse stroke="null" fill="#323258" cx="88.14587" cy="49.64338" id="svg_93" rx="3.6485" ry="3.6485"/>
     <ellipse stroke="null" fill="#323258" cx="88.14587" cy="68.84603" id="svg_94" rx="3.6485" ry="3.6485"/>
    </g>
    <ellipse stroke="null" fill="#323258" cx="106.96492" cy="49.64338" id="svg_96" rx="3.6485" ry="3.6485"/>
   </g>
   <g stroke="null" id="svg_67">
    <ellipse stroke="null" fill="#323258" cx="107.34851" cy="146.34119" id="svg_62" rx="3.6485" ry="3.6485"/>
    <g stroke="null" id="svg_65">
     <ellipse stroke="null" fill="#323258" cx="88.14587" cy="127.13854" id="svg_63" rx="3.6485" ry="3.6485"/>
     <ellipse stroke="null" fill="#323258" cx="88.14587" cy="146.34119" id="svg_64" rx="3.6485" ry="3.6485"/>
    </g>
    <ellipse stroke="null" fill="#323258" cx="106.96492" cy="127.13854" id="svg_66" rx="3.6485" ry="3.6485"/>
   </g>
   <g stroke="null" id="svg_103">
    <ellipse stroke="null" fill="#323258" cx="30.85329" cy="107.34362" id="svg_98" rx="3.6485" ry="3.6485"/>
    <g stroke="null" id="svg_101">
     <ellipse stroke="null" fill="#323258" cx="11.65064" cy="88.14097" id="svg_99" rx="3.6485" ry="3.6485"/>
     <ellipse stroke="null" fill="#323258" cx="11.65064" cy="107.34362" id="svg_100" rx="3.6485" ry="3.6485"/>
    </g>
    <ellipse stroke="null" fill="#323258" cx="30.4697" cy="88.14097" id="svg_102" rx="3.6485" ry="3.6485"/>
   </g>
   <g stroke="null" id="svg_109">
    <ellipse stroke="null" fill="#323258" cx="69.35089" cy="107.34362" id="svg_104" rx="3.6485" ry="3.6485"/>
    <g stroke="null" id="svg_107">
     <ellipse stroke="null" fill="#323258" cx="50.14824" cy="88.14097" id="svg_105" rx="3.6485" ry="3.6485"/>
     <ellipse stroke="null" fill="#323258" cx="50.14824" cy="107.34362" id="svg_106" rx="3.6485" ry="3.6485"/>
    </g>
    <ellipse stroke="null" fill="#323258" cx="68.9673" cy="88.14097" id="svg_108" rx="3.6485" ry="3.6485"/>
   </g>
   <g stroke="null" id="svg_115">
    <ellipse stroke="null" fill="#323258" cx="144.84617" cy="107.34362" id="svg_110" rx="3.6485" ry="3.6485"/>
    <g stroke="null" id="svg_113">
     <ellipse stroke="null" fill="#323258" cx="125.64352" cy="88.14097" id="svg_111" rx="3.6485" ry="3.6485"/>
     <ellipse stroke="null" fill="#323258" cx="125.64352" cy="107.34362" id="svg_112" rx="3.6485" ry="3.6485"/>
    </g>
    <ellipse stroke="null" fill="#323258" cx="144.46258" cy="88.14097" id="svg_114" rx="3.6485" ry="3.6485"/>
   </g>
   <g stroke="null" id="svg_121">
    <ellipse stroke="null" fill="#323258" cx="183.84373" cy="106.84366" id="svg_116" rx="3.6485" ry="3.6485"/>
    <g stroke="null" id="svg_119">
     <ellipse stroke="null" fill="#323258" cx="164.64108" cy="87.64101" id="svg_117" rx="3.6485" ry="3.6485"/>
     <ellipse stroke="null" fill="#323258" cx="164.64108" cy="106.84366" id="svg_118" rx="3.6485" ry="3.6485"/>
    </g>
    <ellipse stroke="null" fill="#323258" cx="183.46014" cy="87.64101" id="svg_120" rx="3.6485" ry="3.6485"/>
   </g>
   <g stroke="null" id="svg_127">
    <ellipse stroke="null" fill="#323258" cx="107.34851" cy="107.34362" id="svg_122" rx="3.6485" ry="3.6485"/>
    <g stroke="null" id="svg_125">
     <ellipse stroke="null" fill="#323258" cx="88.14587" cy="88.14097" id="svg_123" rx="3.6485" ry="3.6485"/>
     <ellipse stroke="null" fill="#323258" cx="88.14587" cy="107.34362" id="svg_124" rx="3.6485" ry="3.6485"/>
    </g>
    <ellipse stroke="null" fill="#323258" cx="106.96492" cy="88.14097" id="svg_126" rx="3.6485" ry="3.6485"/>
   </g>
   <g stroke="null" id="svg_133">
    <ellipse stroke="null" fill="#323258" cx="31.85323" cy="183.83884" id="svg_128" rx="3.6485" ry="3.6485"/>
    <g stroke="null" id="svg_131">
     <ellipse stroke="null" fill="#323258" cx="12.65058" cy="164.6362" id="svg_129" rx="3.6485" ry="3.6485"/>
     <ellipse stroke="null" fill="#323258" cx="12.65058" cy="183.83884" id="svg_130" rx="3.6485" ry="3.6485"/>
    </g>
    <ellipse stroke="null" fill="#323258" cx="31.46964" cy="164.6362" id="svg_132" rx="3.6485" ry="3.6485"/>
   </g>
   <g stroke="null" id="svg_139">
    <ellipse stroke="null" fill="#323258" cx="70.35083" cy="183.83884" id="svg_134" rx="3.6485" ry="3.6485"/>
    <g stroke="null" id="svg_137">
     <ellipse stroke="null" fill="#323258" cx="51.14818" cy="164.6362" id="svg_135" rx="3.6485" ry="3.6485"/>
     <ellipse stroke="null" fill="#323258" cx="51.14818" cy="183.83884" id="svg_136" rx="3.6485" ry="3.6485"/>
    </g>
    <ellipse stroke="null" fill="#323258" cx="69.96723" cy="164.6362" id="svg_138" rx="3.6485" ry="3.6485"/>
   </g>
   <g stroke="null" id="svg_145">
    <ellipse stroke="null" fill="#323258" cx="144.84617" cy="183.83884" id="svg_140" rx="3.6485" ry="3.6485"/>
    <g stroke="null" id="svg_143">
     <ellipse stroke="null" fill="#323258" cx="125.64352" cy="164.6362" id="svg_141" rx="3.6485" ry="3.6485"/>
     <ellipse stroke="null" fill="#323258" cx="125.64352" cy="183.83884" id="svg_142" rx="3.6485" ry="3.6485"/>
    </g>
    <ellipse stroke="null" fill="#323258" cx="144.46258" cy="164.6362" id="svg_144" rx="3.6485" ry="3.6485"/>
   </g>
   <g stroke="null" id="svg_151">
    <ellipse stroke="null" fill="#323258" cx="183.84373" cy="183.33888" id="svg_146" rx="3.6485" ry="3.6485"/>
    <g stroke="null" id="svg_149">
     <ellipse stroke="null" fill="#323258" cx="164.64108" cy="164.13623" id="svg_147" rx="3.6485" ry="3.6485"/>
     <ellipse stroke="null" fill="#323258" cx="164.64108" cy="183.33888" id="svg_148" rx="3.6485" ry="3.6485"/>
    </g>
    <ellipse stroke="null" fill="#323258" cx="183.46014" cy="164.13623" id="svg_150" rx="3.6485" ry="3.6485"/>
   </g>
   <g stroke="null" id="svg_157">
    <ellipse stroke="null" fill="#323258" cx="107.84848" cy="183.83884" id="svg_152" rx="3.6485" ry="3.6485"/>
    <g stroke="null" id="svg_155">
     <ellipse stroke="null" fill="#323258" cx="88.64583" cy="164.6362" id="svg_153" rx="3.6485" ry="3.6485"/>
     <ellipse stroke="null" fill="#323258" cx="88.64583" cy="183.83884" id="svg_154" rx="3.6485" ry="3.6485"/>
    </g>
    <ellipse stroke="null" fill="#323258" cx="107.46489" cy="164.6362" id="svg_156" rx="3.6485" ry="3.6485"/>
   </g>
  </g>
 </g>

</svg>