<svg width="869" height="314" xmlns="http://www.w3.org/2000/svg" data-name="Layer 1">
 <title>drone_surveillance</title>

 <g>
  <title>Layer 1</title>
  <path id="svg_1" fill="#3f3d56" d="m314.56901,145.58349a3.86767,3.86767 0 0 0 -3.86279,3.86328l0,154.31445a3.86767,3.86767 0 0 0 3.86279,3.86328l26.1958,0a3.86768,3.86768 0 0 0 3.8628,-3.86328l0,-154.31445a3.86768,3.86768 0 0 0 -3.8628,-3.86328l-26.1958,0z"/>
  <path id="svg_2" fill="#3f3d56" d="m532.40788,145.58349a3.86809,3.86809 0 0 0 -3.86328,3.86328l0,154.31445a3.86809,3.86809 0 0 0 3.86328,3.86328l26.19531,0a3.86809,3.86809 0 0 0 3.86328,-3.86328l0,-154.31445a3.86809,3.86809 0 0 0 -3.86328,-3.86328l-26.19531,0z"/>
  <polygon id="svg_3" fill="#3f3d56" points="654.793701171875,22.980331420898438 453.9396667480469,7.47332763671875 614.1796875,34.79534912109375 652.5786743164062,28.14935302734375 654.793701171875,22.980331420898438 "/>
  <polygon id="svg_4" fill="#6c63ff" points="615.6566772460938,32.364349365234375 654.0556640625,25.718338012695312 654.4326782226562,24.838348388671875 656.2706909179688,24.980331420898438 654.0556640625,30.14935302734375 615.6566772460938,36.79534912109375 455.4166564941406,7.47332763671875 502.9036865234375,13.13934326171875 615.6566772460938,32.364349365234375 "/>
  <polygon id="svg_5" fill="#3f3d56" points="199.9176788330078,22.980331420898438 -0.9373331069946289,7.47332763671875 159.3036651611328,34.79534912109375 197.70266723632812,28.14935302734375 199.9176788330078,22.980331420898438 "/>
  <polygon id="svg_6" fill="#6c63ff" points="157.0886688232422,32.364349365234375 195.48667907714844,25.718338012695312 195.8646697998047,24.838348388671875 197.70266723632812,24.980331420898438 195.48667907714844,30.14935302734375 157.0886688232422,36.79534912109375 -3.1523332595825195,7.47332763671875 44.33466720581055,13.13934326171875 157.0886688232422,32.364349365234375 "/>
  <path id="svg_7" fill="#3f3d56" d="m688.76199,103.46978l-16.984,0.73844l-155.5958,65.6469l-8.90552,7.45823l-28.23038,23.62994l-88.61231,0l-26.68708,-23.62994l-10.1461,-8.9868l-149.25261,-63.3799l-13.29184,-1.47687l44.30614,-21.41463l0.23631,0c10.0427,-9.53323 97.01568,-16.984 202.8335,-16.984s192.79079,7.45079 202.8335,16.984l0.97474,0l46.52145,21.41463z"/>
  <path id="svg_8" fill="#3f3d56" d="m234.14556,83.14985a8.27564,8.27564 0 0 0 0.47852,-2.75769l0,-35.07276a8.30885,8.30885 0 0 0 -8.30884,-8.30883l-3.37366,0a19.93774,19.93774 0 1 0 -28.32556,0l-3.37359,0a8.30881,8.30881 0 0 0 -8.30884,8.30883l0,35.07276a8.26212,8.26212 0 0 0 1.08465,4.09521c-2.50775,0.4397 -5.01556,0.917 -7.52331,1.46857a6.877,6.877 0 0 0 -5.37634,6.72424l0,8.33295a6.88724,6.88724 0 0 0 6.8872,6.88727l78.03288,0l0,-20.67621a177.61335,177.61335 0 0 0 -21.89311,-4.07434z"/>
  <path id="svg_9" fill="#3f3d56" d="m695.93902,85.95594c-2.50775,-0.55157 -5.0155,-1.02893 -7.52325,-1.46857a8.26212,8.26212 0 0 0 1.08465,-4.09521l0,-35.07276a8.30881,8.30881 0 0 0 -8.30884,-8.30883l-3.37359,0a19.93778,19.93778 0 1 0 -28.32563,0l-3.37359,0a8.30881,8.30881 0 0 0 -8.30884,8.30883l0,35.07276a8.27564,8.27564 0 0 0 0.47852,2.75769a177.61335,177.61335 0 0 0 -21.89313,4.07434l0,20.67621l78.03284,0a6.88724,6.88724 0 0 0 6.8872,-6.88727l0,-8.33295a6.877,6.877 0 0 0 -5.37634,-6.72424z"/>
  <polygon id="svg_10" fill="#3f3d56" points="672.5166625976562,22.980331420898438 873.3706665039062,7.47332763671875 713.1306762695312,34.79534912109375 674.731689453125,28.14935302734375 672.5166625976562,22.980331420898438 "/>
  <path id="svg_11" fill="#3f3d56" d="m450.31997,194.29737l-31.1597,0a8.78851,8.78851 0 0 0 -8.78853,8.78852l0,6.79128a8.78369,8.78369 0 0 0 5.68218,8.213a8.58909,8.58909 0 0 0 -1.99,5.50911l0,1.94786a8.61086,8.61086 0 0 0 3.69218,7.06972l0,25.92439l33.968,0l0,-25.92437a8.61088,8.61088 0 0 0 3.69218,-7.06972l0,-1.94786a8.58909,8.58909 0 0 0 -1.99,-5.50911a8.78369,8.78369 0 0 0 5.68218,-8.213l0,-6.79125a8.78851,8.78851 0 0 0 -8.78849,-8.78857z"/>
  <path id="svg_12" fill="#6c63ff" d="m403.07438,254.87255a5.239,5.239 0 0 0 -5.23291,5.23242l0,41.917a5.23917,5.23917 0 0 0 5.23291,5.2334l63.33155,0a5.23907,5.23907 0 0 0 5.23242,-5.2334l0,-41.91703a5.23887,5.23887 0 0 0 -5.23242,-5.23242l-63.33155,0.00003z"/>
  <path id="svg_13" fill="#6c63ff" d="m507.27667,177.31335l-28.23038,23.62994l-88.61231,0l-26.68708,-23.62994l26.53938,0l1.15935,-5.782a7.50328,7.50328 0 0 1 7.35484,-6.033l74.09461,0a7.50326,7.50326 0 0 1 7.35483,6.033l1.15935,5.782l25.86741,0z"/>
  <circle id="svg_14" fill="#3f3d56" r="20.6762" cy="281.06356" cx="434.74012"/>
  <circle id="svg_15" fill="#e6e6e6" r="11.81497" cy="281.06356" cx="434.74012"/>
  <path id="svg_16" fill="#fff" d="m441.88173,271.66699a11.79947,11.79947 0 0 1 -16.538,16.53825a11.80444,11.80444 0 1 0 16.538,-16.53825z"/>
  <rect id="svg_17" fill="#e6e6e6" height="3.38212" width="530.19637" y="94.76374" x="171.48777"/>
  <polygon id="svg_18" fill="#6c63ff" points="714.607666015625,32.364349365234375 676.2086791992188,25.718338012695312 675.8316650390625,24.838348388671875 673.9937133789062,24.980331420898438 676.2086791992188,30.14935302734375 714.607666015625,36.79534912109375 874.8477172851562,7.47332763671875 827.3606567382812,13.13934326171875 714.607666015625,32.364349365234375 "/>
  <polygon id="svg_19" fill="#3f3d56" points="217.63967895507812,22.980331420898438 418.4946594238281,7.47332763671875 258.253662109375,34.79534912109375 219.8556671142578,28.14935302734375 217.63967895507812,22.980331420898438 "/>
  <polygon id="svg_20" fill="#6c63ff" points="260.46966552734375,32.364349365234375 222.0706787109375,25.718338012695312 221.69366455078125,24.838348388671875 219.8556671142578,24.980331420898438 222.0706787109375,30.14935302734375 260.46966552734375,36.79534912109375 420.70965576171875,7.47332763671875 373.22265625,13.13934326171875 260.46966552734375,32.364349365234375 "/>
  <rect id="svg_21" fill="#e6e6e6" height="11.81497" width="59.07485" y="171.77508" x="406.31035"/>
 </g>
</svg>