<svg width="323" height="292" xmlns="http://www.w3.org/2000/svg" data-name="Layer 1">

 <g>
  <title>Layer 1</title>
  <path id="svg_25" fill="#6c63ff" d="m212.44079,58.80486l0,90.27564a5.98485,5.98485 0 0 0 5.25024,6.01331c0.194,0.01293 0.38794,0.02587 0.58191,0.02587a5.77925,5.77925 0 0 0 3.9054,-1.51306a5.86549,5.86549 0 0 0 1.90088,-4.30615l0,-91.168l-11.63843,0.67239z"/>
  <path id="svg_26" fill="#6c63ff" d="m98.44079,58.80486l0,90.27564a5.98485,5.98485 0 0 0 5.25024,6.01331c0.194,0.01293 0.38794,0.02587 0.58191,0.02587a5.77925,5.77925 0 0 0 3.9054,-1.51306a5.86549,5.86549 0 0 0 1.90088,-4.30615l0,-91.168l-11.63843,0.67239z"/>
  <path id="svg_27" fill="#fff" d="m263.4807,150.86668a8.65038,8.65038 0 0 0 -7.27,-8.49l-6.76,-1.11l-11.64,-1.91l-13.73,-2.25l-11.64,-1.92l-80.27,-13.18a8.76473,8.76473 0 0 0 -3.57,0.16l-18.52,4.8l-7.48,1.93l-3.05,0.79l-0.01,0l-0.01,0.01l-1.09,0.28l-11.03,2.85l-3.49,0.9l-1.07,0.27l-10.56,2.73l-20.23,5.24a8.59935,8.59935 0 0 0 -3.62994,1.96l0,0.02a8.56729,8.56729 0 0 0 -2.86005,6.41l0,101.67a8.05661,8.05661 0 0 0 0.28,2.14a8.73,8.73 0 0 0 6.59,6.33l114.91,24.45l11.43,2.43a7.284,7.284 0 0 0 1.47,0.17a1.93872,1.93872 0 0 0 0.34,0.02a8.89232,8.89232 0 0 0 1.15,-0.08l0.01,-0.01a7.3786,7.3786 0 0 0 1.45,-0.32l40.88,-12.91l34.18,-10.79a8.62309,8.62309 0 0 0 6.06,-8.33l-0.84001,-104.26z"/>
  <path id="svg_28" fill="#3f3d56" d="m255.8907,150.91668a1.06349,1.06349 0 0 0 -0.91,-1.05l-0.85,-0.14l-4.68,-0.77l-0.46,-0.08l-0.01,0l-0.02,-0.01l-11.15,-1.82l-13.73,-2.26l-11.64,-1.91l-81.5,-13.39c-0.06,0 -0.11,-0.01 -0.18,-0.01a0.74656,0.74656 0 0 0 -0.26,0.04l-6.74,1.74l-7.11,1.84l-6.57,1.7l-11.64,3.01l-1.07,0.28l-0.01,0l-13.44,3.48l-11.63,3l-7.67,1.99l-4.99,1.29l-0.02,0.01l-5.65,1.45a1.06364,1.06364 0 0 0 -0.8,1.05l0,101.67a1.07831,1.07831 0 0 0 0.85,1.05l5.12,1.09l110.34,23.48l10.34,2.2l0.01,0l0.54,0.11a1.025,1.025 0 0 0 0.55,-0.02l1.07,-0.34l30.21,-9.54l0.01,0l11.61,-3.66l32.17,-10.17a1.07416,1.07416 0 0 0 0.76,-1.03l-0.85,-104.28z"/>
  <path id="svg_29" fill="#3f3d56" d="m263.4807,150.86668a8.65038,8.65038 0 0 0 -7.27,-8.49l-6.76,-1.11l-11.64,-1.91l-13.73,-2.25l-11.64,-1.92l-80.27,-13.18a8.76473,8.76473 0 0 0 -3.57,0.16l-18.52,4.8l-7.48,1.93l-3.05,0.79l-0.01,0l-0.01,0.01l-1.09,0.28l-11.03,2.85l-3.49,0.9l-1.07,0.27l-10.56,2.73l-20.23,5.24a8.59935,8.59935 0 0 0 -3.62994,1.96l0,0.02a8.56729,8.56729 0 0 0 -2.86005,6.41l0,101.67a8.05661,8.05661 0 0 0 0.28,2.14a8.73,8.73 0 0 0 6.59,6.33l114.91,24.45l11.43,2.43a7.284,7.284 0 0 0 1.47,0.17a1.93872,1.93872 0 0 0 0.34,0.02a8.89232,8.89232 0 0 0 1.15,-0.08l0.01,-0.01a7.3786,7.3786 0 0 0 1.45,-0.32l40.88,-12.91l34.18,-10.79a8.62309,8.62309 0 0 0 6.06,-8.33l-0.84001,-104.26zm-5.87,110.53l-33.79,10.67l-11.39,3.6l-29.89,9.44c-0.17,0.05 -0.34,0.09 -0.5,0.13a7.19454,7.19454 0 0 1 -2.17,0.13l-0.01,0c-0.2,-0.03 -0.41,-0.07 -0.62,-0.11l-11.3,-2.4l-115.06,-24.48a6.5433,6.5433 0 0 1 -4.78,-4.21a6.67287,6.67287 0 0 1 -0.36,-2.14l0,-101.67a6.50228,6.50228 0 0 1 1.67,-4.36l0.01,0l0,-0.01a6.46463,6.46463 0 0 1 2.58,-1.73a4.21851,4.21851 0 0 1 0.6,-0.2l19.69,-5.08l11.63,-3.01l1.22,-0.33l0.03,0l13.27,-3.42l5.99,-1.55l4.86,-1.26l0.79,-0.2l19.05,-4.93a6.57138,6.57138 0 0 1 1.63,-0.21a7.56617,7.56617 0 0 1 1.06,0.07995l80.62,13.24l11.64,1.91l13.73,2.25l11.64,1.92l6.41,1.05a6.4,6.4 0 0 1 3.31,1.6l0.02,0a6.55325,6.55325 0 0 1 2.12,4.76l0.84,104.27a6.466,6.466 0 0 1 -4.54,6.25005z"/>
  <path id="svg_30" fill="#3f3d56" d="m260.58744,147.93443a0.94125,0.94125 0 0 1 -0.2744,0.1227l-36.48689,9.86368l-11.35836,3.06887l-32.306,8.73a1.25361,1.25361 0 0 1 -0.28162,0.03614a1.76858,1.76858 0 0 1 -0.195,-0.01446l-130.26379,-23.74938l-0.43327,-0.07942a1.08632,1.08632 0 0 1 0.38995,-2.13734l2.62117,0.47651l127.83762,23.30887l27.84353,-7.524l15.57534,-4.2098l35.92365,-9.712l0.57043,-0.15161a1.08828,1.08828 0 0 1 1.26364,0.59207a0.84509,0.84509 0 0 1 0.065,0.1733a1.08589,1.08589 0 0 1 -0.491,1.20587z"/>
  <path id="svg_31" fill="#3f3d56" d="m180.9633,287.81639a1.08315,1.08315 0 0 1 -1.08313,-1.07325l-1.08312,-118.06063a1.08343,1.08343 0 0 1 1.07325,-1.093l0.00987,0a1.08315,1.08315 0 0 1 1.08313,1.07325l1.08312,118.06063a1.08345,1.08345 0 0 1 -1.07325,1.093l-0.00987,0z"/>
  <path id="svg_32" fill="#6c63ff" d="m223.82615,273.45414l-11.35836,3.06886l-4.78741,-116.48645l-122.15483,-24.30535a2.80843,2.80843 0 0 1 -0.35381,-0.08664a4.30643,4.30643 0 0 1 -2.32513,-1.63915l16.6801,-4.318l4.903,0.97479l115.90883,23.05616a4.30877,4.30877 0 0 1 2.9172,2.10843c0.36102,0.62817 0.56318,116.87645 0.57041,117.62735z"/>
  <path id="svg_33" fill="#6c63ff" d="m285.1807,35.48668c-1.99,-0.53 -4,-1.04 -5.99,-1.54l0,-9.08a12.7836,12.7836 0 0 0 -3.45,-8.8a12.03245,12.03245 0 0 0 -3.42,-2.59a8.05034,8.05034 0 0 0 -0.88995,-0.41a11.49259,11.49259 0 0 0 -3.71,-0.86005a12.14916,12.14916 0 0 0 -4.05,0.4a12.69351,12.69351 0 0 0 -2.29,0.87a12.541,12.541 0 0 0 -2.88,2.03c-0.19,0.18 -0.37,0.36 -0.56,0.56a12.29742,12.29742 0 0 0 -3.32,8.4l0,3.93a476.47765,476.47765 0 0 0 -187.50995,0l0,-3.53a12.78365,12.78365 0 0 0 -3.45,-8.8a11.98823,11.98823 0 0 0 -3.41,-2.59a9.171,9.171 0 0 0 -0.9,-0.41a11.49253,11.49253 0 0 0 -3.71,-0.86005a12.17541,12.17541 0 0 0 -4.05,0.4a12.59943,12.59943 0 0 0 -2.28,0.87a12.3837,12.3837 0 0 0 -2.88995,2.03c-0.19,0.18 -0.37,0.36 -0.55005,0.56a12.307,12.307 0 0 0 -3.33,8.4l0,9.48c-1.99,0.5 -3.99,1.01 -5.98,1.54l-0.48,0.13l0,0.49a27.72119,27.72119 0 0 0 2.63,11.82l1.32,2.44a27.78605,27.78605 0 0 0 23.85,13.54l8.41,0l0,90.95a5.9773,5.9773 0 0 0 5.25,6.01a5.78579,5.78579 0 0 0 4.48,-1.48a5.84618,5.84618 0 0 0 1.9,-4.31l0,-90.4899a18.916,18.916 0 0 1 11.9499,9.78a34.16793,34.16793 0 0 0 2.57,4.3a32.3737,32.3737 0 0 0 26.53,13.69l71.8,0a33.12383,33.12383 0 0 0 15.67,-3.92a30.85406,30.85406 0 0 0 11.64,-10.78a29.27,29.27 0 0 0 1.63,-2.96a18.759,18.759 0 0 1 12.1,-10.11l0,90.27a5.97735,5.97735 0 0 0 5.25,6.01a5.63058,5.63058 0 0 0 0.58,0.03a5.80563,5.80563 0 0 0 3.91,-1.51a5.88369,5.88369 0 0 0 1.9,-4.31l0,-91.17l8.4,0a27.7735,27.7735 0 0 0 23.85,-13.54a27.271,27.271 0 0 0 1.32,-2.44a27.7282,27.7282 0 0 0 2.64,-11.82l0,-0.49l-0.48,-0.13z"/>
  <circle id="svg_34" fill="#3f3d56" r="31.03591" cy="73.60844" cx="158.28149"/>
  <circle id="svg_35" fill="#6c63ff" r="16.55249" cy="73.60844" cx="158.28149"/>
  <path id="svg_36" fill="#6c63ff" d="m312.1707,7.00668l-40.74,0l0,6.47l47.82,0a7.12711,7.12711 0 0 0 -7.08,-6.47z"/>
  <path id="svg_37" fill="#6c63ff" d="m222.9407,7.00668a7.14393,7.14393 0 0 0 -7.09,6.47l47.82,0l0,-6.47l-40.73,0z"/>
  <path id="svg_38" fill="#3f3d56" d="m277.7307,13.47668a11.11,11.11 0 0 0 -3.74,-6.47a10.97217,10.97217 0 0 0 -17.89,6.47a10.293,10.293 0 0 0 -0.19,1.94l0,0.65l21.99,0l0,-0.65a12.38744,12.38744 0 0 0 -0.17,-1.94z"/>
  <path id="svg_39" fill="#6c63ff" d="m100.0907,7.00668l-40.74,0l0,6.47l47.82,0a7.12716,7.12716 0 0 0 -7.08,-6.47z"/>
  <path id="svg_40" fill="#6c63ff" d="m10.8607,7.00668a7.144,7.144 0 0 0 -7.09,6.47l47.82,0l0,-6.47l-40.73,0z"/>
  <path id="svg_41" fill="#3f3d56" d="m65.6507,13.47668a10.983,10.983 0 0 0 -21.63,0a10.29412,10.29412 0 0 0 -0.18,1.94l0,0.65l21.98,0l0,-0.65a12.38624,12.38624 0 0 0 -0.17,-1.94z"/>
  <path id="svg_42" fill="#3f3d56" d="m38.7157,47.92621a965.421,965.421 0 0 1 244.30434,0a27.70864,27.70864 0 0 1 -1.319,2.44408a960.59109,960.59109 0 0 0 -120.03138,-7.61673l-0.02596,0c-2.28889,0 -4.59072,0 -6.87962,0.02586l-0.0388,0a958.68208,958.68208 0 0 0 -114.69058,7.59087l-1.319,-2.44408z"/>
  <path id="svg_43" fill="#6c63ff" d="m116.05131,243.84948a1.95605,1.95605 0 0 1 -0.42811,-0.048l-40.088,-9.05214a1.93993,1.93993 0 0 1 0.85369,-3.78478l40.088,9.05214a1.94024,1.94024 0 0 1 -0.42558,3.83276l0,0.00002z"/>
  <path id="svg_44" fill="#6c63ff" d="m105.70601,219.27939a1.95607,1.95607 0 0 1 -0.42811,-0.048l-40.08805,-9.05214a1.93993,1.93993 0 0 1 0.85369,-3.78478l40.08805,9.05214a1.94025,1.94025 0 0 1 -0.42558,3.83277l0,0.00001z"/>
 </g>
</svg>