<svg width="753" height="631" xmlns="http://www.w3.org/2000/svg" stroke="null" data-name="Layer 1">
 <g stroke="null">
  <title stroke="null">Layer 1</title>
  <path transform="rotate(1.04389 375.76 335.38)" id="svg_1" fill="#ede6e6" d="m697.26735,152.46332a366.72753,350.65687 0 0 0 -24.10256,-36.16633q-9.24769,-12.18003 -19.54305,-23.54714l-0.01717,0a369.34201,353.15678 0 0 0 -40.39986,-38.23538q-4.44355,-3.60843 -9.00732,-7.06902a366.94191,350.86186 0 0 0 -90.43508,-50.52751l0.2885,45.43415l3.11151,517.92318l-269.68617,0l-15.16698,-516.94599l1.12994,-44.70855c-132.21873,53.17149 -225.05586,178.18706 -225.05586,323.94358a367.67465,351.56249 0 0 0 11.94398,89.15568a361.36696,345.53122 0 0 0 12.18433,36.29775q2.57598,6.46559 5.43525,12.8163c0.91878,2.06078 1.85474,4.10514 2.82502,6.14131c1.24503,2.66012 2.54163,5.31204 3.87256,7.93112q1.54556,3.09119 3.17702,6.14132q2.0994,4.00258 4.33626,7.93939c1.15055,2.06078 2.33549,4.10515 3.53767,6.14125a368.87646,352.71164 0 0 0 73.35511,87.72707q12.48063,10.8253 25.9744,20.52575a367.44601,351.34387 0 0 0 441.47035,0q7.34152,-5.27102 14.38255,-10.89505q4.67538,-3.7193 9.19622,-7.57813c0.79857,-0.68142 1.59713,-1.36289 2.38712,-2.05257a368.91887,352.75219 0 0 0 68.74414,-80.14067a360.51816,344.71961 0 0 0 18.61568,-33.79365q2.20242,-4.58132 4.26748,-9.24484a362.3241,346.44642 0 0 0 15.95388,-43.8348q0.9918,-3.46061 1.91482,-6.94583l0,-0.00821c0.10301,-0.4023 0.21466,-0.81286 0.31767,-1.21515c0.63544,-2.44667 1.24509,-4.90975 1.82898,-7.37288l0,-0.00815q2.8336,-11.90908 4.78273,-24.10547c0.16316,-1.04266 0.32631,-2.08541 0.48088,-3.12808c0.06009,-0.37764 0.12024,-0.75535 0.16315,-1.13308l0,-0.00821q1.39106,-9.42126 2.25824,-18.98217q1.33954,-15.01261 1.3481,-30.36992a365.69042,349.66522 0 0 0 -45.86949,-170.10106l0,-0.00001z" stroke="null"/>
  <path stroke="null" id="svg_2" fill="#e6e6e6" d="m673.39868,554.68066c22.57343,-30.50085 31.25487,-73.4632 13.6955,-107.10092a174.82952,174.82952 0 0 1 -82.77343,86.927c-14.28918,7.00556 -30.91166,13.3096 -37.52571,27.78427c-4.1156,9.0064 -3.33187,19.64115 -0.02357,28.974c3.3087,9.33322 8.93578,17.63762 14.50346,25.82651l0.29327,2.4545c35.05209,-14.5331 69.25705,-34.36452 91.83048,-64.86536z"/>
  <path stroke="null" id="svg_3" fill="#fff" d="m686.34513,447.84968a149.43215,149.43215 0 0 1 -31.0859,86.52491a64.35041,64.35041 0 0 1 -14.42368,14.0881a36.90789,36.90789 0 0 1 -18.45223,6.06852c-6.131,0.43935 -12.45317,0.17877 -18.37058,2.10082a22.59884,22.59884 0 0 0 -13.52083,12.6002c-3.27617,7.23152 -3.75856,15.20895 -3.95919,23.02661c-0.22276,8.68 -0.31661,17.69937 -4.41086,25.58989c-0.49607,0.95605 1.0164,1.66989 1.51172,0.71528c7.12328,-13.72815 2.49794,-29.782 6.743,-44.21354c1.98081,-6.734 6.003,-12.91193 12.7258,-15.61049c5.8788,-2.35978 12.39853,-2.09664 18.61012,-2.48784a39.38351,39.38351 0 0 0 18.26339,-5.26147a59.49058,59.49058 0 0 0 14.91211,-13.48158a144.97586,144.97586 0 0 0 22.71061,-39.2091a152.08212,152.08212 0 0 0 10.41289,-50.59568c0.03424,-1.073 -1.63232,-0.9206 -1.66634,0.14537l-0.00003,0z"/>
  <path stroke="null" id="svg_4" fill="#fff" d="m661.91189,526.73425a22.41959,22.41959 0 0 0 28.55391,-5.24167c0.67792,-0.83562 -0.58874,-1.92834 -1.26757,-1.0916a20.76006,20.76006 0 0 1 -26.57106,4.82155c-0.92989,-0.54164 -1.63985,0.97318 -0.71528,1.51172z"/>
  <path stroke="null" id="svg_5" fill="#fff" d="m625.52131,554.71787a43.21193,43.21193 0 0 1 3.185,-31.33014c0.49267,-0.95777 -1.01964,-1.67189 -1.51172,-0.71528a44.947,44.947 0 0 0 -3.248,32.60858c0.29233,1.03787 1.86547,0.46907 1.57473,-0.56316l-0.00001,0z"/>
  <path stroke="null" id="svg_6" fill="#fff" d="m681.71317,482.22949a12.6906,12.6906 0 0 1 -8.2891,-8.73483c-0.279,-1.04106 -1.85194,-0.47111 -1.57473,0.56316a14.22082,14.22082 0 0 0 9.14855,9.68338a0.8643,0.8643 0 0 0 1.1135,-0.39821a0.84042,0.84042 0 0 0 -0.39822,-1.1135z"/>
  <path stroke="null" id="svg_7" fill="#e6e6e6" d="m561.43826,420.81027c0.15574,0.655 0.31148,1.31 0.458,1.97574a167.12737,167.12737 0 0 1 3.9726,26.81792c0.05716,0.69758 0.10457,1.4054 0.14157,2.10317a176.18982,176.18982 0 0 1 -8.40485,64.321a171.10163,171.10163 0 0 1 -9.93282,24.025c-5.40795,10.69563 -12.12255,21.86213 -13.63677,33.38058a29.35187,29.35187 0 0 0 -0.29037,3.62132l44.80548,42.6584c0.15047,0.04585 0.29177,0.10234 0.44274,0.14866l1.71107,1.785c0.22983,-0.38533 0.45993,-0.78992 0.68976,-1.17525c0.13425,-0.223 0.25852,-0.45544 0.39277,-0.67841c0.08634,-0.15165 0.17224,-0.30384 0.25882,-0.43576c0.02893,-0.05037 0.05735,-0.10122 0.0766,-0.14142c0.08658,-0.13192 0.153,-0.26365 0.22983,-0.38533q1.9386,-3.387 3.83632,-6.813c0.00974,-0.01024 0.00974,-0.01024 0.0095,-0.03c9.59541,-17.42768 17.82018,-35.80954 22.99348,-54.85539c0.15545,-0.57307 0.32115,-1.1559 0.45613,-1.74846a163.26888,163.26888 0 0 0 4.71735,-26.22312a144.33881,144.33881 0 0 0 0.62013,-14.59135a120.027,120.027 0 0 0 -6.23946,-37.00566c-7.99194,-23.78467 -23.50168,-44.74862 -45.61032,-55.917c-0.5658,-0.28523 -1.12204,-0.56157 -1.69756,-0.83664z"/>
  <path stroke="null" id="svg_8" fill="#fff" d="m560.99756,421.47485a149.43222,149.43222 0 0 1 27.27362,87.80115a64.35074,64.35074 0 0 1 -3.03449,19.93262a36.90791,36.90791 0 0 1 -11.07941,15.95488c-4.63071,4.04207 -9.83552,7.64041 -13.403,12.73774a22.59883,22.59883 0 0 0 -3.20943,18.201c1.738,7.74645 6.15584,14.40642 10.70242,20.76917c5.0481,7.06462 10.40344,14.32258 11.88506,23.08773c0.17951,1.062 1.81691,0.72137 1.63767,-0.339c-2.57776,-15.24987 -15.93635,-25.28318 -21.23573,-39.36178c-2.47279,-6.56933 -2.98081,-13.92367 0.76225,-20.12591c3.27314,-5.42359 8.63721,-9.13882 13.36129,-13.191a39.38372,39.38372 0 0 0 11.41452,-15.19681a59.49081,59.49081 0 0 0 3.78964,-19.74241a144.97592,144.97592 0 0 0 -5.47343,-44.97963a152.08179,152.08179 0 0 0 -22.148,-46.66709c-0.61866,-0.87733 -1.85758,0.24772 -1.243,1.11932l0.00002,0.00002z"/>
  <path stroke="null" id="svg_9" fill="#fff" d="m588.98295,499.17025a22.41957,22.41957 0 0 0 19.64285,-21.3766c0.03819,-1.07535 -1.63107,-1.1852 -1.6693,-0.10842a20.76,20.76 0 0 1 -18.31259,19.84735c-1.06857,0.12739 -0.72342,1.76433 0.339,1.63767l0.00004,0z"/>
  <path stroke="null" id="svg_10" fill="#fff" d="m576.77518,543.42325a43.212,43.212 0 0 1 -16.3199,-26.93292c-0.18327,-1.06135 -1.82072,-0.721 -1.63767,0.339a44.94692,44.94692 0 0 0 17.0393,27.99162c0.85828,0.65268 1.77188,-0.74862 0.91827,-1.39775l0,0.00005z"/>
  <path stroke="null" id="svg_11" fill="#fff" d="m577.99822,451.71395a12.69056,12.69056 0 0 1 -11.87735,-1.98366c-0.84957,-0.66322 -1.76231,0.73884 -0.91826,1.39776a14.22084,14.22084 0 0 0 13.13466,2.22358a0.86429,0.86429 0 0 0 0.64931,-0.98836a0.84042,0.84042 0 0 0 -0.98836,-0.64932z"/>
  <path stroke="null" id="svg_15" fill="#fff" d="m19.51727,387.78156a43.212,43.212 0 0 0 -0.62828,-31.48534c-0.4132,-0.99464 1.15214,-1.5835 1.56485,-0.59006a44.94691,44.94691 0 0 1 0.58718,32.76468c-0.3757,1.01067 -1.89741,0.31591 -1.52375,-0.68928z"/>
  <path stroke="null" id="svg_17" fill="#e6e6e6" d="m94.27075,259.5248c-0.20846,0.64019 -0.41692,1.28037 -0.617,1.932a167.128,167.128 0 0 0 -6.1389,26.40637c-0.11366,0.69063 -0.21844,1.39225 -0.312,2.08471a176.19013,176.19013 0 0 0 3.1498,64.79134a171.10129,171.10129 0 0 0 7.94752,24.7527c4.52085,11.09975 10.30576,22.775 10.87889,34.37841a29.352,29.352 0 0 1 -0.00489,3.63293l-48.124,38.876c-0.15371,0.03347 -0.29913,0.07829 -0.45337,0.11219l-1.85047,1.64006c-0.19776,-0.40274 -0.39421,-0.82469 -0.592,-1.22742c-0.11568,-0.23314 -0.22065,-0.47494 -0.33634,-0.70808c-0.07372,-0.15817 -0.147,-0.31684 -0.22254,-0.45536c-0.02474,-0.05256 -0.04894,-0.10555 -0.06486,-0.14718c-0.07557,-0.13852 -0.13106,-0.2752 -0.19775,-0.40273q-1.65693,-3.53334 -3.26995,-7.10225c-0.00888,-0.011 -0.00888,-0.011 -0.007,-0.03064c-8.14736,-18.14983 -14.85107,-37.1393 -18.45943,-56.54257c-0.10837,-0.58381 -0.22615,-1.17818 -0.31254,-1.77975a163.27112,163.27112 0 0 1 -2.57065,-26.51975a144.34235,144.34235 0 0 1 0.56774,-14.59348a120.02708,120.02708 0 0 1 9.22619,-36.37619c9.89844,-23.05651 27.06058,-42.69067 50.00372,-52.02535c0.587,-0.23836 1.16386,-0.46858 1.75983,-0.69596z"/>
  <path stroke="null" id="svg_18" fill="#fff" d="m94.65598,260.22298a149.4322,149.4322 0 0 0 -34.31884,85.29426a64.35053,64.35053 0 0 0 1.40458,20.11329a36.908,36.908 0 0 0 9.74613,16.80252c4.28691,4.405 9.18207,8.41444 12.32354,13.78484a22.59883,22.59883 0 0 1 1.71966,18.40165c-2.36182,7.57958 -7.30626,13.85849 -12.35488,19.83071c-5.60554,6.631 -11.533,13.42973 -13.72205,22.04549c-0.26523,1.04392 -1.86953,0.57133 -1.6047,-0.471c3.80856,-14.98994 17.93835,-23.90443 24.36434,-37.50579c2.99848,-6.34664 4.1025,-13.63537 0.87586,-20.12129c-2.82155,-5.67165 -7.86595,-9.81052 -12.24509,-14.23318a39.38376,39.38376 0 0 1 -10.14175,-16.07418a59.49061,59.49061 0 0 1 -2.17268,-19.98509a144.9755,144.9755 0 0 1 9.11073,-44.386a152.08211,152.08211 0 0 1 25.86726,-44.71281c0.68792,-0.82415 1.83131,0.39787 1.14789,1.21663l0,-0.00005z"/>
  <path stroke="null" id="svg_19" fill="#fff" d="m60.44901,335.38708a22.41961,22.41961 0 0 1 -17.84065,-22.90223a0.83693,0.83693 0 0 1 1.6726,0.0276a20.76005,20.76005 0 0 0 16.63906,21.26993c1.05469,0.21381 0.57764,1.81728 -0.471,1.6047l-0.00001,0z"/>
  <path stroke="null" id="svg_20" fill="#fff" d="m69.02005,380.4858a43.21191,43.21191 0 0 0 18.4547,-25.51755c0.26892,-1.04294 1.8733,-0.57067 1.6047,0.471a44.94693,44.94693 0 0 1 -19.25776,26.51428c-0.90848,0.58077 -1.70518,-0.89014 -0.80164,-1.46775l0,0.00002z"/>
  <path stroke="null" id="svg_21" fill="#fff" d="m75.25408,288.98046a12.69058,12.69058 0 0 0 11.99927,-1.01185c0.90067,-0.592 1.69644,0.87961 0.80164,1.46775a14.22082,14.22082 0 0 1 -13.27192,1.1488a0.8643,0.8643 0 0 1 -0.56685,-1.03786a0.84042,0.84042 0 0 1 1.03786,-0.56684z"/>
  <circle stroke="null" id="svg_22" fill="#ff6584" r="52.98539" cy="65.83265" cx="355.43696"/>
  <path stroke="null" id="svg_23" fill="#e6e6e6" d="m519.66675,69.06804a194.72746,194.72746 0 0 0 -15.1,-14.33343c-10.32216,-8.75332 -21.74968,-16.19639 -34.48756,-20.88507a79.52764,79.52764 0 0 0 -14.79692,-3.89536c-0.60613,-0.098 -1.20334,-0.19608 -1.80953,-0.27633a0.66947,0.66947 0 0 0 -0.13368,0a1.60874,1.60874 0 0 0 -0.28524,-0.05348c-1.239,-0.16044 -2.47807,-0.28525 -3.726,-0.37436a64.56723,64.56723 0 0 0 -20.00261,1.80061a66.52042,66.52042 0 0 0 -11.05315,3.85072a98.94821,98.94821 0 0 0 -10.36677,5.87422a62.28526,62.28526 0 0 1 -5.52653,2.98611a68.93083,68.93083 0 0 1 -17.38194,5.56227a78.04106,78.04106 0 0 1 -12.30111,1.21226c-3.58332,0.07133 -6.96169,0.19608 -10.35785,1.4886a24.82174,24.82174 0 0 0 -15.12672,16.38359a1.59657,1.59657 0 0 0 0.7131,1.756c0.91809,0.65967 1.80947,1.4084 2.7811,1.99674a8.72679,8.72679 0 0 0 2.70978,0.73981q2.29982,0.48141 4.60849,0.936q8.49037,1.68465 17.05213,2.98611q17.2215,2.6073 34.63908,3.67249a1.72945,1.72945 0 0 0 0.21392,0.01784a389.85446,389.85446 0 0 0 39.39908,0.38329c1.98776,-0.08025 3.96666,-0.17829 5.95442,-0.29417q12.42138,-0.69531 24.7804,-2.19282q11.43195,-1.39053 22.77479,-3.44964q8.10266,-1.47075 16.143,-3.28028a1.5786,1.5786 0 0 0 0.68632,-2.61172z"/>
  <path stroke="null" id="svg_24" fill="#e6e6e6" d="m399.53594,131.71845a173.06819,173.06819 0 0 0 -25.235,-22.21321c-3.0218,-2.12149 -6.13271,-4.11818 -9.33274,-5.94556a98.90557,98.90557 0 0 0 -12.19415,-5.96334c-0.93594,-0.38329 -1.8808,-0.74873 -2.82566,-1.09638a78.98582,78.98582 0 0 0 -16.60645,-4.17166c-0.04456,-0.00892 -0.08911,0 -0.13367,-0.00892c-0.08917,-0.0178 -0.18721,-0.03564 -0.27633,-0.05349a61.346,61.346 0 0 0 -8.28989,-0.50809c-1.98777,0 -3.98445,0.107 -5.96335,0.30309a65.94589,65.94589 0 0 0 -9.48426,1.64012c-1.54212,0.38334 -3.07527,0.829 -4.58171,1.33707a65.44149,65.44149 0 0 0 -6.46252,2.5137c-0.03563,0.01785 -0.0624,0.02677 -0.098,0.04456a96.29,96.29 0 0 0 -10.26873,5.82967c-0.07133,0.04456 -0.15152,0.08912 -0.22285,0.13367a64.77405,64.77405 0 0 1 -11.83757,5.54443a72.09357,72.09357 0 0 1 -10.857,2.87022a76.88018,76.88018 0 0 1 -12.30106,1.2034c-3.58337,0.07132 -6.96168,0.19607 -10.34892,1.49751a24.83453,24.83453 0 0 0 -15.13565,16.3836a1.60706,1.60706 0 0 0 0.7131,1.756c0.91809,0.65961 1.8184,1.39947 2.7811,1.98781a8.55268,8.55268 0 0 0 2.70979,0.73981c1.5332,0.32094 3.06635,0.64182 4.60842,0.94486q8.49047,1.68473 17.06106,2.97724q11.75292,1.77832 23.60382,2.84351q5.61564,0.52147 11.24031,0.85575q14.427,0.869 28.88073,0.6774q2.98173,-0.04007 5.96335,-0.13367q17.70291,-0.52148 35.29874,-2.65636a388.25605,388.25605 0 0 0 38.90878,-6.72992a1.57187,1.57187 0 0 0 0.68631,-2.60282z"/>
  <path id="svg_25" fill="#ccc" d="m263.46528,7.43066l46.67889,566.15244l-93.35778,7.2727l0,-566.22208c11.12449,-7.62668 27.09337,-8.8199 46.67889,-7.20306z" stroke="null"/>
  <path id="svg_26" fill="#ccc" d="m493.88022,7.43066l-46.67889,566.15244l93.35778,7.27267l0,-566.22205c-11.12449,-7.62668 -27.09338,-8.8199 -46.67889,-7.20306z" stroke="null"/>
  <path id="svg_27" fill="#ccc" d="m542.75566,12.63648c-2.897,-6.29218 -9.05641,-10.6361 -16.17859,-10.6361l-296.80331,0c-9.90324,0 -17.95244,8.41752 -17.95244,18.77398l0,567.96538a22.90919,20.29473 0 0 0 6.18619,14.16908a17.00935,15.0682 0 0 0 7.77287,4.12954a14.83732,13.14405 0 0 0 3.99338,0.47541l296.80331,0a14.83729,13.14402 0 0 0 3.99342,-0.47541c7.98675,-1.90168 13.959,-9.37769 13.959,-18.29861l0,-567.96535a24.34186,21.5639 0 0 0 -1.77383,-8.1379l0,-0.00002zm-4.18058,576.10323c0,6.91673 -5.38392,12.54705 -11.998,12.54705l-296.80332,0c-5.482,0 -10.12609,-3.86849 -11.54341,-9.13531a16.45068,14.57329 0 0 1 -0.45461,-3.41174l0,-567.96533c0,-6.91673 5.384,-12.53772 11.998,-12.53772l296.80333,0a10.17929,9.0176 0 0 1 3.56552,0.56862c4.87589,1.58471 8.43249,6.34811 8.43249,11.96909l0,567.96533l0,0.00001z" stroke="null"/>
  <rect stroke="null" id="svg_28" fill="#ccc" height="5.95901" width="326.75223" y="118.87773" x="214.80006"/>
  <rect stroke="null" id="svg_30" fill="#ccc" height="5.95901" width="326.75223" y="218.19452" x="214.80006"/>
  <rect id="svg_31" fill="#ccc" height="295.93911" width="5.95901" y="6.67467" x="314.8753" stroke="null"/>
  <rect id="svg_32" fill="#ccc" height="293.93897" width="5.95901" y="8.67481" x="435.51804" stroke="null"/>
  <path stroke="null" id="svg_33" fill="#ccc" d="m578.79422,570.2718l-391.30761,0a26.84446,26.84446 0 0 0 -26.81277,26.81278a26.5428,26.5428 0 0 0 1.93433,9.97456a26.81491,26.81491 0 0 0 24.87844,16.84708l391.30761,0a26.81492,26.81492 0 0 0 23.14028,-13.28155a25.895,25.895 0 0 0 1.74708,-3.56553a26.5428,26.5428 0 0 0 1.93433,-9.97456a26.85209,26.85209 0 0 0 -26.82169,-26.81278z"/>
  <rect stroke="null" id="svg_34" fill="#ccc" height="19.86336" width="324.76589" y="288.70943" x="216.78639"/>
  <path stroke="null" id="svg_35" fill="#ccc" d="m376.18982,282.75043l5.959,0a10.92484,10.92484 0 0 1 10.92484,10.92484l0,0a0,0 0 0 1 0,0l-27.8087,0a0,0 0 0 1 0,0l0,0a10.92484,10.92484 0 0 1 10.92486,-10.92484z"/>
  <circle stroke="null" fill="#ffb8b8" r="61.54786" cy="283.18095" cx="384.89849" data-name="ab6171fa-7d69-4734-b81c-8dff60f9761b" id="b6ad44ff-295b-418b-9346-03b76e49c34f"/>
  <path stroke="null" fill="#2f2e41" d="m316.24,223.97143c0.46535,-7.06792 5.13947,-14.30051 19.98981,-18.07989c0,0 25.4858,-32.58965 60.11807,-15.4992c0,0 16.78957,-2.88853 29.23943,14.53128c0,0 12.34335,-7.27988 17.5511,5.62372c0,0 14.4767,26.32034 9.147,53.1671s-8.05769,30.19715 -8.05769,30.19715s6.79346,-55.532 -32.335,-51.68136s-70.63065,-9.90956 -79.49168,20.218c-7.35786,25.0167 -6.431,38.00921 -6.431,38.00921s-24.605,-24.95631 -16.23922,-44.60756c4.2788,-10.05087 5.79153,-20.97838 6.50918,-31.87845z" data-name="bf427902-b9bf-4946-b5d7-5c1c7e04535e" id="e8f77054-5a04-4fda-83df-6cd2e0c3cac3-117"/>
  <path stroke="null" id="svg_36" fill="#6c63ff" d="m217.52572,619.53848l340.43811,0c-2.27524,-25.96852 -3.7624,-125.23509 -3.7624,-131.76855c0,-28.81577 -23.57885,-60.26272 -23.57885,-60.26272l-8.44011,-4.665l-70.4824,-21.99l-18.24022,-23.69329a20.28268,20.28268 0 0 0 -16.24467,-7.93164l-57.61889,0.43221a20.34414,20.34414 0 0 0 -13.66431,5.41489l-35.67965,33.09942l-52.33116,24.98975l-0.089,-0.0889l-0.54657,0.40668l-7.76639,5.59286l-4.9954,3.61s-13.105,15.72348 -23.57885,62.88118c-1.57613,7.09268 -2.68206,98.91055 -3.41924,113.97311z"/>
  <path stroke="null" id="svg_37" fill="#ccc" d="m636.76079,607.05914c-0.82011,0.74873 -1.64909,1.48859 -2.47807,2.22845q-4.70652,4.185 -9.54671,8.22744q-7.31376,6.097 -14.93065,11.82865l-458.2949,0q-13.99918,-10.50938 -26.96429,-22.28454l512.21462,0z"/>
  <polygon stroke="null" id="svg_38" fill="#2f2e41" points="468.77117919921875,612.4076454639435 300.3002014160156,612.4076454639435 303.8652038574219,595.4716713428497 465.2052001953125,595.4716713428497 468.77117919921875,612.4076454639435 "/>
  <path stroke="null" id="svg_39" fill="#3f3d56" d="m621.18832,539.31414l-43.83814,0a6.77113,6.77113 0 0 0 -5.19677,2.40674a9.82887,9.82887 0 0 0 -1.854,-0.17829a10.39795,10.39795 0 1 0 0,20.79589a10.28084,10.28084 0 0 0 4.52818,-1.05182l0.73094,8.98514l2.90591,35.51267a6.48256,6.48256 0 0 0 0.55265,1.27467a6.83429,6.83429 0 0 0 5.999,3.56553l28.50637,0a6.85893,6.85893 0 0 0 6.00791,-3.56553a7.02917,7.02917 0 0 0 0.54373,-1.27467l7.66591,-57.60108a6.85442,6.85442 0 0 0 -6.55169,-8.86925zm-50.88894,20.05608a7.42969,7.42969 0 0 1 0,-14.85937c0.13367,0 0.25848,0.03569 0.39221,0.04461a6.80645,6.80645 0 0 0 0.107,3.62793l3.13763,10.19741a7.30755,7.30755 0 0 1 -3.63684,0.98942z"/>
  <path stroke="null" id="svg_40" fill="#3f3d56" d="m522.17364,350.84933l-277.50488,0a9.0084,9.0084 0 0 0 -8.99406,8.994l0,187.26147a9.00266,9.00266 0 0 0 8.99406,8.994l277.50488,0a9.00266,9.00266 0 0 0 8.99406,-8.994l0,-187.26146a9.0084,9.0084 0 0 0 -8.99406,-8.99401z"/>
  <path stroke="null" id="svg_41" fill="#2f2e41" d="m414.67304,500.89556l-64.91934,0a3.4638,3.4638 0 0 0 -3.45856,3.46748l0,102.55345l71.84542,0l0,-102.55345a3.46567,3.46567 0 0 0 -3.46752,-3.46748zm-32.24126,58.26961a7.70188,7.70188 0 0 1 -7.66591,-7.66586l0,-11.82865a7.66589,7.66589 0 0 1 15.33177,0l0,11.82865a7.70176,7.70176 0 0 1 -7.66586,7.66586z"/>
  <path stroke="null" id="svg_42" fill="#3f3d56" d="m346.07229,603.63621l0,9.89437a1.93827,1.93827 0 0 0 1.93434,1.93428l68.42246,0a1.944,1.944 0 0 0 1.93428,-1.93428l0,-9.89437l-72.29108,0z"/>
  <circle stroke="null" id="svg_43" fill="#2f2e41" r="4.38092" cy="540.76618" cx="516.27258"/>
  <path stroke="null" id="svg_44" fill="#2f2e41" d="m279.70005,534.41154a1.53308,1.53308 0 0 0 -1.5332,1.53315l0,7.88876a1.53318,1.53318 0 0 0 3.06635,0l0,-7.88876a1.533,1.533 0 0 0 -1.53315,-1.53315z"/>
  <path stroke="null" id="svg_45" fill="#2f2e41" d="m288.02556,534.41154a1.53307,1.53307 0 0 0 -1.53315,1.53315l0,7.88876a1.53318,1.53318 0 0 0 3.06636,0l0,-7.88876a1.53308,1.53308 0 0 0 -1.53321,-1.53315z"/>
  <path stroke="null" id="svg_46" fill="#2f2e41" d="m296.35105,534.41154a1.53308,1.53308 0 0 0 -1.5332,1.53315l0,7.88876a1.53318,1.53318 0 0 0 3.06635,0l0,-7.88876a1.533,1.533 0 0 0 -1.53315,-1.53315z"/>
  <path stroke="null" id="svg_47" fill="#2f2e41" d="m304.67656,534.41154a1.53307,1.53307 0 0 0 -1.53315,1.53315l0,7.88876a1.53318,1.53318 0 0 0 3.06635,0l0,-7.88876a1.53308,1.53308 0 0 0 -1.5332,-1.53315z"/>
  <circle stroke="null" id="svg_48" fill="#ffb8b8" r="23.17592" cy="584.7746" cx="311.31919"/>
  <circle stroke="null" id="svg_49" fill="#ffb8b8" r="23.17592" cy="589.2315" cx="473.2279"/>
  <circle stroke="null" id="svg_55" opacity="0.74" fill="#3f3d56" r="30.59452" cy="278.74316" cx="128.55076"/>
  <circle stroke="null" id="svg_56" opacity="0.74" fill="#6c63ff" r="30.59452" cy="278.74316" cx="159.14528"/>
  <circle stroke="null" id="svg_57" opacity="0.74" fill="#ff6584" r="30.59452" cy="254.35956" cx="144.10681"/>
  <rect stroke="null" id="svg_58" fill="#3f3d56" transform="rotate(-123.837 -1.42309e+15 1.40602e+15) matrix(0.86331 -0.254151 0.271219 0.808979 -240.938 132.675)" height="1.78276" width="82.37184" y="354.5045" x="349.9019"/>
  <circle stroke="null" id="svg_59" fill="#3f3d56" r="3.56553" cy="346.82459" cx="221.27466"/>
  <path stroke="null" id="svg_64" fill="#6c63ff" d="m120.17838,412.22093l-105.71782,0a2.7828,2.7828 0 0 0 -2.78111,2.77218l0,6.26644a375.13957,375.13957 0 0 0 12.64871,39.408l95.85024,0a2.76941,2.76941 0 0 0 2.77218,-2.77218l0,-42.90226a2.77516,2.77516 0 0 0 -2.7722,-2.77218z"/>
  <path stroke="null" id="svg_65" fill="#e4e4e4" d="m110.10578,474.58201l-80.13522,0c0.95378,2.23737 1.92541,4.45691 2.93268,6.66752l77.20255,0c4.34993,0.0624 4.30537,-6.72993 -0.00001,-6.66752z"/>
  <path stroke="null" id="svg_66" fill="#e4e4e4" d="m110.10578,489.86025l-73.18241,0q1.60441,3.35605 3.29806,6.66757l69.88435,0c4.34994,0.0624 4.30538,-6.72102 0,-6.66757z"/>
  <path stroke="null" id="svg_67" fill="#e4e4e4" d="m110.10578,505.14746l-65.38282,0c1.19442,2.23738 2.42453,4.45691 3.67248,6.66752l61.71034,0c4.34994,0.0624 4.30538,-6.72992 0,-6.66752z"/>
  <rect stroke="null" id="svg_89" fill="#3f3d56" transform="rotate(76.2973 232.036 251.729) matrix(1.75663 -0.378858 0.551866 1.20593 -818.872 35.2756)" height="1.78276" width="82.37184" y="333.51606" x="452.00383"/>
  <circle stroke="null" id="svg_90" fill="#3f3d56" r="3.56553" cy="320.15765" cx="265.941"/>
  <rect stroke="null" id="svg_93" height="118.66677" width="156.00015" y="174.40621" x="555.76159" fill="#b9b9bf"/>
  <path transform="rotate(-0.281213 632.596 244.332)" stroke="null" id="svg_91" d="m639.10023,257.63916l-2.52964,-7.69487c0.74133,-0.56518 1.43715,-1.16991 2.09395,-1.81704l8.84725,2.19853c0.93317,-1.18122 1.73628,-2.43591 2.45486,-3.73864l-6.58422,-5.53872c0.31539,-0.81385 0.58852,-1.64183 0.7836,-2.49525l8.87326,-1.9329c0.06503,-0.71212 0.12681,-1.42707 0.12681,-2.15614s-0.06503,-1.4412 -0.12681,-2.15332l-8.87326,-1.9329c-0.19834,-0.85342 -0.47146,-1.6814 -0.7836,-2.49525l6.58747,-5.53872c-0.72183,-1.2999 -1.52494,-2.55742 -2.45811,-3.73864l-8.84725,2.19571c-0.65355,-0.6443 -1.35261,-1.24904 -2.09395,-1.81704l2.52964,-7.69204c-1.35911,-0.8082 -2.80602,-1.50902 -4.30494,-2.13354l-6.37288,5.72523c-0.93317,-0.27411 -1.8891,-0.50866 -2.87105,-0.68104l-2.22075,-7.71465c-0.82262,-0.05369 -1.64199,-0.11021 -2.48087,-0.11021s-1.65825,0.05652 -2.47762,0.11021l-2.224,7.71465c-0.98194,0.17238 -1.93462,0.40693 -2.87105,0.68104l-6.37288,-5.72523c-1.49568,0.633 -2.93933,1.33099 -4.29844,2.14202l2.52964,7.69204c-0.74133,0.56518 -1.4404,1.17274 -2.09069,1.81421l-8.8505,-2.19853c-0.93317,1.18122 -1.73628,2.43873 -2.45486,3.74146l6.58747,5.53872c-0.31214,0.81385 -0.58526,1.64183 -0.7836,2.49525l-8.87651,1.9329c-0.06178,0.71212 -0.12681,1.42707 -0.12681,2.15332s0.06503,1.4412 0.12681,2.15614l8.87651,1.9329c0.19834,0.85342 0.47146,1.6814 0.7836,2.49525l-6.58747,5.53872c0.71857,1.2999 1.52169,2.55742 2.45486,3.73864l8.8505,-2.19853c0.65029,0.64713 1.34936,1.24904 2.09069,1.81704l-2.52964,7.69487c1.35911,0.8082 2.80602,1.50619 4.30169,2.13354l6.37288,-5.72523c0.93642,0.27411 1.8891,0.51148 2.87105,0.68104l2.224,7.71182c0.81937,0.05652 1.64199,0.11021 2.48087,0.11021s1.65825,-0.05652 2.48087,-0.11021l2.22075,-7.71182c0.98194,-0.17238 1.93788,-0.40975 2.87105,-0.68104l6.37288,5.72523c1.49242,-0.633 2.93933,-1.33099 4.29844,-2.13919zm-18.24724,-13.56704c-6.10301,0 -11.05174,-4.30099 -11.05174,-9.60516s4.94873,-9.60233 11.05174,-9.60233s11.04849,4.29816 11.04849,9.60233s-4.94548,9.60516 -11.04849,9.60516zm50.37175,20.07786c0.06178,-1.54576 -0.19509,-3.11977 -0.74784,-4.674l4.04483,-5.01028c-0.61128,-0.98906 -1.30059,-1.92725 -2.08419,-2.78066l-6.89962,1.25752c-1.39163,-1.02862 -2.97509,-1.83117 -4.66911,-2.40482l-1.98665,-5.875c-1.25507,-0.19216 -2.52639,-0.29672 -3.81397,-0.29954l-3.16693,5.4709c-0.90716,0.1526 -1.81432,0.36171 -2.70522,0.65843c-0.83563,0.27694 -1.61598,0.62169 -2.36382,0.99753l-6.52245,-2.31439c-0.96569,0.74038 -1.84683,1.5401 -2.64344,2.40765l2.94908,5.56133c-0.84213,1.39881 -1.42089,2.905 -1.68751,4.47902l-6.14853,2.99543c0.06178,1.09644 0.24711,2.19288 0.53324,3.29215l6.84109,1.46663c0.75109,1.48076 1.75904,2.8061 2.97835,3.93645l-1.14452,6.04173c1.04047,0.64995 2.14597,1.20948 3.29374,1.69553l5.57627,-3.73016c1.74279,0.39845 3.56686,0.55105 5.40394,0.42388l4.72113,4.54119c0.65029,-0.16108 1.29734,-0.33345 1.93788,-0.54539c0.56901,-0.18651 1.1055,-0.40693 1.64199,-0.63017l0.1203,-6.11803c1.47942,-0.95797 2.74099,-2.11093 3.74569,-3.40801l7.02642,-0.37867c0.49422,-1.01449 0.90716,-2.06854 1.19654,-3.15085l-5.4267,-3.90536l0.00001,-0.00004zm-13.53586,5.67154c-3.90501,1.29425 -8.27499,-0.40693 -9.76741,-3.80081s0.46496,-7.19468 4.36997,-8.49176c3.90501,-1.29425 8.28149,0.40693 9.77391,3.80081c1.48917,3.39388 -0.47146,7.19468 -4.37648,8.49176l0.00001,0z" fill="#3f3d56"/>
  <circle stroke="null" id="svg_94" fill="#fc7676" r="3.56553" cy="188.82431" cx="571.27511"/>
  <circle stroke="null" id="svg_95" fill="#fcfc71" r="3.56553" cy="188.82431" cx="584.60845"/>
  <circle stroke="null" id="svg_96" fill="#70f970" r="3.56553" cy="188.82431" cx="599.27513"/>
  <rect stroke="null" id="svg_97" height="4" width="66.66673" y="186.40622" x="614.42831" fill="#f7f7f7"/>
  <path id="svg_98" d="m698.74243,190.74361l-2.50336,-1.78792c0.33725,-0.39718 0.53503,-0.86184 0.53538,-1.36013c-0.00035,-1.45347 -1.64829,-2.63069 -3.68232,-2.63119c-2.03437,0.0005 -3.68302,1.17773 -3.68302,2.63094c0,1.45246 1.64865,2.62969 3.68302,2.62969c0.69803,0 1.34864,-0.14126 1.90474,-0.38212l2.50406,1.78817l1.24149,-0.88743l0.00001,-0.00001zm-7.92847,-3.1483c0.00211,-0.89872 1.01982,-1.62533 2.27782,-1.62734c1.2573,0.00201 2.27571,0.72861 2.27782,1.62734c-0.00246,0.89822 -1.02052,1.62483 -2.27782,1.62684c-1.258,-0.00201 -2.27571,-0.72861 -2.27782,-1.62684z" stroke="null" fill="#f7f7f7"/>
  <path id="svg_101" d="m694.85511,215.73968l-0.03563,-0.03563c0.0048,-0.00792 0.00762,-0.01718 0.00762,-0.02711c-0.00001,-0.02897 -0.02346,-0.05243 -0.05241,-0.05244c-0.02896,0.00001 -0.05242,0.02347 -0.05242,0.05243c0,0.02895 0.02347,0.05241 0.05242,0.05241c0.00994,0 0.0192,-0.00282 0.02711,-0.00762l0.03564,0.03564l0.01767,-0.01769l0,0.00001zm-0.11285,-0.06274c0.00003,-0.01791 0.01452,-0.03239 0.03242,-0.03243c0.0179,0.00004 0.03239,0.01452 0.03242,0.03243c-0.00004,0.0179 -0.01453,0.03238 -0.03242,0.03242c-0.01791,-0.00004 -0.03239,-0.01452 -0.03242,-0.03242z" stroke="null" fill="#ffffff"/>
  <rect stroke="null" id="svg_104" fill="#3f3d56" transform="rotate(-29.6282 553.448 309.441) matrix(0.86331 -0.254151 0.271219 0.808979 -240.938 132.675)" height="1.78276" width="82.37184" y="461.09774" x="733.83761"/>
  <circle stroke="null" id="svg_105" fill="#3f3d56" r="3.56553" cy="336.82445" cx="525.94173"/>
  <g stroke="null" id="svg_106">
   <path stroke="null" id="svg_62" fill="#3f3d56" d="m196.91258,101.05282l-73.35246,0a32.96449,23.81053 0 0 0 -32.94542,23.79677l0,52.98308a32.96449,23.81053 0 0 0 32.94542,23.79677l73.35246,0a32.96449,23.81053 0 0 0 32.94542,-23.79677l0,-53.05884a32.95918,23.80669 0 0 0 -32.94542,-23.72101zm27.69096,76.77985a27.72831,20.02839 0 0 1 -27.69096,20.00144l-73.35246,0a27.72831,20.02839 0 0 1 -27.69096,-20.00144l0,-52.98308a27.72828,20.02837 0 0 1 27.69096,-20.00141l73.35246,0a27.72327,20.02475 0 0 1 27.69096,19.92554l0,53.05895z"/>
   <rect stroke="null" rx="2" id="svg_81" height="4.49844" width="83.7008" y="128.06033" x="126.80411" fill="#3f3d56"/>
   <rect stroke="null" rx="2" id="svg_82" height="4.49844" width="83.7008" y="142.68027" x="126.80412" fill="#3f3d56"/>
   <rect stroke="null" rx="2" id="svg_83" height="4.49844" width="83.7008" y="157.30021" x="126.80412" fill="#3f3d56"/>
   <rect stroke="null" rx="2" id="svg_84" height="4.49844" width="83.7008" y="171.92015" x="126.80412" fill="#3f3d56"/>
   <circle stroke="null" id="svg_85" fill="#3f3d56" r="2.94511" cy="128.97528" cx="114.33066"/>
   <circle stroke="null" transform="matrix(0.740203 -0.37431 0.36656 0.755852 -13.8236 115.004)" id="svg_86" fill="#3f3d56" r="3.56553" cy="99.2299" cx="123.99385"/>
   <circle stroke="null" id="svg_87" fill="#3f3d56" r="2.94511" cy="159.33977" cx="114.33066"/>
   <circle stroke="null" id="svg_88" fill="#3f3d56" r="2.94511" cy="173.9597" cx="114.33066"/>
  </g>
  <rect stroke="null" id="svg_29" fill="#3f3d56" transform="rotate(76.2973 192.776 313.322) matrix(0.996501 -0.493831 0.313062 1.5719 -387.26 -73.3003)" height="1.78276" width="82.37184" y="389.9087" x="418.11305"/>
 </g>

</svg>