<svg width="955.2999999999998" height="641" xmlns="http://www.w3.org/2000/svg" data-name="Layer 1" stroke="null">
 <g stroke="null">
  <title stroke="null">Layer 1</title>
  <g stroke="null" id="svg_13">
   <path stroke="null" d="m801.84625,164.02632a366.66671,350.59871 0 0 0 -23.43967,-36.59944q-9.02426,-12.34649 -19.11082,-23.89928l-0.01717,-0.00031a369.28076,353.09821 0 0 0 -39.69658,-38.96506q-4.37707,-3.68879 -8.87704,-7.23195a366.88105,350.80367 0 0 0 -89.49956,-52.1667l-0.53928,45.43187l-6.32469,517.89397l-269.64144,-4.91323l-5.74658,-517.13657l1.94427,-44.68055c-133.1655,50.75387 -228.2648,174.05737 -230.92024,319.78972a367.61367,351.50418 0 0 0 10.31773,89.35849a361.30703,345.47391 0 0 0 11.52103,36.51371q2.45776,6.51145 5.20086,12.9132c0.88108,2.07718 1.77964,4.13825 2.71267,6.19176c1.19636,2.68236 2.44443,5.35746 3.72743,8.00036q1.48899,3.11883 3.06461,6.19818q2.02613,4.04016 4.1909,8.01707c1.11282,2.0814 2.26031,4.14702 3.4252,6.20468a368.81528,352.65314 0 0 0 71.74471,89.04893q12.28134,11.05088 25.59615,20.99556a367.38507,351.2856 0 0 0 441.39713,8.04284q7.43633,-5.1364 14.57865,-10.63122q4.74236,-3.63351 9.33276,-7.40933c0.81085,-0.66676 1.62169,-1.33357 2.42412,-2.00874a368.85769,352.69369 0 0 0 70.19277,-78.87498a360.45837,344.66244 0 0 0 19.22826,-33.4489q2.28552,-4.54044 4.4352,-9.16556a362.26401,346.38896 0 0 0 16.74983,-43.53688q1.05468,-3.44197 2.04104,-6.90979l0.00015,-0.00821c0.11032,-0.40036 0.22943,-0.80881 0.33976,-1.20916c0.67991,-2.43469 1.33433,-4.88625 1.963,-7.33834l0.00015,-0.00815q3.05009,-11.85548 5.2211,-24.01434c0.18213,-1.03951 0.36425,-2.07912 0.53779,-3.1188c0.06696,-0.37648 0.13398,-0.75303 0.18377,-1.12992l0.00015,-0.00821q1.56247,-9.39435 2.60369,-18.93788q1.61282,-14.98572 1.90117,-30.34032a365.62977,349.60723 0 0 0 -42.76293,-170.90851l0,-0.00001z" fill="#ede6e6" id="svg_1"/>
   <path stroke="null" d="m774.69851,560.35602c22.57343,-30.50085 31.25487,-73.46321 13.6955,-107.10093a174.82954,174.82954 0 0 1 -82.77344,86.92701c-14.28918,7.00556 -30.91166,13.3096 -37.52571,27.78427c-4.1156,9.0064 -3.33187,19.64115 -0.02357,28.974c3.3087,9.33322 8.93578,17.63762 14.50346,25.82651l0.29327,2.4545c35.05209,-14.5331 69.25706,-34.36452 91.83049,-64.86537z" fill="#e6e6e6" id="svg_2"/>
   <path stroke="null" d="m787.64496,453.52503a149.43217,149.43217 0 0 1 -31.0859,86.52492a64.35042,64.35042 0 0 1 -14.42368,14.0881a36.90789,36.90789 0 0 1 -18.45223,6.06852c-6.131,0.43935 -12.45317,0.17877 -18.37058,2.10082a22.59884,22.59884 0 0 0 -13.52083,12.6002c-3.27617,7.23152 -3.75856,15.20895 -3.95919,23.02661c-0.22276,8.68 -0.31661,17.69937 -4.41086,25.58989c-0.49607,0.95605 1.0164,1.66989 1.51172,0.71528c7.12328,-13.72815 2.49794,-29.782 6.743,-44.21355c1.98081,-6.734 6.003,-12.91193 12.7258,-15.61049c5.8788,-2.35978 12.39853,-2.09664 18.61012,-2.48784a39.38351,39.38351 0 0 0 18.26339,-5.26147a59.49059,59.49059 0 0 0 14.91211,-13.48158a144.97588,144.97588 0 0 0 22.71061,-39.2091a152.08214,152.08214 0 0 0 10.41289,-50.59569c0.03424,-1.073 -1.63232,-0.9206 -1.66634,0.14537l-0.00003,0z" fill="#fff" id="svg_3"/>
   <path stroke="null" d="m763.21171,532.40961a22.41959,22.41959 0 0 0 28.55391,-5.24167c0.67792,-0.83562 -0.58874,-1.92834 -1.26757,-1.0916a20.76006,20.76006 0 0 1 -26.57106,4.82155c-0.92989,-0.54164 -1.63985,0.97318 -0.71528,1.51172z" fill="#fff" id="svg_4"/>
   <path stroke="null" d="m726.82113,560.39323a43.21194,43.21194 0 0 1 3.185,-31.33014c0.49267,-0.95777 -1.01964,-1.67189 -1.51172,-0.71528a44.94701,44.94701 0 0 0 -3.248,32.60858c0.29233,1.03787 1.86547,0.46907 1.57473,-0.56316l-0.00001,0z" fill="#fff" id="svg_5"/>
   <path stroke="null" d="m783.013,487.90485a12.6906,12.6906 0 0 1 -8.2891,-8.73483c-0.279,-1.04106 -1.85194,-0.47111 -1.57473,0.56316a14.22082,14.22082 0 0 0 9.14855,9.68338a0.8643,0.8643 0 0 0 1.1135,-0.39821a0.84042,0.84042 0 0 0 -0.39822,-1.1135z" fill="#fff" id="svg_6"/>
   <path stroke="null" d="m662.73807,426.48562c0.15574,0.655 0.31148,1.31 0.458,1.97574a167.12739,167.12739 0 0 1 3.9726,26.81792c0.05716,0.69758 0.10457,1.4054 0.14157,2.10317a176.18984,176.18984 0 0 1 -8.40485,64.32101a171.10165,171.10165 0 0 1 -9.93282,24.025c-5.40795,10.69563 -12.12255,21.86213 -13.63677,33.38058a29.35187,29.35187 0 0 0 -0.29037,3.62132l44.80549,42.65841c0.15047,0.04585 0.29177,0.10234 0.44274,0.14866l1.71107,1.785c0.22983,-0.38533 0.45993,-0.78992 0.68976,-1.17525c0.13425,-0.223 0.25852,-0.45544 0.39277,-0.67841c0.08634,-0.15165 0.17224,-0.30384 0.25882,-0.43576c0.02893,-0.05037 0.05735,-0.10122 0.0766,-0.14142c0.08658,-0.13192 0.153,-0.26365 0.22983,-0.38533q1.9386,-3.387 3.83632,-6.813c0.00974,-0.01024 0.00974,-0.01024 0.0095,-0.03c9.59541,-17.42768 17.82018,-35.80954 22.99348,-54.8554c0.15545,-0.57307 0.32115,-1.1559 0.45613,-1.74846a163.2689,163.2689 0 0 0 4.71735,-26.22312a144.33883,144.33883 0 0 0 0.62013,-14.59135a120.02701,120.02701 0 0 0 -6.23946,-37.00566c-7.99194,-23.78467 -23.50168,-44.74863 -45.61033,-55.91701c-0.5658,-0.28523 -1.12204,-0.56157 -1.69756,-0.83664z" fill="#e6e6e6" id="svg_7"/>
   <path stroke="null" d="m662.29737,427.1502a149.43224,149.43224 0 0 1 27.27362,87.80116a64.35075,64.35075 0 0 1 -3.03449,19.93262a36.90791,36.90791 0 0 1 -11.07941,15.95488c-4.63071,4.04207 -9.83552,7.64041 -13.403,12.73774a22.59883,22.59883 0 0 0 -3.20943,18.201c1.738,7.74645 6.15584,14.40642 10.70242,20.76917c5.0481,7.06462 10.40344,14.32258 11.88506,23.08773c0.17951,1.062 1.81691,0.72137 1.63767,-0.339c-2.57776,-15.24987 -15.93635,-25.28318 -21.23573,-39.36178c-2.47279,-6.56933 -2.98081,-13.92367 0.76225,-20.12591c3.27314,-5.42359 8.63721,-9.13882 13.36129,-13.191a39.38372,39.38372 0 0 0 11.41452,-15.19681a59.49082,59.49082 0 0 0 3.78964,-19.74241a144.97594,144.97594 0 0 0 -5.47343,-44.97964a152.08181,152.08181 0 0 0 -22.148,-46.6671c-0.61866,-0.87733 -1.85758,0.24772 -1.243,1.11932l0.00002,0.00002z" fill="#fff" id="svg_8"/>
   <path stroke="null" d="m690.28276,504.84561a22.41957,22.41957 0 0 0 19.64285,-21.3766c0.03819,-1.07535 -1.63107,-1.1852 -1.6693,-0.10842a20.76,20.76 0 0 1 -18.31259,19.84735c-1.06857,0.12739 -0.72342,1.76433 0.339,1.63767l0.00004,0z" fill="#fff" id="svg_9"/>
   <path stroke="null" d="m678.07499,549.09861a43.21201,43.21201 0 0 1 -16.3199,-26.93292c-0.18327,-1.06135 -1.82072,-0.721 -1.63767,0.339a44.94693,44.94693 0 0 0 17.0393,27.99162c0.85828,0.65268 1.77188,-0.74862 0.91827,-1.39775l0,0.00005z" fill="#fff" id="svg_10"/>
   <path stroke="null" d="m679.29803,457.3893a12.69056,12.69056 0 0 1 -11.87735,-1.98366c-0.84957,-0.66322 -1.76231,0.73884 -0.91826,1.39776a14.22084,14.22084 0 0 0 13.13466,2.22358a0.86429,0.86429 0 0 0 0.64931,-0.98836a0.84042,0.84042 0 0 0 -0.98836,-0.64932z" fill="#fff" id="svg_11"/>
   <path stroke="null" d="m120.81702,393.4569a43.21201,43.21201 0 0 0 -0.62828,-31.48534c-0.4132,-0.99464 1.15214,-1.5835 1.56485,-0.59006a44.94692,44.94692 0 0 1 0.58718,32.76468c-0.3757,1.01067 -1.89741,0.31591 -1.52375,-0.68928z" fill="#fff" id="svg_15"/>
   <path stroke="null" d="m195.57051,265.20013c-0.20846,0.64019 -0.41692,1.28037 -0.617,1.932a167.12802,167.12802 0 0 0 -6.1389,26.40637c-0.11366,0.69063 -0.21844,1.39225 -0.312,2.08471a176.19015,176.19015 0 0 0 3.1498,64.79135a171.10131,171.10131 0 0 0 7.94752,24.7527c4.52085,11.09975 10.30576,22.775 10.87889,34.37841a29.352,29.352 0 0 1 -0.00489,3.63293l-48.12401,38.876c-0.15371,0.03347 -0.29913,0.07829 -0.45337,0.11219l-1.85047,1.64006c-0.19776,-0.40274 -0.39421,-0.82469 -0.592,-1.22742c-0.11568,-0.23314 -0.22065,-0.47494 -0.33634,-0.70808c-0.07372,-0.15817 -0.147,-0.31684 -0.22254,-0.45536c-0.02474,-0.05256 -0.04894,-0.10555 -0.06486,-0.14718c-0.07557,-0.13852 -0.13106,-0.2752 -0.19775,-0.40273q-1.65693,-3.53334 -3.26995,-7.10225c-0.00888,-0.011 -0.00888,-0.011 -0.007,-0.03064c-8.14736,-18.14983 -14.85107,-37.1393 -18.45943,-56.54258c-0.10837,-0.58381 -0.22615,-1.17818 -0.31254,-1.77975a163.27114,163.27114 0 0 1 -2.57065,-26.51975a144.34237,144.34237 0 0 1 0.56774,-14.59348a120.02709,120.02709 0 0 1 9.22619,-36.37619c9.89844,-23.05651 27.06058,-42.69068 50.00373,-52.02536c0.587,-0.23836 1.16386,-0.46858 1.75983,-0.69596z" fill="#e6e6e6" id="svg_17"/>
   <path stroke="null" d="m195.95574,265.89831a149.43222,149.43222 0 0 0 -34.31884,85.29427a64.35054,64.35054 0 0 0 1.40458,20.11329a36.908,36.908 0 0 0 9.74613,16.80252c4.28691,4.405 9.18207,8.41444 12.32354,13.78484a22.59883,22.59883 0 0 1 1.71966,18.40165c-2.36182,7.57958 -7.30626,13.85849 -12.35488,19.83071c-5.60554,6.631 -11.533,13.42973 -13.72205,22.04549c-0.26523,1.04392 -1.86953,0.57133 -1.6047,-0.471c3.80856,-14.98994 17.93835,-23.90443 24.36434,-37.50579c2.99848,-6.34664 4.1025,-13.63537 0.87586,-20.12129c-2.82155,-5.67165 -7.86595,-9.81052 -12.24509,-14.23318a39.38376,39.38376 0 0 1 -10.14175,-16.07418a59.49062,59.49062 0 0 1 -2.17268,-19.98509a144.97552,144.97552 0 0 1 9.11073,-44.38601a152.08213,152.08213 0 0 1 25.86726,-44.71282c0.68792,-0.82415 1.83131,0.39787 1.14789,1.21663l0,-0.00005z" fill="#fff" id="svg_18"/>
   <path stroke="null" d="m161.74876,341.06242a22.41961,22.41961 0 0 1 -17.84065,-22.90223a0.83693,0.83693 0 0 1 1.6726,0.0276a20.76005,20.76005 0 0 0 16.63906,21.26993c1.05469,0.21381 0.57764,1.81728 -0.471,1.6047l-0.00001,0z" fill="#fff" id="svg_19"/>
   <path stroke="null" d="m170.3198,386.16114a43.21192,43.21192 0 0 0 18.4547,-25.51755c0.26892,-1.04294 1.8733,-0.57067 1.6047,0.471a44.94694,44.94694 0 0 1 -19.25776,26.51428c-0.90848,0.58077 -1.70518,-0.89014 -0.80164,-1.46775l0,0.00002z" fill="#fff" id="svg_20"/>
   <path stroke="null" d="m176.55383,294.65579a12.69058,12.69058 0 0 0 11.99927,-1.01185c0.90067,-0.592 1.69644,0.87961 0.80164,1.46775a14.22082,14.22082 0 0 1 -13.27192,1.1488a0.8643,0.8643 0 0 1 -0.56685,-1.03786a0.84042,0.84042 0 0 1 1.03786,-0.56684z" fill="#fff" id="svg_21"/>
   <circle stroke="null" cx="456.73675" cy="71.50796" r="52.98539" fill="#ff6584" id="svg_22"/>
   <path stroke="null" d="m620.96656,74.74335a194.72748,194.72748 0 0 0 -15.1,-14.33343c-10.32216,-8.75332 -21.74968,-16.19639 -34.48756,-20.88507a79.52765,79.52765 0 0 0 -14.79692,-3.89536c-0.60613,-0.098 -1.20334,-0.19608 -1.80953,-0.27633a0.66947,0.66947 0 0 0 -0.13368,0a1.60874,1.60874 0 0 0 -0.28524,-0.05348c-1.239,-0.16044 -2.47807,-0.28525 -3.726,-0.37436a64.56724,64.56724 0 0 0 -20.00261,1.80061a66.52043,66.52043 0 0 0 -11.05315,3.85072a98.94822,98.94822 0 0 0 -10.36677,5.87422a62.28527,62.28527 0 0 1 -5.52653,2.98611a68.93084,68.93084 0 0 1 -17.38194,5.56227a78.04107,78.04107 0 0 1 -12.30111,1.21226c-3.58332,0.07133 -6.96169,0.19608 -10.35785,1.4886a24.82174,24.82174 0 0 0 -15.12672,16.38359a1.59657,1.59657 0 0 0 0.7131,1.756c0.91809,0.65967 1.80947,1.4084 2.7811,1.99674a8.72679,8.72679 0 0 0 2.70978,0.73981q2.29982,0.48141 4.60849,0.936q8.49037,1.68465 17.05213,2.98611q17.2215,2.6073 34.63908,3.67249a1.72945,1.72945 0 0 0 0.21392,0.01784a389.85451,389.85451 0 0 0 39.39908,0.38329c1.98776,-0.08025 3.96666,-0.17829 5.95442,-0.29417q12.42138,-0.69531 24.7804,-2.19282q11.43195,-1.39053 22.77479,-3.44964q8.10266,-1.47075 16.143,-3.28028a1.5786,1.5786 0 0 0 0.68632,-2.61172z" fill="#e6e6e6" id="svg_23"/>
   <path stroke="null" d="m500.83573,137.39376a173.06821,173.06821 0 0 0 -25.235,-22.21321c-3.0218,-2.12149 -6.13271,-4.11818 -9.33274,-5.94556a98.90558,98.90558 0 0 0 -12.19415,-5.96334c-0.93594,-0.38329 -1.8808,-0.74873 -2.82566,-1.09638a78.98583,78.98583 0 0 0 -16.60645,-4.17166c-0.04456,-0.00892 -0.08911,0 -0.13367,-0.00892c-0.08917,-0.0178 -0.18721,-0.03564 -0.27633,-0.05349a61.34601,61.34601 0 0 0 -8.28989,-0.50809c-1.98777,0 -3.98445,0.107 -5.96335,0.30309a65.9459,65.9459 0 0 0 -9.48426,1.64012c-1.54212,0.38334 -3.07527,0.829 -4.58171,1.33707a65.4415,65.4415 0 0 0 -6.46252,2.5137c-0.03563,0.01785 -0.0624,0.02677 -0.098,0.04456a96.29001,96.29001 0 0 0 -10.26873,5.82967c-0.07133,0.04456 -0.15152,0.08912 -0.22285,0.13367a64.77406,64.77406 0 0 1 -11.83757,5.54443a72.09358,72.09358 0 0 1 -10.857,2.87022a76.88019,76.88019 0 0 1 -12.30106,1.2034c-3.58337,0.07132 -6.96168,0.19607 -10.34892,1.49751a24.83453,24.83453 0 0 0 -15.13565,16.3836a1.60706,1.60706 0 0 0 0.7131,1.756c0.91809,0.65961 1.8184,1.39947 2.7811,1.98781a8.55268,8.55268 0 0 0 2.70979,0.73981c1.5332,0.32094 3.06635,0.64182 4.60842,0.94486q8.49047,1.68473 17.06106,2.97724q11.75292,1.77832 23.60382,2.84351q5.61564,0.52147 11.24031,0.85575q14.427,0.869 28.88073,0.6774q2.98173,-0.04007 5.96335,-0.13367q17.70291,-0.52148 35.29874,-2.65636a388.2561,388.2561 0 0 0 38.90878,-6.72992a1.57187,1.57187 0 0 0 0.68631,-2.60282z" fill="#e6e6e6" id="svg_24"/>
   <path stroke="null" d="m364.76506,13.10596l46.6789,566.15251l-93.35779,7.2727l0,-566.22215c11.12449,-7.62668 27.09337,-8.8199 46.6789,-7.20306z" fill="#ccc" id="svg_25"/>
   <path stroke="null" d="m595.18002,13.10596l-46.6789,566.15251l93.35779,7.27267l0,-566.22212c-11.12449,-7.62668 -27.09338,-8.8199 -46.6789,-7.20306z" fill="#ccc" id="svg_26"/>
   <path stroke="null" d="m644.05547,18.31178c-2.897,-6.29218 -9.05641,-10.6361 -16.17859,-10.6361l-296.80335,0c-9.90324,0 -17.95244,8.41752 -17.95244,18.77398l0,567.96545a22.90919,20.29473 0 0 0 6.18619,14.16908a17.00935,15.0682 0 0 0 7.77287,4.12954a14.83732,13.14405 0 0 0 3.99338,0.47541l296.80335,0a14.83729,13.14402 0 0 0 3.99342,-0.47541c7.98675,-1.90168 13.959,-9.37769 13.959,-18.29861l0,-567.96542a24.34186,21.5639 0 0 0 -1.77383,-8.1379l0,-0.00002zm-4.18058,576.1033c0,6.91673 -5.38392,12.54705 -11.998,12.54705l-296.80336,0c-5.482,0 -10.12609,-3.86849 -11.54341,-9.13531a16.45068,14.57329 0 0 1 -0.45461,-3.41174l0,-567.9654c0,-6.91673 5.384,-12.53772 11.998,-12.53772l296.80337,0a10.17929,9.0176 0 0 1 3.56552,0.56862c4.87589,1.58471 8.43249,6.34811 8.43249,11.96909l0,567.9654l0,0.00001z" fill="#ccc" id="svg_27"/>
   <rect stroke="null" x="316.09983" y="124.55304" width="326.75227" height="5.95901" fill="#ccc" id="svg_28"/>
   <rect stroke="null" x="316.09983" y="223.86984" width="326.75227" height="5.95901" fill="#ccc" id="svg_30"/>
   <rect stroke="null" x="416.17508" y="12.34997" width="5.95901" height="295.93915" fill="#ccc" id="svg_31"/>
   <rect stroke="null" x="536.81784" y="14.35011" width="5.95901" height="293.93901" fill="#ccc" id="svg_32"/>
   <path stroke="null" d="m680.09403,575.94717l-391.30766,0a26.84446,26.84446 0 0 0 -26.81277,26.81278a26.5428,26.5428 0 0 0 1.93433,9.97456a26.81491,26.81491 0 0 0 24.87844,16.84708l391.30766,0a26.81492,26.81492 0 0 0 23.14028,-13.28155a25.895,25.895 0 0 0 1.74708,-3.56553a26.5428,26.5428 0 0 0 1.93433,-9.97456a26.85209,26.85209 0 0 0 -26.82169,-26.81278z" fill="#ccc" id="svg_33"/>
   <rect stroke="null" x="318.08616" y="294.38476" width="324.76593" height="19.86336" fill="#ccc" id="svg_34"/>
   <path stroke="null" d="m477.48961,288.42576l5.959,0a10.92484,10.92484 0 0 1 10.92484,10.92484l0,0a0,0 0 0 1 0,0l-27.8087,0a0,0 0 0 1 0,0l0,0a10.92484,10.92484 0 0 1 10.92486,-10.92484z" fill="#ccc" id="svg_35"/>
   <circle stroke="null" id="b6ad44ff-295b-418b-9346-03b76e49c34f" data-name="ab6171fa-7d69-4734-b81c-8dff60f9761b" cx="486.19828" cy="288.85628" r="61.54786" fill="#ffb8b8"/>
   <path stroke="null" id="e8f77054-5a04-4fda-83df-6cd2e0c3cac3-117" data-name="bf427902-b9bf-4946-b5d7-5c1c7e04535e" d="m417.53978,229.64675c0.46535,-7.06792 5.13947,-14.30051 19.98981,-18.07989c0,0 25.4858,-32.58965 60.11808,-15.4992c0,0 16.78957,-2.88853 29.23943,14.53128c0,0 12.34335,-7.27988 17.5511,5.62372c0,0 14.4767,26.32034 9.147,53.16711s-8.05769,30.19715 -8.05769,30.19715s6.79346,-55.53201 -32.335,-51.68137s-70.63066,-9.90956 -79.49169,20.218c-7.35786,25.0167 -6.431,38.00921 -6.431,38.00921s-24.605,-24.95631 -16.23922,-44.60757c4.2788,-10.05087 5.79153,-20.97838 6.50918,-31.87845z" fill="#2f2e41"/>
   <path stroke="null" d="m318.82549,625.21385l340.43815,0c-2.27524,-25.96852 -3.7624,-125.2351 -3.7624,-131.76857c0,-28.81577 -23.57885,-60.26273 -23.57885,-60.26273l-8.44011,-4.665l-70.48241,-21.99l-18.24022,-23.69329a20.28268,20.28268 0 0 0 -16.24467,-7.93164l-57.6189,0.43221a20.34414,20.34414 0 0 0 -13.66431,5.41489l-35.67965,33.09942l-52.33117,24.98975l-0.089,-0.0889l-0.54657,0.40668l-7.76639,5.59286l-4.9954,3.61s-13.105,15.72348 -23.57885,62.88119c-1.57613,7.09268 -2.68206,98.91056 -3.41924,113.97312z" fill="#6c63ff" id="svg_36"/>
   <path stroke="null" d="m738.06061,612.73451c-0.82011,0.74873 -1.64909,1.48859 -2.47807,2.22845q-4.70652,4.185 -9.54671,8.22744q-7.31376,6.097 -14.93065,11.82865l-458.29495,0q-13.99918,-10.50938 -26.96429,-22.28454l512.21468,0z" fill="#ccc" id="svg_37"/>
   <polygon stroke="null" points="570.0709161758423,618.0831315517426 401.59993839263916,618.0831315517426 405.1649408340454,601.1471574306488 566.504937171936,601.1471574306488 570.0709161758423,618.0831315517426 " fill="#2f2e41" id="svg_38"/>
   <path stroke="null" d="m722.48814,544.9895l-43.83815,0a6.77113,6.77113 0 0 0 -5.19677,2.40674a9.82887,9.82887 0 0 0 -1.854,-0.17829a10.39795,10.39795 0 1 0 0,20.79589a10.28084,10.28084 0 0 0 4.52818,-1.05182l0.73094,8.98514l2.90591,35.51267a6.48256,6.48256 0 0 0 0.55265,1.27467a6.83429,6.83429 0 0 0 5.999,3.56553l28.50637,0a6.85893,6.85893 0 0 0 6.00791,-3.56553a7.02917,7.02917 0 0 0 0.54373,-1.27467l7.66591,-57.60109a6.85442,6.85442 0 0 0 -6.55169,-8.86925zm-50.88895,20.05608a7.42969,7.42969 0 0 1 0,-14.85937c0.13367,0 0.25848,0.03569 0.39221,0.04461a6.80645,6.80645 0 0 0 0.107,3.62793l3.13763,10.19741a7.30755,7.30755 0 0 1 -3.63684,0.98942z" fill="#3f3d56" id="svg_39"/>
   <path stroke="null" d="m623.47345,356.52467l-277.50491,0a9.0084,9.0084 0 0 0 -8.99406,8.994l0,187.26149a9.00266,9.00266 0 0 0 8.99406,8.994l277.50491,0a9.00266,9.00266 0 0 0 8.99406,-8.994l0,-187.26148a9.0084,9.0084 0 0 0 -8.99406,-8.99401z" fill="#3f3d56" id="svg_40"/>
   <path stroke="null" d="m515.97283,506.57092l-64.91935,0a3.4638,3.4638 0 0 0 -3.45856,3.46748l0,102.55346l71.84543,0l0,-102.55346a3.46567,3.46567 0 0 0 -3.46752,-3.46748zm-32.24126,58.26962a7.70188,7.70188 0 0 1 -7.66591,-7.66586l0,-11.82865a7.66589,7.66589 0 0 1 15.33177,0l0,11.82865a7.70176,7.70176 0 0 1 -7.66586,7.66586z" fill="#2f2e41" id="svg_41"/>
   <path stroke="null" d="m447.37208,609.31158l0,9.89437a1.93827,1.93827 0 0 0 1.93434,1.93428l68.42247,0a1.944,1.944 0 0 0 1.93428,-1.93428l0,-9.89437l-72.29109,0z" fill="#3f3d56" id="svg_42"/>
   <circle stroke="null" cx="617.57239" cy="546.44154" r="4.38092" fill="#2f2e41" id="svg_43"/>
   <path stroke="null" d="m380.99983,540.0869a1.53308,1.53308 0 0 0 -1.5332,1.53315l0,7.88876a1.53318,1.53318 0 0 0 3.06635,0l0,-7.88876a1.533,1.533 0 0 0 -1.53315,-1.53315z" fill="#2f2e41" id="svg_44"/>
   <path stroke="null" d="m389.32534,540.0869a1.53307,1.53307 0 0 0 -1.53315,1.53315l0,7.88876a1.53318,1.53318 0 0 0 3.06636,0l0,-7.88876a1.53308,1.53308 0 0 0 -1.53321,-1.53315z" fill="#2f2e41" id="svg_45"/>
   <path stroke="null" d="m397.65083,540.0869a1.53308,1.53308 0 0 0 -1.5332,1.53315l0,7.88876a1.53318,1.53318 0 0 0 3.06635,0l0,-7.88876a1.533,1.533 0 0 0 -1.53315,-1.53315z" fill="#2f2e41" id="svg_46"/>
   <path stroke="null" d="m405.97634,540.0869a1.53307,1.53307 0 0 0 -1.53315,1.53315l0,7.88876a1.53318,1.53318 0 0 0 3.06635,0l0,-7.88876a1.53308,1.53308 0 0 0 -1.5332,-1.53315z" fill="#2f2e41" id="svg_47"/>
   <circle stroke="null" cx="412.61897" cy="590.44997" r="23.17592" fill="#ffb8b8" id="svg_48"/>
   <circle stroke="null" cx="574.5277" cy="594.90687" r="23.17594" fill="#ffb8b8" id="svg_49"/>
   <circle stroke="null" cx="229.85052" cy="284.41849" r="30.59454" fill="#3f3d56" opacity="0.74" id="svg_55"/>
   <circle stroke="null" cx="260.44504" cy="284.41849" r="30.59452" fill="#6c63ff" opacity="0.74" id="svg_56"/>
   <circle stroke="null" cx="245.40657" cy="260.03489" r="30.59453" fill="#ff6584" opacity="0.74" id="svg_57"/>
   <rect stroke="null" x="457.66261" y="394.95163" width="82.37184" height="1.78276" transform="matrix(-0.691823 -0.575568 0.520935 -0.675747 -2.31363e+25 -1.16299e+25)" fill="#3f3d56" id="svg_58"/>
   <circle stroke="null" cx="324.57475" cy="352.49993" r="3.56554" fill="#3f3d56" id="svg_59"/>
   <path stroke="null" d="m221.47814,417.89628l-105.71783,0a2.7828,2.7828 0 0 0 -2.78111,2.77218l0,6.26644a375.13961,375.13961 0 0 0 12.64871,39.408l95.85025,0a2.76941,2.76941 0 0 0 2.77218,-2.77218l0,-42.90227a2.77516,2.77516 0 0 0 -2.7722,-2.77218z" fill="#6c63ff" id="svg_64"/>
   <path stroke="null" d="m211.40554,480.25736l-80.13523,0c0.95378,2.23737 1.92541,4.45691 2.93268,6.66752l77.20256,0c4.34993,0.0624 4.30537,-6.72993 -0.00001,-6.66752z" fill="#e4e4e4" id="svg_65"/>
   <path stroke="null" d="m211.40554,495.53561l-73.18242,0q1.60441,3.35605 3.29806,6.66757l69.88436,0c4.34994,0.0624 4.30538,-6.72102 0,-6.66757z" fill="#e4e4e4" id="svg_66"/>
   <path stroke="null" d="m211.40554,510.82282l-65.38283,0c1.19442,2.23738 2.42453,4.45691 3.67248,6.66752l61.71035,0c4.34994,0.0624 4.30538,-6.72992 0,-6.66752z" fill="#e4e4e4" id="svg_67"/>
   <rect stroke="null" x="299.05297" y="448.60648" width="82.37184" height="1.78276" transform="matrix(0.784192 1.61689 -1.04088 0.821824 534.887 -661.535)" fill="#3f3d56" id="svg_89"/>
   <circle stroke="null" cx="367.24078" cy="325.83299" r="3.56554" fill="#3f3d56" id="svg_90"/>
   <rect stroke="null" fill="#b9b9bf" x="657.0614" y="180.08153" width="156.00017" height="118.66678" id="svg_93"/>
   <path stroke="null" fill="#3f3d56" d="m740.46529,263.28241l-2.56738,-7.68236c0.73855,-0.56881 1.43139,-1.17695 2.08501,-1.8273l8.85794,2.15508c0.92736,-1.18579 1.7243,-2.4444 2.43648,-3.75064l-6.61133,-5.50634c0.31139,-0.81539 0.58045,-1.6447 0.77134,-2.49907l8.86367,-1.97643c0.06153,-0.71243 0.1198,-1.42768 0.11623,-2.15674s-0.0721,-1.44086 -0.13738,-2.15267l-8.88264,-1.88933c-0.20253,-0.85244 -0.47971,-1.67907 -0.79584,-2.49137l6.56021,-5.57099c-0.7282,-1.29634 -1.53747,-2.5499 -2.47643,-3.72653l-8.83637,2.23911c-0.6567,-0.64108 -1.35872,-1.24239 -2.10284,-1.80674l2.49186,-7.70436c-1.36306,-0.80152 -2.81339,-1.49523 -4.31536,-2.11239l-6.3447,5.75644c-0.9345,-0.26953 -1.89157,-0.49938 -2.87436,-0.66694l-2.25859,-7.70366c-0.82287,-0.04965 -1.64251,-0.10215 -2.48138,-0.09803s-1.65795,0.06466 -2.47705,0.12237l-2.18611,7.72547c-0.98108,0.1772 -1.9326,0.41642 -2.86767,0.69512l-6.4009,-5.69388c-1.49256,0.64033 -2.93276,1.3454 -4.28788,2.16309l2.56736,7.67953c-0.73855,0.56881 -1.43463,1.1798 -2.08176,1.82445l-8.86119,-2.15506c-0.92736,1.18579 -1.72429,2.44722 -2.43647,3.75346l6.61458,5.50632c-0.30814,0.81537 -0.57719,1.64468 -0.77134,2.49907l-8.86692,1.97644c-0.05828,0.71241 -0.1198,1.42768 -0.11624,2.15392s0.0721,1.44086 0.13739,2.15549l8.88589,1.88931c0.20253,0.85244 0.47971,1.67907 0.79584,2.49137l-6.56021,5.57099c0.72494,1.29636 1.53422,2.54992 2.47318,3.72655l8.8396,-2.24194c0.65346,0.64393 1.35547,1.2424 2.09958,1.80676l-2.49184,7.70719c1.36306,0.80152 2.81338,1.4924 4.31211,2.1124l6.3447,-5.75644c0.93775,0.26951 1.89159,0.5022 2.87436,0.66694l2.26182,7.70081c0.81964,0.0525 1.64251,0.10215 2.48138,0.09803s1.65795,-0.06466 2.4803,-0.12238l2.18287,-7.72263c0.98108,-0.1772 1.93585,-0.41926 2.86767,-0.69512l6.4009,5.69388c1.4893,-0.64032 2.93276,-1.3454 4.28789,-2.16026zm-18.31361,-13.47732c-6.10294,0.02995 -11.07272,-4.2467 -11.09875,-9.5508s4.90154,-9.6265 11.00448,-9.65646s11.06945,4.24388 11.09549,9.54799s-4.89828,9.62932 -11.00122,9.65927zm50.46969,19.83039c0.05419,-1.54604 -0.2104,-3.11878 -0.77077,-4.67027l4.02019,-5.03007c-0.61613,-0.98605 -1.31003,-1.92084 -2.09781,-2.7704l-6.89337,1.29137c-1.39666,-1.02178 -2.98404,-1.81655 -4.68086,-2.38187l-2.01546,-5.86518c-1.256,-0.186 -2.52782,-0.28432 -3.81539,-0.28082l-3.14004,5.48638c-0.9064,0.15705 -1.81252,0.37061 -2.70196,0.6717c-0.83426,0.28104 -1.61291,0.62961 -2.3589,1.00912l-6.53373,-2.28235c-0.96204,0.74511 -1.83925,1.54915 -2.63159,2.4206l2.97634,5.54679c-0.83525,1.40293 -1.40662,2.91194 -1.66551,4.48725l-6.13375,3.02557c0.06716,1.09612 0.25787,2.19164 0.54939,3.28949l6.84821,1.43304c0.75835,1.47706 1.77279,2.79743 2.99763,3.92179l-1.11485,6.04728c1.04365,0.64484 2.15188,1.19893 3.30202,1.67934l5.5579,-3.75748c1.74472,0.38989 3.56952,0.53354 5.40596,0.39735l4.74336,4.51796c0.64949,-0.16427 1.29569,-0.33981 1.93518,-0.55489c0.56809,-0.1893 1.10349,-0.41235 1.63888,-0.63822l0.09027,-6.11855c1.4747,-0.96522 2.7306,-2.12436 3.72892,-3.42635l7.02448,-0.41315c0.48923,-1.0169 0.897,-2.07297 1.18106,-3.15669l-5.4458,-3.87868l0.00001,-0.00004zm-13.50786,5.73791c-3.89861,1.3134 -8.27689,-0.36631 -9.78595,-3.75283s0.42964,-7.19688 4.32824,-8.51311c3.89861,-1.3134 8.28339,0.36628 9.79245,3.75279c1.50581,3.38653 -0.43614,7.19691 -4.33475,8.51314l0.00001,0z" id="svg_91"/>
   <circle stroke="null" cx="672.57492" cy="194.49963" r="3.56552" fill="#fc7676" id="svg_94"/>
   <circle stroke="null" cx="685.90826" cy="194.49963" r="3.56552" fill="#fcfc71" id="svg_95"/>
   <circle stroke="null" cx="700.57495" cy="194.49963" r="3.56552" fill="#70f970" id="svg_96"/>
   <rect stroke="null" fill="#f7f7f7" x="715.72813" y="192.08154" width="66.66674" height="4" id="svg_97"/>
   <path stroke="null" fill="#f7f7f7" d="m800.04226,196.41893l-2.50336,-1.78792c0.33725,-0.39718 0.53503,-0.86184 0.53538,-1.36013c-0.00035,-1.45347 -1.64829,-2.63069 -3.68232,-2.63119c-2.03437,0.0005 -3.68302,1.17773 -3.68302,2.63094c0,1.45246 1.64865,2.62969 3.68302,2.62969c0.69803,0 1.34864,-0.14126 1.90474,-0.38212l2.50406,1.78817l1.24149,-0.88743l0.00001,-0.00001zm-7.92847,-3.1483c0.00211,-0.89872 1.01982,-1.62533 2.27782,-1.62734c1.2573,0.00201 2.27571,0.72861 2.27782,1.62734c-0.00246,0.89822 -1.02052,1.62483 -2.27782,1.62684c-1.258,-0.00201 -2.27571,-0.72861 -2.27782,-1.62684z" id="svg_98"/>
   <path stroke="null" fill="#ffffff" d="m796.15494,221.415l-0.03563,-0.03563c0.0048,-0.00792 0.00762,-0.01718 0.00762,-0.02711c-0.00001,-0.02897 -0.02346,-0.05243 -0.05241,-0.05244c-0.02896,0.00001 -0.05242,0.02347 -0.05242,0.05243c0,0.02895 0.02347,0.05241 0.05242,0.05241c0.00994,0 0.0192,-0.00282 0.02711,-0.00762l0.03564,0.03564l0.01767,-0.01769l0,0.00001zm-0.11285,-0.06274c0.00003,-0.01791 0.01452,-0.03239 0.03242,-0.03243c0.0179,0.00004 0.03239,0.01452 0.03242,0.03243c-0.00004,0.0179 -0.01453,0.03238 -0.03242,0.03242c-0.01791,-0.00004 -0.03239,-0.01452 -0.03242,-0.03242z" id="svg_101"/>
   <rect stroke="null" x="861.52045" y="75.00472" width="82.37184" height="1.78276" transform="matrix(0.624789 -0.647716 0.635692 0.569124 42.4998 856.62)" fill="#3f3d56" id="svg_104"/>
   <circle stroke="null" cx="627.24154" cy="342.49979" r="3.56552" fill="#3f3d56" id="svg_105"/>
   <g stroke="null" id="svg_106">
    <path stroke="null" d="m298.21235,106.72813l-73.35247,0a32.96449,23.81053 0 0 0 -32.94542,23.79677l0,52.98309a32.96449,23.81053 0 0 0 32.94542,23.79677l73.35247,0a32.96449,23.81053 0 0 0 32.94542,-23.79677l0,-53.05885a32.95918,23.80669 0 0 0 -32.94542,-23.72101zm27.69096,76.77986a27.72831,20.02839 0 0 1 -27.69096,20.00144l-73.35247,0a27.72831,20.02839 0 0 1 -27.69096,-20.00144l0,-52.98309a27.72828,20.02837 0 0 1 27.69096,-20.00141l73.35247,0a27.72327,20.02475 0 0 1 27.69096,19.92554l0,53.05896z" fill="#3f3d56" id="svg_62"/>
    <rect stroke="null" fill="#3f3d56" x="228.10387" y="133.73564" width="83.70081" height="4.49844" id="svg_81" rx="2"/>
    <rect stroke="null" fill="#3f3d56" x="228.10388" y="148.35558" width="83.70081" height="4.49844" id="svg_82" rx="2"/>
    <rect stroke="null" fill="#3f3d56" x="228.10388" y="162.97553" width="83.70081" height="4.49844" id="svg_83" rx="2"/>
    <rect stroke="null" fill="#3f3d56" x="228.10388" y="177.59547" width="83.70081" height="4.49844" id="svg_84" rx="2"/>
    <circle stroke="null" cx="215.63042" cy="134.65059" r="2.94511" fill="#3f3d56" id="svg_85"/>
    <circle stroke="null" cx="87.86381" cy="-249.84438" r="3.56553" fill="#3f3d56" id="svg_86" transform="matrix(0.740203 -0.37431 0.36656 0.755852 242.176 371.004)"/>
    <circle stroke="null" cx="215.63042" cy="165.01509" r="2.94511" fill="#3f3d56" id="svg_87"/>
    <circle stroke="null" cx="215.63042" cy="179.63502" r="2.94511" fill="#3f3d56" id="svg_88"/>
   </g>
   <rect stroke="null" x="168.37473" y="448.68436" width="82.37184" height="1.78276" transform="matrix(0.637136 0.720724 -1.32293 0.597791 757.274 -98.482)" fill="#3f3d56" id="svg_29"/>
  </g>
 </g>

</svg>