<svg width="631" height="544" xmlns="http://www.w3.org/2000/svg" style="vector-effect: non-scaling-stroke;" stroke="null" data-name="Layer 1">
 <g stroke="null">
  <title stroke="null">Layer 1</title>
  <path stroke="null" id="svg_2" fill="#fff" d="m655.47149,432.90626a81.3498,81.3498 0 0 1 20.58531,45.62207a35.03206,35.03206 0 0 1 -0.31163,10.97177a20.09236,20.09236 0 0 1 -4.92329,9.35855c-2.23269,2.49243 -4.80513,4.78336 -6.39308,7.77513a12.30262,12.30262 0 0 0 -0.5215,10.04784c1.45513,4.06963 4.28576,7.3737 7.16617,10.5086c3.19815,3.48072 6.57517,7.04542 7.95963,11.68254c0.16774,0.56185 1.02974,0.26871 0.86224,-0.29229c-2.40871,-8.06779 -10.29479,-12.59884 -14.096,-19.85247c-1.7737,-3.38468 -2.53814,-7.32439 -0.92895,-10.92483c1.40716,-3.14843 4.05786,-5.51313 6.34032,-8.01723a21.44009,21.44009 0 0 0 5.15486,-8.97129a32.38605,32.38605 0 0 0 0.7323,-10.91931a78.92362,78.92362 0 0 0 -5.95384,-23.93789a82.79233,82.79233 0 0 0 -15.07556,-23.73876c-0.39271,-0.43281 -0.98715,0.2576 -0.597,0.68757l0.00002,0z"/>
  <path stroke="null" id="svg_3" fill="#fff" d="m675.76811,473.02076a12.20505,12.20505 0 0 0 9.18894,-12.8584c-0.051,-0.58356 -0.96023,-0.53171 -0.90915,0.05262a11.30163,11.30163 0 0 1 -8.57208,11.94354c-0.56886,0.14 -0.27332,1.00146 0.29229,0.86224z"/>
  <path stroke="null" id="svg_4" fill="#fff" d="m672.12039,497.74398a23.52422,23.52422 0 0 1 -10.61193,-13.46464c-0.16973,-0.56124 -1.03178,-0.26827 -0.86225,0.29229a24.46878,24.46878 0 0 0 11.07116,13.98874c0.50721,0.29546 0.90748,-0.52253 0.403,-0.81639l0.00002,0z"/>
  <path stroke="null" id="svg_5" fill="#fff" d="m666.6715,448.11189a6.90865,6.90865 0 0 1 -6.5495,-0.2805c-0.50321,-0.30174 -0.90295,0.5166 -0.403,0.81638a7.74171,7.74171 0 0 0 7.24481,0.32637a0.47052,0.47052 0 0 0 0.285,-0.57727a0.45752,0.45752 0 0 0 -0.57727,-0.285l-0.00004,0.00002z"/>
  <path stroke="null" id="svg_7" fill="#fff" d="m596.44161,470.02899a81.34988,81.34988 0 0 1 43.90385,24.03288a35.03233,35.03233 0 0 1 6.35695,8.948a20.09248,20.09248 0 0 1 1.70352,10.43644c-0.28207,3.3343 -0.95672,6.71227 -0.42336,10.05708a12.30267,12.30267 0 0 0 5.63311,8.33662c3.612,2.37328 7.86142,3.30716 12.04869,4.076c4.64918,0.85365 9.49174,1.66667 13.389,4.53561c0.47221,0.34761 0.984,-0.40543 0.51248,-0.75251c-6.78059,-4.99147 -15.80519,-3.86129 -23.20741,-7.36434c-3.454,-1.63458 -6.43634,-4.32 -7.31921,-8.16357c-0.772,-3.361 -0.07931,-6.845 0.23547,-10.21862a21.44023,21.44023 0 0 0 -1.28547,-10.26666a32.38621,32.38621 0 0 0 -5.98948,-9.15935a78.92392,78.92392 0 0 0 -19.16607,-15.52847a82.79235,82.79235 0 0 0 -26.32937,-9.87755c-0.57413,-0.10913 -0.63309,0.8 -0.0627,0.90843l0,0.00001z"/>
  <path stroke="null" id="svg_8" fill="#fff" d="m636.79903,489.8382a12.20506,12.20506 0 0 0 -0.4048,-15.79909c-0.39208,-0.43523 -1.08682,0.15358 -0.69422,0.58939a11.30162,11.30162 0 0 1 0.34651,14.69722c-0.36991,0.45429 0.38472,0.96417 0.75251,0.51248z"/>
  <path stroke="null" id="svg_9" fill="#fff" d="m648.77161,511.77449a23.52429,23.52429 0 0 1 -16.57968,-4.36165c-0.47342,-0.34593 -0.98533,0.407 -0.51248,0.75251a24.46877,24.46877 0 0 0 17.26189,4.50362c0.58287,-0.06946 0.41,-0.96357 -0.16973,-0.89448z"/>
  <path stroke="null" id="svg_10" fill="#fff" d="m614.53903,475.42665a6.90864,6.90864 0 0 1 -5.39829,3.71928c-0.58345,0.062 -0.40993,0.95612 0.16973,0.89449a7.74174,7.74174 0 0 0 5.98107,-4.10129a0.47053,0.47053 0 0 0 -0.12,-0.6325a0.45753,0.45753 0 0 0 -0.63249,0.12l-0.00002,0.00002z"/>
  <path stroke="null" id="svg_11" fill="#a0616a" d="m484.90284,274.92a6.6176,6.6176 0 0 0 10.13608,0.47785l21.56551,9.37924l-2.1006,-12.03868l-20.15693,-7.061a6.65349,6.65349 0 0 0 -9.44406,9.24262l0,-0.00003z"/>
  <path stroke="null" id="svg_12" fill="#3f3d56" d="m504.52428,268.11875l41.19723,5.33928l42.485,-25.59256a18.78361,18.78361 0 0 1 26.80668,8.35028l0,0a18.80382,18.80382 0 0 1 -8.4331,24.39255l-57.08925,20.34376l-0.10746,0.03844l-50.08943,-22.31169l5.23033,-10.56006z"/>
  <polygon stroke="null" id="svg_13" fill="#a0616a" points="609.8086318969727,534.5482177734375 601.0506362915039,534.5482177734375 596.8846817016602,500.7682800292969 609.8106460571289,500.7692565917969 609.8086318969727,534.5482177734375 "/>
  <path stroke="null" id="svg_14" fill="#2f2e41" d="m612.0421,543.03764l-28.2383,-0.001l0,-0.3572a10.99172,10.99172 0 0 1 10.99113,-10.991l0.0007,0l5.1581,-3.9132l9.62386,3.9138l2.465,0.0001l-0.00049,11.3485z"/>
  <polygon stroke="null" id="svg_15" fill="#a0616a" points="575.8706436157227,529.029296875 567.3286514282227,530.9583129882812 555.8236465454102,498.9263000488281 568.4316787719727,496.0792541503906 575.8706436157227,529.029296875 "/>
  <path stroke="null" id="svg_16" fill="#2f2e41" d="m579.91958,536.81838l-27.54492,6.21926l-0.07868,-0.3484a10.99172,10.99172 0 0 1 8.3001,-13.14209l0.00068,-0.00016l4.1694,-4.9533l10.2496,1.69774l2.40451,-0.54289l2.49931,11.06984z"/>
  <path stroke="null" id="svg_17" fill="#2f2e41" d="m620.90057,328.03805c4.106,12.3837 3.67191,25.82586 -0.98693,40.253l-1.99154,81.22817s2.96729,53.26781 -6.6076,72.01238l-13.88626,0l-6.87529,-76.877l-0.86335,-51.60031l-29.77062,43.53325l18.9618,83.68716l-17.09068,1.52787l-30.76995,-90.82l37.964,-88.11122l51.91642,-14.8333z"/>
  <path stroke="null" id="svg_18" fill="#3f3d56" d="m564.68693,340.00985l3.42446,-8.561l-2.26477,-7.36036l-0.51563,-71.32157l-0.00028,-0.05432l8.21752,-13.10363l0.06685,-8.288l22.94605,-0.55964l2.48846,6.31934l4.924,2.9442a35.64637,35.64637 0 0 1 17.30723,31.18057l-0.88947,48.12063l2.28984,4.58024a9.63783,9.63783 0 0 1 -5.67975,13.49028l-50.4935,8.07657l-1.82101,-5.46331z"/>
  <circle stroke="null" id="svg_19" fill="#a0616a" r="20.8488" cy="202.05461" cx="582.98681"/>
  <path stroke="null" id="svg_20" fill="#2f2e41" d="m604.6968,206.59957c0.62184,-2.6197 0.33635,-6.30613 -0.01506,-8.94389a25.03486,25.03486 0 0 0 -10.5963,-17.38372a7.63326,7.63326 0 0 0 -3.80218,-1.511a3.28226,3.28226 0 0 0 -3.3002,1.99619a6.84189,6.84189 0 0 0 -3.8598,-3.82756a12.05793,12.05793 0 0 0 -5.49444,-0.74021a20.08039,20.08039 0 0 0 -16.75192,11.9747c-0.55687,1.32291 -2.11229,-3.56352 -2.81785,-2.31357a5.55717,5.55717 0 0 1 -3.15143,2.76892c-1.38251,0.38578 -1.944,6.08184 -2.4881,4.75361a6.33176,6.33176 0 0 0 6.05342,8.8288a34.87245,34.87245 0 0 0 4.143,-0.793a10.32927,10.32927 0 0 1 11.3093,7.73074a13.68475,13.68475 0 0 1 1.80033,-4.00553a4.63181,4.63181 0 0 1 3.71585,-2.04166a5.2038,5.2038 0 0 1 3.57592,2.05552c0.91785,1.07772 1.6072,2.3351 2.53182,3.407c2.71306,3.14524 6.38255,10.4801 10.24894,9.94514c3.05125,-0.42212 8.04966,-8.32361 8.8987,-11.90048z"/>
  <path stroke="null" id="svg_21" fill="#a0616a" d="m505.26464,330.2548a6.61764,6.61764 0 0 0 9.07527,-4.53962l23.39771,-2.36389l-7.71912,-9.474l-21.0354,3.69722a6.65349,6.65349 0 0 0 -3.71842,12.68029l-0.00004,0z"/>
  <path stroke="null" id="svg_22" fill="#3f3d56" d="m519.05448,314.72744l38.54676,-15.48762l24.54475,-43.09887a18.78361,18.78361 0 0 1 27.46639,-5.82433l0,0a18.80381,18.80381 0 0 1 4.5716,25.40107l-39.85047,45.66175l-0.07493,0.08608l-54.60267,5.031l-0.60143,-11.76908z"/>
  <path stroke="null" id="svg_23" fill="#ccc" d="m710.46929,542.89498l-347.988,0a1.19069,1.19069 0 1 1 0,-2.38137l347.988,0a1.19069,1.19069 0 1 1 0,2.38137z"/>
  <path stroke="null" id="svg_24" fill="#6c63ff" d="m494.14679,368.25177l-263.27941,0a6.9282,5.19493 0 0 1 -6.92016,-5.1889l0,-80.10161a6.92822,5.19494 0 0 1 6.92016,-5.18891l263.27941,0a6.9281,5.19485 0 0 1 6.92016,5.18891l0,80.10161a6.92809,5.19484 0 0 1 -6.92016,5.1889z"/>
  <path stroke="null" id="svg_25" fill="#e4e4e4" d="m471.51911,417.03277l-128.024,0a4.98795,4.98795 0 1 1 0,-9.97589l128.024,0c6.43253,-0.08978 6.49692,10.06649 0,9.97589z"/>
  <path stroke="null" id="svg_26" fill="#e4e4e4" d="m470.51911,438.8942l-128.024,0a4.98795,4.98795 0 1 1 0,-9.9759l128.024,0c6.43253,-0.08979 6.49692,10.0665 0,9.9759z"/>
  <path stroke="null" id="svg_27" fill="#e4e4e4" d="m470.51911,460.75562l-128.024,0a4.98795,4.98795 0 1 1 0,-9.97589l128.024,0c6.43253,-0.08979 6.49692,10.06649 0,9.97589z"/>
  <path style="vector-effect: non-scaling-stroke;" stroke="null" id="svg_33" fill="#f0f0f0" d="m65.95603,15.08752c-0.178,0.79592 -0.356,1.59184 -0.52259,2.40058a202.45258,202.45258 0 0 0 -4.37543,32.54807c-0.05788,0.84589 -0.1038,1.704 -0.13725,2.54979a213.43075,213.43075 0 0 0 11.22712,77.77264a207.26709,207.26709 0 0 0 12.42215,28.93878c6.72447,12.86716 15.0393,26.28341 17.06085,40.2106a35.55473,35.55473 0 0 1 0.41063,4.38162l-53.57683,52.3995c-0.18152,0.058 -0.35174,0.12871 -0.53386,0.18727l-2.04349,2.19c-0.28466,-0.463 -0.57,-0.94931 -0.85461,-1.4123c-0.16624,-0.26789 -0.32054,-0.54745 -0.48678,-0.81534c-0.107,-0.18228 -0.21357,-0.36523 -0.32059,-0.52361c-0.03586,-0.06054 -0.07112,-0.12167 -0.09508,-0.17005c-0.107,-0.15838 -0.18961,-0.31685 -0.28466,-0.463q-2.40326,-4.071 -4.75763,-8.18989c-0.012,-0.01224 -0.012,-0.01224 -0.012,-0.03615c-11.90612,-20.95328 -22.16757,-43.08461 -28.74369,-66.06987c-0.19762,-0.69161 -0.40781,-1.39487 -0.581,-2.11041a197.78094,197.78094 0 0 1 -6.14065,-31.68621a174.84773,174.84773 0 0 1 -0.98857,-17.66379a145.397,145.397 0 0 1 6.9554,-44.92495c9.29327,-28.93943 27.73842,-54.58458 54.336,-68.4721c0.68066,-0.35486 1.34991,-0.6986 2.04256,-1.04118z"/>
  <path stroke="null" id="svg_34" fill="#fff" d="m66.50062,15.88533c-21.28009,31.05493 -32.77682,69.10935 -31.60659,106.79368c0.253,8.14727 1.21868,16.39 3.99991,24.09417a44.7091,44.7091 0 0 0 13.67965,19.14519c5.67477,4.82064 12.03769,9.09445 16.44183,15.21059c4.64218,6.44673 5.80121,14.302 4.18363,21.99392c-1.97915,9.41123 -7.22187,17.55006 -12.62542,25.331c-5.9996,8.63922 -12.36818,17.51763 -14.02017,28.15861c-0.20016,1.2893 -2.189,0.90333 -1.98916,-0.384c2.87417,-18.51348 18.8916,-30.88379 25.08142,-48.02284c2.88829,-7.99739 3.384,-16.91366 -1.25079,-24.36527c-4.05287,-6.51611 -10.6106,-10.92892 -16.39862,-15.76025c-6.07751,-5.073 -10.9828,-10.86619 -14.07323,-18.22151c-3.16134,-7.52408 -4.45132,-15.74643 -4.9115,-23.85149a175.6193,175.6193 0 0 1 5.89779,-54.571a184.22712,184.22712 0 0 1 26.06753,-56.8863c0.73508,-1.07275 2.254,0.26982 1.52376,1.33556l-0.00004,-0.00006z"/>
  <path stroke="null" id="svg_35" fill="#fff" d="m33.86741,110.44993a27.15836,27.15836 0 0 1 -24.14038,-25.57294c-0.06375,-1.30191 1.95636,-1.46214 2.02019,-0.15849a25.14806,25.14806 0 0 0 22.50425,23.74227c1.29639,0.13691 0.905,2.12529 -0.384,1.98916l-0.00006,0z"/>
  <path stroke="null" id="svg_36" fill="#fff" d="m49.3743,163.8531a52.34554,52.34554 0 0 0 19.32933,-32.88829c0.20472,-1.28855 2.19364,-0.903 1.98916,0.384a54.44726,54.44726 0 0 1 -20.18349,34.18237c-1.029,0.80452 -2.15839,-0.87794 -1.135,-1.6781l0,0.00002z"/>
  <path stroke="null" id="svg_37" fill="#fff" d="m46.40051,52.78934a15.37292,15.37292 0 0 0 14.35425,-2.596c1.01827,-0.81717 2.14664,0.86624 1.135,1.67809a17.22664,17.22664 0 0 1 -15.87329,2.90707a1.047,1.047 0 0 1 -0.80257,-1.18659a1.01807,1.01807 0 0 1 1.1866,-0.80257l0.00001,0z"/>
  <circle stroke="null" id="svg_38" fill="#2f2e41" r="22.44541" cy="94.78792" cx="80.24554"/>
  <path stroke="null" id="svg_39" fill="#d1d3d4" d="m203.06018,310.7826l-158.13972,0a4.16146,4.16146 0 0 1 -4.15662,-4.15663l0,-64.16624a4.16145,4.16145 0 0 1 4.15662,-4.15662l158.13972,0a4.16139,4.16139 0 0 1 4.15662,4.15662l0,64.16624a4.16139,4.16139 0 0 1 -4.15662,4.15663z"/>
  <path stroke="null" id="svg_40" fill="#e4e4e4" d="m188.00236,341.56353l-128.024,0a4.988,4.988 0 0 1 0,-9.9759l128.024,0c6.43254,-0.08979 6.49688,10.06647 0,9.9759z"/>
  <path stroke="null" id="svg_41" fill="#e4e4e4" d="m188.00236,364.42495l-128.024,0a4.98795,4.98795 0 1 1 0,-9.97589l128.024,0c6.43254,-0.08979 6.49688,10.06649 0,9.97589z"/>
  <path stroke="null" id="svg_42" fill="#e4e4e4" d="m188.00236,387.28638l-128.024,0a4.98795,4.98795 0 0 1 0,-9.9759l128.024,0c6.43254,-0.08978 6.49688,10.0665 0,9.9759z"/>
  <path stroke="null" id="svg_43" fill="#ffb6b6" d="m198.51433,139.11431a7.5527,7.5527 0 0 1 -11.506,1.31694l-56.03547,23.91971l1.47421,-13.86917l54.6082,-21.17247a7.59361,7.59361 0 0 1 11.45907,9.805l-0.00001,-0.00001z"/>
  <path stroke="null" id="svg_44" fill="#6c63ff" d="m84.45837,137.82596s-6.9281,6.729 -0.05264,15.38831s40.87031,14.28989 46.32241,15.36146s35.77912,-19.55715 35.77912,-19.55715l2.93726,-14.94511l-33.85165,11.614l-51.1345,-7.86151z"/>
  <path stroke="null" id="svg_45" fill="#ffb6b6" d="m65.85262,188.8816l0.54554,10.36527s-1.6102,9.1817 -0.28592,11.1631c1.31431,1.97149 37.17883,2.22041 37.17883,2.22041s2.36973,-12.77463 4.41087,-23.95613l-41.84932,0.20735z"/>
  <polygon stroke="null" id="svg_46" fill="#ffb6b6" points="168.96759796142578,325.9329833984375 176.46558380126953,324.4189758300781 174.31958770751953,294.13299560546875 163.25360870361328,296.3689880371094 168.96759796142578,325.9329833984375 "/>
  <polygon stroke="null" id="svg_47" fill="#ffb6b6" points="179.70758819580078,286.52099609375 186.6775894165039,283.3869934082031 177.6355972290039,254.41000366210938 167.34760284423828,259.0369873046875 179.70758819580078,286.52099609375 "/>
  <path stroke="null" id="svg_48" fill="#2f2e41" d="m185.77912,270.1942l-13.12456,7.43147l-32.368,-52.01294c-22.72256,15.30844 -44.94235,22.63954 -67.34188,26.55157c-7.57317,1.34845 -15.2945,0.66509 -16.74841,-7.04294q-0.102,-0.54051 -0.16257,-1.08705c-0.89431,-8.41941 9.57876,-19.21125 10.91,-29.5123l28.663,-1.72061l3.53455,4.53182l33.14777,-20.37939a14.22944,14.22944 0 0 1 19.58307,4.95118q0.32862,0.54118 0.61018,1.10917l33.29685,67.18002z"/>
  <path stroke="null" id="svg_49" fill="#2f2e41" d="m177.74612,305.18379l-15.01776,1.39566l-27.22964,-55.68935c-27.0018,4.64388 -52.47556,6.13153 -74.50924,0.51382a14.24211,14.24211 0 0 1 -10.18528,-17.20508q0.12864,-0.53472 0.29751,-1.0581c2.637,-8.04565 9.53976,-13.73838 14.97824,-22.5875l39.72453,0.60342l-4.437,15.3091l38.58961,-4.99362a14.22943,14.22943 0 0 1 15.8303,12.54641q0.07779,0.62835 0.10166,1.26184l21.85707,69.9034z"/>
  <circle stroke="null" id="svg_50" fill="#ffb6b6" r="16.13042" cy="102.99703" cx="81.36355"/>
  <path stroke="null" id="svg_51" fill="#6c63ff" d="m71.90712,124.95054l14.7901,1.74a3.018,3.018 0 0 1 2.59579,2.353l2.35209,10.763l14.66229,17.26667s5.26507,9.87206 3.29069,21.0604s-2.84205,19.50179 -2.84205,19.50179s-39.33133,14.747 -40.6476,12.77256s-1.74344,-10.94267 -1.74344,-10.94267l-5.26508,-58.57419s5.92323,-9.87205 9.21392,-9.87205c2.12378,-0.07164 1.85133,-4.85152 3.59329,-6.06851z"/>
  <ellipse stroke="null" id="svg_52" fill="#6c63ff" ry="4.50647" rx="3.75539" cy="196.73028" cx="107.15588"/>
  <path stroke="null" id="svg_53" fill="#2f2e41" d="m165.24664,318.13516l11.431,-5.72874l2.15445,5.02613l14.45491,2.922a3.41579,3.41579 0 0 1 0.6692,6.48775l-13.96637,5.98667l-4.5384,-3.93972l1.19114,5.37452l-5.26588,2.25722l-6.13005,-18.38583z"/>
  <path stroke="null" id="svg_54" fill="#2f2e41" d="m176.43603,284.11037l11.32849,-5.9289l2.24251,4.98747l14.50407,2.6673a3.41578,3.41578 0 0 1 0.7832,6.475l-13.85893,6.23139l-4.607,-3.8593l1.28548,5.35274l-5.22537,2.34948l-6.45245,-18.27518z"/>
  <path stroke="null" id="svg_55" fill="#2f2e41" d="m72.14767,97.93738a20.64237,20.64237 0 0 1 -11.90679,-3.75646l-0.11641,-0.08151l0,-0.142a15.56559,15.56559 0 0 1 15.5479,-15.5479l6.54649,0a15.56559,15.56559 0 0 1 15.54791,15.5479a3.62006,3.62006 0 0 1 -3.54069,3.60249l-21.71054,0.37426c-0.12251,0.00215 -0.2456,0.00322 -0.36787,0.00322z"/>
  <path stroke="null" id="svg_56" fill="#ffb6b6" d="m137.07424,223.41021a7.55265,7.55265 0 0 1 -8.22151,-8.15655l-53.70233,-28.77824l11.74595,-7.52062l50.66588,29.38193a7.59361,7.59361 0 0 1 -0.488,15.07348l0.00001,0z"/>
  <path stroke="null" id="svg_57" fill="#6c63ff" d="m66.77053,133.58923s-9.58323,-1.2 -12.04279,9.57987s14.4,40.83164 16.97242,45.75671s37.633,15.69661 37.633,15.69661l13.5004,-7.05147l-30.22867,-19.15845l-25.83436,-44.82327z"/>
  <path stroke="null" id="svg_58" fill="#2f2e41" d="m83.86011,80.81333c1.50926,-1.85063 0.32945,-4.59164 -0.90821,-6.63391q-4.25372,-7.01907 -8.92988,-13.77023c-3.89552,-5.62391 -8.61563,-11.5035 -15.32276,-12.85178c-6.11687,-1.22961 -12.27907,1.67716 -17.54144,5.02911c-5.17385,3.29557 -10.26964,7.44685 -12.23887,13.25646c-1.88453,5.55973 -0.561,11.7338 1.78383,17.11563c2.00823,4.60934 4.71,10.12111 1.84595,14.25346a11.05671,11.05671 0 0 1 -5.29648,3.60469a37.8325,37.8325 0 0 1 -16.62932,2.45369c7.76709,-0.0835 14.56583,7.89179 22.09541,5.98389c4.26985,-1.08192 7.11355,-5.06266 9.15993,-8.96324a25.11031,25.11031 0 0 0 2.98931,-8.466c0.49749,-4.04034 -0.57852,-8.292 0.7799,-12.12949c1.41377,-3.99388 5.17214,-6.66612 8.96571,-8.55255c2.51875,-1.25249 5.26467,-2.29852 8.06961,-2.0862c7.95119,0.60184 12.06933,10.38851 19.61418,12.969"/>
  <path stroke="null" id="svg_59" fill="#6c63ff" d="m540.35488,136.43028l-338.65057,0a8.9116,5.42459 0 0 1 -8.90125,-5.41831l0,-83.64289a8.9116,5.42459 0 0 1 8.90125,-5.4183l338.65057,0a8.91147,5.42451 0 0 1 8.90125,5.4183l0,83.64289a8.91147,5.42451 0 0 1 -8.90125,5.41831z"/>
  <path stroke="null" id="svg_60" fill="#e4e4e4" d="m339.04158,166.21121l-128.024,0a4.98795,4.98795 0 0 1 0,-9.9759l128.024,0c6.43254,-0.08979 6.49688,10.0665 0,9.9759z"/>
  <path stroke="null" id="svg_61" fill="#e4e4e4" d="m339.04158,189.07263l-128.024,0a4.98795,4.98795 0 1 1 0,-9.97589l128.024,0c6.43254,-0.08979 6.49688,10.06649 0,9.97589z"/>
  <path stroke="null" id="svg_62" fill="#e4e4e4" d="m339.04158,211.9341l-128.024,0a4.98795,4.98795 0 0 1 0,-9.9759l128.024,0c6.43254,-0.08982 6.49688,10.06646 0,9.9759z"/>
 </g>

</svg>